SplineFontDB: 3.2
FontName: Inconsolata-SemiCondensedBold
FullName: Inconsolata Semi Condensed Bold
FamilyName: Inconsolata Semi Condensed Bold
Weight: Bold
Copyright: Copyright 2006 The Inconsolata Project Authors (https://github.com/cyrealtype/Inconsolata)
Version: 3.000; ttfautohint (v1.8.3)
ItalicAngle: 0
UnderlinePosition: -297
UnderlineWidth: 102
Ascent: 1802
Descent: 246
InvalidEm: 0
sfntRevision: 0x00030000
LayerCount: 2
Layer: 0 1 "Back" 1
Layer: 1 1 "Fore" 0
XUID: [1021 89 -1257786482 14312]
StyleMap: 0x0040
FSType: 0
OS2Version: 4
OS2_WeightWidthSlopeOnly: 0
OS2_UseTypoMetrics: 1
CreationTime: 1576097233
ModificationTime: 1732392373
PfmFamily: 81
TTFWeight: 700
TTFWidth: 4
LineGap: 0
VLineGap: 0
Panose: 0 0 0 0 0 0 0 0 0 0
OS2TypoAscent: 1759
OS2TypoAOffset: 0
OS2TypoDescent: -389
OS2TypoDOffset: 0
OS2TypoLinegap: 0
OS2WinAscent: 2056
OS2WinAOffset: 0
OS2WinDescent: 930
OS2WinDOffset: 0
HheadAscent: 1759
HheadAOffset: 0
HheadDescent: -389
HheadDOffset: 0
OS2SubXSize: 1331
OS2SubYSize: 1229
OS2SubXOff: 0
OS2SubYOff: 154
OS2SupXSize: 1331
OS2SupYSize: 1229
OS2SupXOff: 0
OS2SupYOff: 717
OS2StrikeYSize: 102
OS2StrikeYPos: 571
OS2CapHeight: 1276
OS2XHeight: 952
OS2Vendor: 'CYRE'
OS2CodePages: 60000193.cdd40000
OS2UnicodeRanges: a00000ff.0000f9eb.00000020.00000000
Lookup: 1 0 0 "'aalt' Access All Alternates in Latin lookup 0" { "'aalt' Access All Alternates in Latin lookup 0 subtable"  } ['aalt' ('DFLT' <'dflt' > 'latn' <'AZE ' 'CAT ' 'CRT ' 'KAZ ' 'MOL ' 'ROM ' 'TAT ' 'TRK ' 'dflt' > ) ]
Lookup: 3 0 0 "'aalt' Access All Alternates in Latin lookup 1" { "'aalt' Access All Alternates in Latin lookup 1 subtable"  } ['aalt' ('DFLT' <'dflt' > 'latn' <'AZE ' 'CAT ' 'CRT ' 'KAZ ' 'MOL ' 'ROM ' 'TAT ' 'TRK ' 'dflt' > ) ]

StartChar: A
Encoding: 65 65 1
Width: 922
VWidth: 2424
GlyphClass: 2
Flags: HW
AnchorPoint: "Anchor-3" 711 0 basechar 0
AnchorPoint: "Anchor-2" 468 0 basechar 0
AnchorPoint: "Anchor-0" 468 1511 basechar 0
LayerCount: 2
Fore
SplineSet
468 1009 m 1,0,-1
 362 543 l 1,1,-1
 572 543 l 1,2,-1
 468 1009 l 1,0,-1
693 0 m 1,3,-1
 614 356 l 1,4,-1
 320 356 l 1,5,-1
 240 0 l 1,6,-1
 23 0 l 1,7,-1
 415 1525 l 1,8,-1
 524 1525 l 1,9,-1
 913 0 l 1,10,-1
 693 0 l 1,3,-1
EndSplineSet
Substitution2: "Single Substitution lookup 29 subtable" ordfeminine
Substitution2: "'aalt' Access All Alternates in Latin lookup 0 subtable" ordfeminine
EndChar

StartChar: AE
Encoding: 198 198 26
Width: 922
VWidth: 2424
GlyphClass: 1
Flags: HW
LayerCount: 2
Fore
SplineSet
304 601 m 1,0,-1
 416 601 l 1,1,-1
 431 1226 l 1,2,-1
 427 1226 l 1,3,-1
 304 601 l 1,0,-1
-10 0 m 1,4,-1
 335 1511 l 1,5,-1
 880 1511 l 1,6,-1
 880 1297 l 1,7,-1
 606 1297 l 1,8,-1
 606 895 l 1,9,-1
 835 895 l 1,10,-1
 835 678 l 1,11,-1
 606 678 l 1,12,-1
 606 213 l 1,13,-1
 875 213 l 1,14,-1
 875 0 l 1,15,-1
 416 0 l 1,16,-1
 416 386 l 1,17,-1
 266 386 l 1,18,-1
 186 0 l 1,19,-1
 -10 0 l 1,4,-1
EndSplineSet
EndChar

StartChar: B
Encoding: 66 66 28
Width: 922
VWidth: 2424
GlyphClass: 2
Flags: HW
AnchorPoint: "Anchor-2" 514 0 basechar 0
AnchorPoint: "Anchor-0" 514 1511 basechar 0
LayerCount: 2
Fore
SplineSet
316 218 m 1,0,-1
 488 218 l 2,1,2
 595 218 595 218 657 274 c 128,-1,3
 719 330 719 330 719 442 c 0,4,5
 719 556 719 556 660 625 c 128,-1,6
 601 694 601 694 457 694 c 2,7,-1
 316 694 l 1,8,-1
 316 218 l 1,0,-1
316 907 m 1,9,-1
 449 907 l 2,10,11
 582 907 582 907 630 962.5 c 128,-1,12
 678 1018 678 1018 678 1108 c 0,13,14
 678 1193 678 1193 629 1244 c 128,-1,15
 580 1295 580 1295 471 1295 c 2,16,-1
 316 1295 l 1,17,-1
 316 907 l 1,9,-1
78 0 m 1,18,-1
 78 1511 l 1,19,-1
 468 1511 l 2,20,21
 690 1511 690 1511 804 1410 c 128,-1,22
 918 1309 918 1309 918 1132 c 0,23,24
 918 1023 918 1023 871 932.5 c 128,-1,25
 824 842 824 842 735 805 c 1,26,27
 840 756 840 756 904 657 c 128,-1,28
 968 558 968 558 968 434 c 0,29,30
 968 233 968 233 842.5 116.5 c 128,-1,31
 717 0 717 0 466 0 c 2,32,-1
 78 0 l 1,18,-1
EndSplineSet
EndChar

StartChar: C
Encoding: 67 67 29
Width: 922
VWidth: 2424
GlyphClass: 2
Flags: HW
AnchorPoint: "Anchor-2" 544 0 basechar 0
AnchorPoint: "Anchor-0" 535 1511 basechar 0
LayerCount: 2
Fore
SplineSet
555 -27 m 0,0,1
 421 -27 421 -27 308.5 52 c 128,-1,2
 196 131 196 131 128.5 301.5 c 128,-1,3
 61 472 61 472 61 747 c 0,4,5
 61 975 61 975 106.5 1126 c 128,-1,6
 152 1277 152 1277 227 1366 c 128,-1,7
 302 1455 302 1455 389.5 1492 c 128,-1,8
 477 1529 477 1529 563 1529 c 0,9,10
 704 1529 704 1529 801.5 1457.5 c 128,-1,11
 899 1386 899 1386 951 1258 c 1,12,-1
 815 1118 l 1,13,-1
 799 1103 l 1,14,-1
 786 1120 l 1,15,16
 788 1137 788 1137 784.5 1157.5 c 128,-1,17
 781 1178 781 1178 762 1212 c 1,18,19
 720 1270 720 1270 674 1292 c 128,-1,20
 628 1314 628 1314 577 1314 c 0,21,22
 502 1314 502 1314 436 1253.5 c 128,-1,23
 370 1193 370 1193 330 1070.5 c 128,-1,24
 290 948 290 948 290 759 c 0,25,26
 290 483 290 483 368.5 338.5 c 128,-1,27
 447 194 447 194 565 194 c 0,28,29
 706 194 706 194 788 356 c 1,30,-1
 935 208 l 1,31,32
 867 79 867 79 774 26 c 128,-1,33
 681 -27 681 -27 555 -27 c 0,0,1
EndSplineSet
EndChar

StartChar: D
Encoding: 68 68 36
Width: 922
VWidth: 2424
GlyphClass: 2
Flags: HW
AnchorPoint: "Anchor-4" 515 756 basechar 0
AnchorPoint: "Anchor-2" 506 0 basechar 0
AnchorPoint: "Anchor-0" 454 1511 basechar 0
LayerCount: 2
Fore
SplineSet
321 208 m 1,0,-1
 391 208 l 2,1,2
 581 208 581 208 660.5 351.5 c 128,-1,3
 740 495 740 495 740 740 c 0,4,5
 740 912 740 912 710 1036.5 c 128,-1,6
 680 1161 680 1161 609 1230.5 c 128,-1,7
 538 1300 538 1300 415 1300 c 2,8,-1
 321 1300 l 1,9,-1
 321 208 l 1,0,-1
85 -2 m 1,10,-1
 85 1511 l 1,11,-1
 417 1511 l 2,12,13
 587 1511 587 1511 681.5 1460 c 128,-1,14
 776 1409 776 1409 841 1307 c 0,15,16
 905 1205 905 1205 940 1066.5 c 128,-1,17
 975 928 975 928 975 747 c 0,18,19
 971 395 971 395 835 196.5 c 128,-1,20
 699 -2 699 -2 391 -2 c 2,21,-1
 85 -2 l 1,10,-1
EndSplineSet
EndChar

StartChar: Eth
Encoding: 208 208 37
Width: 922
VWidth: 2424
GlyphClass: 1
Flags: HW
LayerCount: 2
Fore
SplineSet
316 215 m 1,0,-1
 385 215 l 2,1,2
 551 215 551 215 629 348 c 128,-1,3
 707 481 707 481 707 740 c 0,4,5
 707 1002 707 1002 636 1143 c 128,-1,6
 565 1284 565 1284 401 1284 c 2,7,-1
 316 1284 l 1,8,-1
 316 904 l 1,9,-1
 489 904 l 1,10,-1
 489 694 l 1,11,-1
 316 694 l 1,12,-1
 316 215 l 1,0,-1
104 0 m 1,13,-1
 104 694 l 1,14,-1
 32 694 l 1,15,-1
 32 904 l 1,16,-1
 104 904 l 1,17,-1
 104 1511 l 1,18,-1
 408 1511 l 2,19,20
 525 1511 525 1511 609 1473 c 128,-1,21
 693 1435 693 1435 748 1375.5 c 128,-1,22
 803 1316 803 1316 835 1251 c 0,23,24
 875 1176 875 1176 898.5 1046 c 128,-1,25
 922 916 922 916 922 747 c 0,26,27
 922 384 922 384 795.5 192 c 128,-1,28
 669 0 669 0 387 0 c 2,29,-1
 104 0 l 1,13,-1
EndSplineSet
EndChar

StartChar: E
Encoding: 69 69 42
Width: 922
VWidth: 2424
GlyphClass: 2
Flags: HW
AnchorPoint: "Anchor-3" 904 14 basechar 0
AnchorPoint: "Anchor-2" 546 0 basechar 0
AnchorPoint: "Anchor-0" 579 1511 basechar 0
LayerCount: 2
Fore
SplineSet
111 0 m 1,0,-1
 111 1513 l 1,1,-1
 994 1513 l 1,2,-1
 994 1295 l 1,3,-1
 359 1295 l 1,4,-1
 359 897 l 1,5,-1
 880 897 l 1,6,-1
 880 678 l 1,7,-1
 359 678 l 1,8,-1
 359 215 l 1,9,-1
 990 215 l 1,10,-1
 990 0 l 1,11,-1
 111 0 l 1,0,-1
EndSplineSet
EndChar

StartChar: uni01B8
Encoding: 440 440 65
Width: 922
VWidth: 2424
GlyphClass: 1
Flags: HW
LayerCount: 2
Fore
SplineSet
582 -41 m 0,0,1
 439 -41 439 -41 331 19.5 c 128,-1,2
 223 80 223 80 165 184.5 c 128,-1,3
 107 289 107 289 107 419 c 0,4,5
 107 616 107 616 211 744 c 128,-1,6
 315 872 315 872 488 916 c 1,7,-1
 150 1312 l 1,8,-1
 150 1511 l 1,9,-1
 902 1511 l 1,10,-1
 902 1282 l 1,11,-1
 449 1282 l 1,12,-1
 732 933 l 1,13,-1
 732 722 l 1,14,15
 710.13559322 722.915254237 710.13559322 722.915254237 689.662166044 722.915254237 c 0,16,17
 508.813559322 722.915254237 508.813559322 722.915254237 436.5 651.5 c 0,18,19
 356 572 356 572 356 432 c 0,20,21
 356 307 356 307 428 246 c 128,-1,22
 500 185 500 185 601 185 c 0,23,24
 744 185 744 185 822 259 c 1,25,26
 843 291 843 291 849.5 306.5 c 128,-1,27
 856 322 856 322 854 342 c 1,28,-1
 868 359 l 1,29,-1
 885 344 l 1,30,-1
 984 141 l 1,31,32
 904 46 904 46 807.5 2.5 c 128,-1,33
 711 -41 711 -41 582 -41 c 0,0,1
EndSplineSet
EndChar

StartChar: F
Encoding: 70 70 66
Width: 922
VWidth: 2424
GlyphClass: 2
Flags: HW
AnchorPoint: "Anchor-2" 546 0 basechar 0
AnchorPoint: "Anchor-0" 546 1511 basechar 0
LayerCount: 2
Fore
SplineSet
143 0 m 1,0,-1
 143 1513 l 1,1,-1
 990 1513 l 1,2,-1
 990 1295 l 1,3,-1
 375 1295 l 1,4,-1
 375 921 l 1,5,-1
 872 921 l 1,6,-1
 872 706 l 1,7,-1
 375 706 l 1,8,-1
 375 0 l 1,9,-1
 143 0 l 1,0,-1
EndSplineSet
EndChar

StartChar: G
Encoding: 71 71 67
Width: 922
VWidth: 2424
GlyphClass: 2
Flags: HW
AnchorPoint: "Anchor-2" 527 0 basechar 0
AnchorPoint: "Anchor-0" 539 1511 basechar 0
LayerCount: 2
Fore
SplineSet
552 -27 m 0,0,1
 315 -27 315 -27 183 180.5 c 128,-1,2
 51 388 51 388 51 747 c 0,3,4
 51 987 51 987 100.5 1141 c 128,-1,5
 150 1295 150 1295 228 1381 c 128,-1,6
 306 1467 306 1467 392 1500.5 c 0,7,8
 473.154929577 1532.11267606 473.154929577 1532.11267606 540.952390399 1532.11267606 c 0,9,10
 545 1532.11267606 545 1532.11267606 549 1532 c 0,11,12
 673 1532 673 1532 777 1467 c 128,-1,13
 881 1402 881 1402 937 1284 c 1,14,-1
 809 1129 l 1,15,-1
 793 1110 l 1,16,-1
 778 1127 l 1,17,18
 778 1146 778 1146 773.5 1164.5 c 128,-1,19
 769 1183 769 1183 746 1217 c 0,20,21
 712 1261 712 1261 668.5 1287.5 c 128,-1,22
 625 1314 625 1314 556 1314 c 0,23,24
 482 1314 482 1314 419.5 1262 c 128,-1,25
 357 1210 357 1210 319 1092 c 128,-1,26
 281 974 281 974 281 773 c 0,27,28
 281 477 281 477 355 333 c 128,-1,29
 429 189 429 189 549 189 c 0,30,31
 598 189 598 189 644.5 204.5 c 128,-1,32
 691 220 691 220 731 259 c 1,33,-1
 731 555 l 1,34,-1
 534 555 l 1,35,-1
 534 773 l 1,36,-1
 941 773 l 1,37,-1
 941 129 l 1,38,39
 850 44 850 44 752 8.5 c 128,-1,40
 654 -27 654 -27 552 -27 c 0,0,1
EndSplineSet
EndChar

StartChar: H
Encoding: 72 72 74
Width: 922
VWidth: 2424
GlyphClass: 2
Flags: HW
AnchorPoint: "Anchor-4" 577 756 basechar 0
AnchorPoint: "Anchor-2" 577 0 basechar 0
AnchorPoint: "Anchor-0" 542 1511 basechar 0
LayerCount: 2
Fore
SplineSet
79 1511 m 1,0,-1
 341 1511 l 1,1,-1
 341 1488 l 1,2,3
 330 1474 330 1474 326.5 1457.5 c 128,-1,4
 323 1441 323 1441 323 1399 c 2,5,-1
 323 897 l 1,6,-1
 706 897 l 1,7,-1
 706 1511 l 1,8,-1
 969 1511 l 1,9,-1
 969 1488 l 1,10,11
 958 1474 958 1474 954.5 1457.5 c 128,-1,12
 951 1441 951 1441 951 1399 c 2,13,-1
 951 0 l 1,14,-1
 706 0 l 1,15,-1
 706 684 l 1,16,-1
 323 684 l 1,17,-1
 323 0 l 1,18,-1
 79 0 l 1,19,-1
 79 1511 l 1,0,-1
EndSplineSet
EndChar

StartChar: Hbar
Encoding: 294 294 75
Width: 922
VWidth: 2424
GlyphClass: 2
Flags: HW
AnchorPoint: "Anchor-4" 502 756 basechar 0
AnchorPoint: "Anchor-2" 502 0 basechar 0
AnchorPoint: "Anchor-0" 471 1511 basechar 0
LayerCount: 2
Fore
SplineSet
279 897 m 1,0,-1
 616 897 l 1,1,-1
 616 1171 l 1,2,-1
 279 1171 l 1,3,-1
 279 897 l 1,0,-1
5 1171 m 1,4,-1
 5 1379 l 1,5,-1
 64 1379 l 1,6,-1
 64 1511 l 1,7,-1
 295 1511 l 1,8,-1
 295 1488 l 1,9,10
 285 1474 285 1474 282 1457.5 c 128,-1,11
 279 1441 279 1441 279 1399 c 2,12,-1
 279 1379 l 1,13,-1
 616 1379 l 1,14,-1
 616 1511 l 1,15,-1
 846 1511 l 1,16,-1
 846 1488 l 1,17,18
 836 1474 836 1474 833.5 1457.5 c 128,-1,19
 831 1441 831 1441 831 1399 c 2,20,-1
 831 1379 l 1,21,-1
 895 1379 l 1,22,-1
 895 1171 l 1,23,-1
 831 1171 l 1,24,-1
 831 0 l 1,25,-1
 616 0 l 1,26,-1
 616 684 l 1,27,-1
 279 684 l 1,28,-1
 279 0 l 1,29,-1
 64 0 l 1,30,-1
 64 1171 l 1,31,-1
 5 1171 l 1,4,-1
EndSplineSet
EndChar

StartChar: I
Encoding: 73 73 79
Width: 922
VWidth: 2424
GlyphClass: 2
Flags: HW
AnchorPoint: "Anchor-3" 773 0 basechar 0
AnchorPoint: "Anchor-2" 546 0 basechar 0
AnchorPoint: "Anchor-0" 534 1511 basechar 0
LayerCount: 2
Fore
SplineSet
150 0 m 1,0,-1
 150 215 l 1,1,-1
 414 215 l 1,2,-1
 414 1295 l 1,3,-1
 165 1295 l 1,4,-1
 165 1511 l 1,5,-1
 919 1511 l 1,6,-1
 919 1295 l 1,7,-1
 657 1295 l 1,8,-1
 657 213 l 1,9,-1
 928 213 l 1,10,-1
 928 0 l 1,11,-1
 150 0 l 1,0,-1
EndSplineSet
EndChar

StartChar: J
Encoding: 74 74 94
Width: 922
VWidth: 2424
GlyphClass: 2
Flags: HW
AnchorPoint: "Anchor-2" 447 0 basechar 0
AnchorPoint: "Anchor-0" 649 1511 basechar 0
LayerCount: 2
Fore
SplineSet
392 -34 m 0,0,1
 297 -34 297 -34 210 5 c 128,-1,2
 123 44 123 44 63 125 c 1,3,-1
 175 337 l 1,4,-1
 186 356 l 1,5,-1
 202 347 l 1,6,7
 209 328 209 328 215 307 c 128,-1,8
 221 286 221 286 245 257 c 1,9,10
 304 206 304 206 375 206 c 0,11,12
 453 206 453 206 492 283.5 c 128,-1,13
 531 361 531 361 531 532 c 2,14,-1
 531 1295 l 1,15,-1
 297 1295 l 1,16,-1
 297 1511 l 1,17,-1
 953 1511 l 1,18,-1
 953 1295 l 1,19,-1
 769 1295 l 1,20,-1
 769 514 l 2,21,22
 769.072727273 507.018181818 769.072727273 507.018181818 769.072727273 500.130247934 c 0,23,24
 769.072727273 317.6 769.072727273 317.6 718 201 c 0,25,26
 665 80 665 80 578.5 23 c 128,-1,27
 492 -34 492 -34 392 -34 c 0,0,1
EndSplineSet
EndChar

StartChar: K
Encoding: 75 75 96
Width: 922
VWidth: 2424
GlyphClass: 1
Flags: HW
LayerCount: 2
Fore
SplineSet
372 674 m 1,0,-1
 297 555 l 1,1,-1
 299 0 l 1,2,-1
 72 0 l 1,3,-1
 72 1511 l 1,4,-1
 316 1511 l 1,5,-1
 316 1488 l 1,6,7
 303 1474 303 1474 301 1457.5 c 128,-1,8
 299 1441 299 1441 299 1399 c 2,9,-1
 299 900 l 1,10,-1
 690 1522 l 1,11,12
 721 1517 721 1517 769 1514 c 128,-1,13
 817 1511 817 1511 843 1511 c 2,14,-1
 939 1511 l 1,15,-1
 532 868 l 1,16,-1
 962 0 l 1,17,-1
 706 -9 l 1,18,-1
 372 674 l 1,0,-1
EndSplineSet
EndChar

StartChar: uni0198
Encoding: 408 408 98
Width: 922
VWidth: 2424
GlyphClass: 1
Flags: HW
LayerCount: 2
Fore
SplineSet
81 1511 m 1,0,-1
 337 1511 l 1,1,-1
 337 1488 l 1,2,3
 326 1474 326 1474 322.5 1457.5 c 128,-1,4
 319 1441 319 1441 319 1399 c 2,5,-1
 319 941 l 1,6,7
 433 1156 433 1156 522 1283.5 c 128,-1,8
 611 1411 611 1411 689.5 1466.5 c 128,-1,9
 768 1522 768 1522 856 1522 c 0,10,11
 888 1522 888 1522 917 1516.5 c 128,-1,12
 946 1511 946 1511 962 1496 c 1,13,-1
 965 1247 l 1,14,-1
 965 1224 l 1,15,-1
 944 1224 l 1,16,17
 933 1238 933 1238 920.5 1251.5 c 128,-1,18
 908 1265 908 1265 877 1275 c 0,19,20
 870 1277 870 1277 852 1277 c 0,21,22
 809 1277 809 1277 761.5 1242 c 128,-1,23
 714 1207 714 1207 653 1125 c 128,-1,24
 592 1043 592 1043 508 897 c 1,25,-1
 971 2 l 1,26,-1
 712 -12 l 1,27,-1
 373 657 l 1,28,29
 346 608 346 608 319 553 c 1,30,-1
 319 0 l 1,31,-1
 81 0 l 1,32,-1
 81 1511 l 1,0,-1
EndSplineSet
EndChar

StartChar: L
Encoding: 76 76 99
Width: 922
VWidth: 2424
GlyphClass: 2
Flags: HW
AnchorPoint: "Anchor-4" 259 756 basechar 0
AnchorPoint: "Anchor-2" 546 0 basechar 0
AnchorPoint: "Anchor-1" 432 1120 basechar 0
AnchorPoint: "Anchor-0" 495 1511 basechar 0
LayerCount: 2
Fore
SplineSet
123 1511 m 1,0,-1
 400 1511 l 1,1,-1
 400 1488 l 1,2,3
 386 1474 386 1474 383.5 1457.5 c 128,-1,4
 381 1441 381 1441 381 1399 c 2,5,-1
 381 218 l 1,6,-1
 997 218 l 1,7,-1
 997 0 l 1,8,-1
 123 0 l 1,9,-1
 123 1511 l 1,0,-1
EndSplineSet
EndChar

StartChar: uni01C7
Encoding: 455 455 100
Width: 922
VWidth: 2338
GlyphClass: 1
Flags: HW
LayerCount: 2
Fore
SplineSet
94 141 m 1,0,-1
 94 1511 l 1,1,-1
 343 1511 l 1,2,3
 343 1496 343 1496 338.5 1492 c 128,-1,4
 334 1488 334 1488 329.5 1478.5 c 128,-1,5
 325 1469 325 1469 325 1433 c 2,6,-1
 325 334 l 1,7,-1
 563 334 l 1,8,-1
 563 141 l 1,9,-1
 94 141 l 1,0,-1
563 -246 m 0,10,11
 393 -246 393 -246 286 -110 c 1,12,-1
 422 59 l 1,13,14
 443 40 443 40 439.5 29.5 c 128,-1,15
 436 19 436 19 453 -2 c 0,16,17
 466 -19 466 -19 492.5 -37 c 128,-1,18
 519 -55 519 -55 560 -55 c 0,19,20
 625 -55 625 -55 656.5 18.5 c 128,-1,21
 688 92 688 92 688 262 c 2,22,-1
 688 1319 l 1,23,-1
 497 1319 l 1,24,-1
 497 1511 l 1,25,-1
 917 1511 l 1,26,-1
 917 239 l 2,27,28
 917 65 917 65 869.5 -41 c 128,-1,29
 822 -147 822 -147 742 -196.5 c 128,-1,30
 662 -246 662 -246 563 -246 c 0,10,11
EndSplineSet
EndChar

StartChar: Lcaron
Encoding: 317 317 102
Width: 922
VWidth: 2424
GlyphClass: 2
Flags: HW
AnchorPoint: "Anchor-4" 259 756 basechar 0
AnchorPoint: "Anchor-2" 546 0 basechar 0
AnchorPoint: "Anchor-1" 432 1120 basechar 0
AnchorPoint: "Anchor-0" 495 1511 basechar 0
LayerCount: 2
Fore
SplineSet
123 1511 m 1,0,-1
 400 1511 l 1,1,-1
 400 1488 l 1,2,3
 386 1474 386 1474 383.5 1457.5 c 128,-1,4
 381 1441 381 1441 381 1399 c 2,5,-1
 381 218 l 1,6,-1
 997 218 l 1,7,-1
 997 0 l 1,8,-1
 123 0 l 1,9,-1
 123 1511 l 1,0,-1
752 970 m 1,10,-1
 638 1060 l 1,11,12
 689 1111 689 1111 715.5 1161.5 c 128,-1,13
 742 1212 742 1212 742 1247 c 0,14,15
 742 1277 742 1277 721.5 1300.5 c 128,-1,16
 701 1324 701 1324 681.5 1351.5 c 128,-1,17
 662 1379 662 1379 662 1423 c 0,18,19
 662 1483 662 1483 703.5 1517.5 c 128,-1,20
 745 1552 745 1552 800 1552 c 0,21,22
 865 1552 865 1552 908 1502.5 c 128,-1,23
 951 1453 951 1453 951 1370 c 0,24,25
 951 1185 951 1185 752 970 c 1,10,-1
EndSplineSet
EndChar

StartChar: uni01C8
Encoding: 456 456 106
Width: 922
VWidth: 2352
GlyphClass: 1
Flags: HW
LayerCount: 2
Fore
SplineSet
521 -246 m 0,0,1
 450 -246 450 -246 386.5 -218.5 c 128,-1,2
 323 -191 323 -191 276 -138 c 1,3,-1
 411 56 l 1,4,5
 423.909090909 43.0909090909 423.909090909 43.0909090909 423.909090909 20.2520661157 c 0,0,0
 423.909090909 1.68181818182 423.909090909 1.68181818182 464 -26 c 0,7,8
 477 -32 477 -32 491.5 -36.5 c 128,-1,9
 506 -41 506 -41 525 -41 c 0,10,11
 586 -41 586 -41 630 11 c 128,-1,12
 674 63 674 63 674 187 c 2,13,-1
 674 980 l 1,14,-1
 470 980 l 1,15,-1
 470 1176 l 1,16,-1
 900 1176 l 1,17,-1
 900 195 l 2,18,19
 900 39 900 39 849.5 -58.5 c 128,-1,20
 799 -156 799 -156 714 -201 c 128,-1,21
 629 -246 629 -246 521 -246 c 0,0,1
120 145 m 1,22,-1
 120 1521 l 1,23,-1
 365 1521 l 1,24,25
 365 1499 365 1499 358.5 1486 c 128,-1,26
 352 1473 352 1473 352 1444 c 2,27,-1
 352 345 l 1,28,-1
 555 345 l 1,29,-1
 555 145 l 1,30,-1
 120 145 l 1,22,-1
778 1346 m 128,-1,32
 719 1346 719 1346 675.5 1388.5 c 128,-1,33
 632 1431 632 1431 632 1488 c 0,34,35
 632 1549 632 1549 674 1590 c 128,-1,36
 716 1631 716 1631 778 1631 c 0,37,38
 837 1631 837 1631 881.5 1589 c 128,-1,39
 926 1547 926 1547 926 1488 c 0,40,41
 926 1431 926 1431 881.5 1388.5 c 128,-1,31
 837 1346 837 1346 778 1346 c 128,-1,32
EndSplineSet
EndChar

StartChar: Lslash
Encoding: 321 321 108
Width: 922
VWidth: 2424
GlyphClass: 1
Flags: HW
LayerCount: 2
Fore
SplineSet
129 0 m 1,0,-1
 129 536 l 1,1,-1
 21 495 l 1,2,-1
 21 722 l 1,3,-1
 129 766 l 1,4,-1
 129 1511 l 1,5,-1
 376 1511 l 1,6,7
 380 1506 380 1506 380 1501 c 0,8,9
 380 1492 380 1492 372.5 1480.5 c 128,-1,10
 365 1469 365 1469 361 1425 c 1,11,-1
 361 861 l 1,12,-1
 630 970 l 2,13,14
 651 977 651 977 667.5 985.5 c 128,-1,15
 684 994 684 994 699 1009 c 1,16,-1
 699 756 l 1,17,-1
 363 623 l 1,18,-1
 363 218 l 1,19,-1
 911 218 l 1,20,-1
 911 0 l 1,21,-1
 129 0 l 1,0,-1
EndSplineSet
EndChar

StartChar: M
Encoding: 77 77 109
Width: 922
VWidth: 2424
GlyphClass: 2
Flags: HW
AnchorPoint: "Anchor-2" 506 0 basechar 0
AnchorPoint: "Anchor-0" 506 1511 basechar 0
LayerCount: 2
Fore
SplineSet
65 0 m 1,0,-1
 65 1511 l 1,1,-1
 268 1511 l 1,2,-1
 510 846 l 1,3,-1
 753 1513 l 1,4,-1
 955 1513 l 1,5,-1
 955 0 l 1,6,-1
 753 0 l 1,7,-1
 753 1050 l 1,8,-1
 555 511 l 1,9,-1
 450 511 l 1,10,-1
 266 1045 l 1,11,-1
 266 0 l 1,12,-1
 65 0 l 1,0,-1
EndSplineSet
EndChar

StartChar: N
Encoding: 78 78 111
Width: 922
VWidth: 2424
GlyphClass: 2
Flags: HW
AnchorPoint: "Anchor-2" 513 0 basechar 0
AnchorPoint: "Anchor-0" 513 1511 basechar 0
LayerCount: 2
Fore
SplineSet
76 1511 m 1,0,-1
 319 1511 l 1,1,-1
 745 536 l 1,2,-1
 733 1511 l 1,3,-1
 966 1511 l 1,4,-1
 966 1488 l 1,5,6
 953 1474 953 1474 950.5 1457.5 c 128,-1,7
 948 1441 948 1441 948 1399 c 2,8,-1
 948 0 l 1,9,-1
 731 0 l 1,10,-1
 289 1038 l 1,11,-1
 289 0 l 1,12,-1
 76 0 l 1,13,-1
 76 1511 l 1,0,-1
EndSplineSet
EndChar

StartChar: Eng
Encoding: 330 330 117
Width: 922
VWidth: 2317
GlyphClass: 2
Flags: HW
AnchorPoint: "Anchor-2" 483 174 basechar 0
AnchorPoint: "Anchor-0" 493 1511 basechar 0
LayerCount: 2
Fore
SplineSet
706 1511 m 1,0,-1
 911 1511 l 1,1,2
 911 1485 911 1485 905 1469 c 128,-1,3
 899 1453 899 1453 899 1425 c 2,4,-1
 899 174 l 2,5,6
 899 -32 899 -32 809 -139 c 128,-1,7
 719 -246 719 -246 590 -246 c 0,8,9
 479 -246 479 -246 369 -165 c 1,10,-1
 467 24 l 1,11,12
 488 22 488 22 497 7 c 128,-1,13
 506 -8 506 -8 522 -23.5 c 128,-1,14
 538 -39 538 -39 577 -39 c 0,15,16
 697 -39 697 -39 698 184 c 1,17,-1
 270 1093 l 1,18,-1
 270 174 l 1,19,-1
 69 174 l 1,20,-1
 69 1511 l 1,21,-1
 292 1511 l 1,22,-1
 706 649 l 1,23,-1
 706 1511 l 1,0,-1
EndSplineSet
EndChar

StartChar: O
Encoding: 79 79 120
Width: 922
VWidth: 2424
GlyphClass: 2
Flags: HW
AnchorPoint: "Anchor-4" 479 756 basechar 0
AnchorPoint: "Anchor-3" 539 32 basechar 0
AnchorPoint: "Anchor-2" 481 0 basechar 0
AnchorPoint: "Anchor-1" 773 1406 basechar 0
AnchorPoint: "Anchor-0" 481 1515 basechar 0
LayerCount: 2
Fore
SplineSet
481 187 m 128,-1,1
 587 187 587 187 646 321.5 c 128,-1,2
 705 456 705 456 705 754 c 0,3,4
 705 1036 705 1036 646 1175 c 128,-1,5
 587 1314 587 1314 481 1314 c 128,-1,6
 375 1314 375 1314 316.5 1174.5 c 128,-1,7
 258 1035 258 1035 258 754 c 0,8,9
 258 456 258 456 316.5 321.5 c 128,-1,0
 375 187 375 187 481 187 c 128,-1,1
481 -27 m 0,10,11
 36 -27 36 -27 36 752 c 0,12,13
 36 1136 36 1136 149 1332.5 c 128,-1,14
 262 1529 262 1529 481 1529 c 128,-1,15
 700 1529 700 1529 813 1331.5 c 128,-1,16
 926 1134 926 1134 926 752 c 0,17,18
 926 361 926 361 813 166 c 0,19,20
 701.147208122 -27.0203045685 701.147208122 -27.0203045685 485.435775207 -27.0203045685 c 0,21,22
 483.223350254 -27.0203045685 483.223350254 -27.0203045685 481 -27 c 0,10,11
EndSplineSet
Substitution2: "Single Substitution lookup 29 subtable" ordmasculine
Substitution2: "'aalt' Access All Alternates in Latin lookup 0 subtable" ordmasculine
EndChar

StartChar: Oslash
Encoding: 216 216 148
Width: 922
VWidth: 2424
GlyphClass: 2
Flags: HW
AnchorPoint: "Anchor-4" 479 756 basechar 0
AnchorPoint: "Anchor-3" 539 32 basechar 0
AnchorPoint: "Anchor-2" 481 0 basechar 0
AnchorPoint: "Anchor-1" 773 1406 basechar 0
AnchorPoint: "Anchor-0" 481 1515 basechar 0
LayerCount: 2
Fore
SplineSet
481 187 m 0,0,1
 587 187 587 187 646 321.5 c 128,-1,2
 705 456 705 456 705 754 c 0,3,4
 705 951 705 951 675 1078 c 1,5,-1
 341 271 l 1,6,7
 394 187 394 187 481 187 c 0,0,1
258 754 m 0,8,9
 258 580 258 580 279 458 c 1,10,-1
 607 1247 l 1,11,12
 556 1314 556 1314 481 1314 c 0,13,14
 375 1314 375 1314 316.5 1175 c 128,-1,15
 258 1036 258 1036 258 754 c 0,8,9
175 -129 m 1,16,-1
 61 -65 l 1,17,-1
 156 157 l 1,18,19
 36 354 36 354 36 752 c 0,20,21
 36 1136 36 1136 149 1332.5 c 128,-1,22
 262 1529 262 1529 481 1529 c 0,23,24
 607 1529 607 1529 697 1464 c 1,25,-1
 775 1654 l 1,26,-1
 886 1587 l 1,27,-1
 794 1365 l 1,28,29
 926 1168 926 1168 926 752 c 0,30,31
 926 361 926 361 813.5 165.5 c 0,32,33
 702.700251889 -27.0453400504 702.700251889 -27.0453400504 487.62531962 -27.0453400504 c 0,34,35
 484.324937028 -27.0453400504 484.324937028 -27.0453400504 481 -27 c 0,36,37
 345 -27 345 -27 250 49 c 1,38,-1
 175 -129 l 1,16,-1
EndSplineSet
EndChar

StartChar: OE
Encoding: 338 338 154
Width: 922
VWidth: 2424
GlyphClass: 1
Flags: HW
LayerCount: 2
Fore
SplineSet
341 206 m 0,0,1
 376 206 376 206 396 242.5 c 128,-1,2
 416 279 416 279 422 344 c 1,3,-1
 422 1159 l 1,4,5
 412 1229 412 1229 389.5 1272.5 c 128,-1,6
 367 1316 367 1316 327 1316 c 0,7,8
 292 1316 292 1316 264 1267.5 c 128,-1,9
 236 1219 236 1219 220.5 1098 c 128,-1,10
 205 977 205 977 205 759 c 0,11,12
 205 488 205 488 236.5 347 c 128,-1,13
 268 206 268 206 341 206 c 0,0,1
315 -17 m 0,14,15
 176 -17 176 -17 89.5 163.5 c 128,-1,16
 3 344 3 344 3 756 c 0,17,18
 3 1154 3 1154 86 1343 c 128,-1,19
 169 1532 169 1532 321 1532 c 0,20,21
 348 1532 348 1532 378 1516.5 c 128,-1,22
 408 1501 408 1501 432 1471 c 1,23,-1
 432 1513 l 1,24,-1
 893 1513 l 1,25,-1
 893 1300 l 1,26,-1
 618 1300 l 1,27,-1
 618 895 l 1,28,-1
 851 895 l 1,29,-1
 851 678 l 1,30,-1
 618 678 l 1,31,-1
 618 213 l 1,32,-1
 889 213 l 1,33,-1
 889 0 l 1,34,-1
 430 0 l 1,35,-1
 430 41 l 1,36,37
 380 -17 380 -17 315 -17 c 0,14,15
EndSplineSet
EndChar

StartChar: P
Encoding: 80 80 155
Width: 922
VWidth: 2424
GlyphClass: 2
Flags: HW
AnchorPoint: "Anchor-2" 377 0 basechar 0
AnchorPoint: "Anchor-0" 526 1511 basechar 0
LayerCount: 2
Fore
SplineSet
348 854 m 1,0,-1
 537 854 l 2,1,2
 635 854 635 854 688 913 c 128,-1,3
 741 972 741 972 741 1067 c 0,4,5
 741 1166 741 1166 688.5 1224 c 128,-1,6
 636 1282 636 1282 540 1282 c 2,7,-1
 348 1282 l 1,8,-1
 348 854 l 1,0,-1
100 0 m 1,9,-1
 100 1511 l 1,10,-1
 544 1511 l 2,11,12
 771 1511 771 1511 880.5 1384.5 c 128,-1,13
 990 1258 990 1258 990 1069 c 0,14,15
 990 882 990 882 882 757.5 c 128,-1,16
 774 633 774 633 553 633 c 2,17,-1
 348 633 l 1,18,-1
 348 0 l 1,19,-1
 100 0 l 1,9,-1
EndSplineSet
EndChar

StartChar: Thorn
Encoding: 222 222 156
Width: 922
VWidth: 2424
GlyphClass: 1
Flags: HW
LayerCount: 2
Fore
SplineSet
350 572 m 1,0,-1
 542 572 l 2,1,2
 649 572 649 572 698 635 c 128,-1,3
 747 698 747 698 747 793 c 0,4,5
 747 883 747 883 697 954 c 128,-1,6
 647 1025 647 1025 540 1025 c 2,7,-1
 353 1025 l 1,8,-1
 350 572 l 1,0,-1
103 0 m 1,9,-1
 103 1511 l 1,10,-1
 367 1511 l 1,11,12
 372 1506 372 1506 372 1501 c 0,13,14
 372 1492 372 1492 363.5 1479.5 c 128,-1,15
 355 1467 355 1467 353 1432 c 2,16,-1
 353 1244 l 1,17,-1
 549 1244 l 2,18,19
 703 1244 703 1244 801 1184.5 c 128,-1,20
 899 1125 899 1125 946 1024 c 128,-1,21
 993 923 993 923 993 798 c 0,22,23
 993 609 993 609 888 484 c 128,-1,24
 783 359 783 359 556 359 c 2,25,-1
 350 359 l 1,26,-1
 350 0 l 1,27,-1
 103 0 l 1,9,-1
EndSplineSet
EndChar

StartChar: Q
Encoding: 81 81 157
Width: 922
VWidth: 2372
GlyphClass: 2
Flags: HW
AnchorPoint: "Anchor-2" 482 86 basechar 0
AnchorPoint: "Anchor-0" 482 1512 basechar 0
LayerCount: 2
Fore
SplineSet
488 267 m 0,0,1
 578 267 578 267 644 386 c 128,-1,2
 710 505 710 505 710 780 c 0,3,4
 710 986 710 986 678 1107 c 128,-1,5
 646 1228 646 1228 594.5 1278.5 c 128,-1,6
 543 1329 543 1329 486 1329 c 0,7,8
 379 1329 379 1329 319 1197.5 c 128,-1,9
 259 1066 259 1066 259 820 c 0,10,11
 259 541 259 541 321.5 404 c 128,-1,12
 384 267 384 267 488 267 c 0,0,1
733 -246 m 1,13,14
 722.848275862 -246.220689655 722.848275862 -246.220689655 713.014649227 -246.220689655 c 0,15,16
 544.613793103 -246.220689655 544.613793103 -246.220689655 469.5 -181.5 c 0,17,18
 390 -113 390 -113 385 73 c 1,19,20
 228 114 228 114 133.5 294.5 c 128,-1,21
 39 475 39 475 39 796 c 0,22,23
 39 1071 39 1071 101 1231.5 c 128,-1,24
 163 1392 163 1392 264.5 1462 c 128,-1,25
 366 1532 366 1532 484 1532 c 0,26,27
 610 1532 610 1532 711.5 1458.5 c 128,-1,28
 813 1385 813 1385 871 1224 c 128,-1,29
 929 1063 929 1063 929 798 c 0,30,31
 929 455 929 455 838 285.5 c 128,-1,32
 747 116 747 116 594 75 c 1,33,34
 596 16 596 16 619.5 -17.5 c 0,35,36
 641.676056338 -49.1126760563 641.676056338 -49.1126760563 695.464788732 -49.1126760563 c 0,37,38
 698.676056338 -49.1126760563 698.676056338 -49.1126760563 702 -49 c 2,39,-1
 856 -40 l 1,40,-1
 849 -246 l 1,41,-1
 733 -246 l 1,13,14
EndSplineSet
EndChar

StartChar: R
Encoding: 82 82 158
Width: 922
VWidth: 2424
GlyphClass: 2
Flags: HW
AnchorPoint: "Anchor-2" 515 0 basechar 0
AnchorPoint: "Anchor-0" 515 1511 basechar 0
LayerCount: 2
Fore
SplineSet
336 849 m 1,0,-1
 513 849 l 2,1,2
 705 849 705 849 705 1064 c 0,3,4
 705 1161 705 1161 655.5 1221.5 c 128,-1,5
 606 1282 606 1282 513 1282 c 2,6,-1
 336 1282 l 1,7,-1
 336 849 l 1,0,-1
94 0 m 1,8,-1
 94 1511 l 1,9,-1
 496 1511 l 2,10,11
 729 1511 729 1511 839 1392 c 128,-1,12
 949 1273 949 1273 949 1069 c 0,13,14
 949 930 949 930 884 816.5 c 128,-1,15
 819 703 819 703 709 657 c 1,16,-1
 984 0 l 1,17,-1
 736 0 l 1,18,-1
 478 630 l 1,19,-1
 336 630 l 1,20,-1
 336 0 l 1,21,-1
 94 0 l 1,8,-1
EndSplineSet
EndChar

StartChar: S
Encoding: 83 83 166
Width: 922
VWidth: 2424
GlyphClass: 2
Flags: HW
AnchorPoint: "Anchor-2" 523 0 basechar 0
AnchorPoint: "Anchor-0" 530 1511 basechar 0
LayerCount: 2
Fore
SplineSet
502 -27 m 0,0,1
 370 -27 370 -27 258.5 15.5 c 128,-1,2
 147 58 147 58 71 146 c 1,3,-1
 185 371 l 1,4,-1
 194 391 l 1,5,-1
 214 381 l 1,6,7
 221 362 221 362 227 341 c 128,-1,8
 233 320 233 320 258 291 c 1,9,10
 309 247 309 247 371 220.5 c 128,-1,11
 433 194 433 194 505 194 c 0,12,13
 602 194 602 194 661.5 246 c 128,-1,14
 721 298 721 298 721 398 c 0,15,16
 721 449 721 449 703.5 492.5 c 128,-1,17
 686 536 686 536 633.5 580.5 c 128,-1,18
 581 625 581 625 475 681 c 0,19,20
 277 780 277 780 200 887 c 128,-1,21
 123 994 123 994 123 1147 c 0,22,23
 123 1261 123 1261 175.5 1348 c 128,-1,24
 228 1435 228 1435 321.5 1484.5 c 128,-1,25
 415 1534 415 1534 532 1534 c 0,26,27
 776 1534 776 1534 926 1351 c 1,28,-1
 795 1164 l 1,29,-1
 783 1145 l 1,30,-1
 765 1159 l 1,31,32
 761 1176 761 1176 757.5 1197.5 c 128,-1,33
 754 1219 754 1219 728 1249 c 0,34,35
 689 1290 689 1290 644 1303 c 128,-1,36
 599 1316 599 1316 539 1316 c 0,37,38
 456 1316 456 1316 407.5 1271 c 128,-1,39
 359 1226 359 1226 359 1157 c 0,40,41
 359 1106 359 1106 377.5 1064.5 c 128,-1,42
 396 1023 396 1023 453 979.5 c 128,-1,43
 510 936 510 936 624 875 c 0,44,45
 753 808 753 808 826 742 c 128,-1,46
 899 676 899 676 930 597.5 c 128,-1,47
 961 519 961 519 961 417 c 0,48,49
 961 301 961 301 911.5 199 c 128,-1,50
 862 97 862 97 759 35 c 128,-1,51
 656 -27 656 -27 502 -27 c 0,0,1
EndSplineSet
EndChar

StartChar: uni1E9E
Encoding: 7838 7838 177
Width: 922
VWidth: 2424
GlyphClass: 1
Flags: HW
LayerCount: 2
Fore
SplineSet
611 -30 m 0,0,1
 544 -30 544 -30 489.5 -11.5 c 128,-1,2
 435 7 435 7 393 41 c 1,3,-1
 465 240 l 1,4,5
 513.02 191.98 513.02 191.98 575.446 191.98 c 0,0,0
 576.72 191.98 576.72 191.98 578 192 c 0,6,7
 645 192 645 192 692.5 263.5 c 128,-1,8
 740 335 740 335 740 453 c 0,9,10
 740 528 740 528 718 592.5 c 128,-1,11
 696 657 696 657 643 696 c 128,-1,12
 590 735 590 735 497 735 c 2,13,-1
 437 735 l 1,14,-1
 437 946 l 1,15,-1
 664 1205 l 1,16,17
 662 1297 662 1297 624.5 1356.5 c 128,-1,18
 587 1416 587 1416 509 1416 c 0,19,20
 438 1416 438 1416 382 1345.5 c 128,-1,21
 326 1275 326 1275 326 1127 c 2,22,-1
 326 0 l 1,23,-1
 86 0 l 1,24,-1
 86 1091 l 2,25,26
 86 1285 86 1285 143.5 1403.5 c 128,-1,27
 201 1522 201 1522 296 1575.5 c 128,-1,28
 391 1629 391 1629 504 1629 c 0,29,30
 691 1629 691 1629 789.5 1499.5 c 128,-1,31
 888 1370 888 1370 888 1173 c 1,32,-1
 662 923 l 1,33,34
 819 879 819 879 897.5 749.5 c 128,-1,35
 976 620 976 620 976 439 c 0,36,37
 976 221 976 221 876.5 95.5 c 128,-1,38
 777 -30 777 -30 611 -30 c 0,0,1
EndSplineSet
EndChar

StartChar: T
Encoding: 84 84 179
Width: 922
VWidth: 2424
GlyphClass: 2
Flags: HW
AnchorPoint: "Anchor-4" 481 756 basechar 0
AnchorPoint: "Anchor-2" 492 0 basechar 0
AnchorPoint: "Anchor-0" 492 1511 basechar 0
LayerCount: 2
Fore
SplineSet
371 0 m 1,0,-1
 371 1287 l 1,1,-1
 46 1287 l 1,2,-1
 46 1513 l 1,3,-1
 936 1513 l 1,4,-1
 936 1287 l 1,5,-1
 592 1287 l 1,6,-1
 592 0 l 1,7,-1
 371 0 l 1,0,-1
EndSplineSet
EndChar

StartChar: Tbar
Encoding: 358 358 180
Width: 922
VWidth: 2424
GlyphClass: 2
Flags: HW
AnchorPoint: "Anchor-4" 481 756 basechar 0
AnchorPoint: "Anchor-2" 492 0 basechar 0
AnchorPoint: "Anchor-0" 492 1511 basechar 0
LayerCount: 2
Fore
SplineSet
371 0 m 1,0,-1
 371 674 l 1,1,-1
 140 674 l 1,2,-1
 140 851 l 1,3,-1
 371 851 l 1,4,-1
 371 1287 l 1,5,-1
 46 1287 l 1,6,-1
 46 1513 l 1,7,-1
 936 1513 l 1,8,-1
 936 1287 l 1,9,-1
 592 1287 l 1,10,-1
 592 851 l 1,11,-1
 820 851 l 1,12,-1
 820 674 l 1,13,-1
 592 674 l 1,14,-1
 592 0 l 1,15,-1
 371 0 l 1,0,-1
EndSplineSet
EndChar

StartChar: U
Encoding: 85 85 186
Width: 922
VWidth: 2424
GlyphClass: 2
Flags: HW
AnchorPoint: "Anchor-3" 592 24 basechar 0
AnchorPoint: "Anchor-2" 521 0 basechar 0
AnchorPoint: "Anchor-1" 956 1511 basechar 0
AnchorPoint: "Anchor-0" 521 1511 basechar 0
LayerCount: 2
Fore
SplineSet
521 -30 m 0,0,1
 517.996587031 -30.0273037543 517.996587031 -30.0273037543 515.013302426 -30.0273037543 c 0,2,3
 299.470989761 -30.0273037543 299.470989761 -30.0273037543 189 112.5 c 0,4,5
 77 257 77 257 77 516 c 2,6,-1
 77 1511 l 1,7,-1
 338 1511 l 1,8,-1
 338 1488 l 1,9,10
 327 1474 327 1474 323.5 1457.5 c 128,-1,11
 320 1441 320 1441 320 1399 c 2,12,-1
 320 514 l 2,13,14
 320 359 320 359 363.5 272 c 128,-1,15
 407 185 407 185 523 185 c 0,16,17
 640 185 640 185 684 274 c 128,-1,18
 728 363 728 363 728 521 c 2,19,-1
 728 1511 l 1,20,-1
 967 1511 l 1,21,-1
 967 523 l 2,22,23
 967 234 967 234 845.5 102 c 128,-1,24
 724 -30 724 -30 521 -30 c 0,0,1
EndSplineSet
EndChar

StartChar: V
Encoding: 86 86 209
Width: 922
VWidth: 2424
GlyphClass: 2
Flags: HW
AnchorPoint: "Anchor-2" 472 0 basechar 0
AnchorPoint: "Anchor-0" 472 1511 basechar 0
LayerCount: 2
Fore
SplineSet
404 -5 m 1,0,-1
 32 1513 l 1,1,-1
 250 1513 l 1,2,-1
 488 463 l 1,3,-1
 712 1511 l 1,4,-1
 922 1511 l 1,5,-1
 555 -5 l 1,6,-1
 404 -5 l 1,0,-1
EndSplineSet
EndChar

StartChar: W
Encoding: 87 87 210
Width: 922
VWidth: 2424
GlyphClass: 2
Flags: HW
AnchorPoint: "Anchor-2" 458 0 basechar 0
AnchorPoint: "Anchor-0" 467 1511 basechar 0
LayerCount: 2
Fore
SplineSet
165 0 m 1,0,-1
 13 1511 l 1,1,-1
 196 1511 l 1,2,-1
 274 585 l 1,3,-1
 417 1374 l 1,4,-1
 527 1374 l 1,5,-1
 672 587 l 1,6,-1
 729 1511 l 1,7,-1
 903 1511 l 1,8,-1
 754 0 l 1,9,-1
 623 0 l 1,10,-1
 463 900 l 1,11,-1
 300 0 l 1,12,-1
 165 0 l 1,0,-1
EndSplineSet
EndChar

StartChar: X
Encoding: 88 88 215
Width: 922
VWidth: 2424
GlyphClass: 2
Flags: HW
AnchorPoint: "Anchor-2" 492 0 basechar 0
AnchorPoint: "Anchor-0" 492 1511 basechar 0
LayerCount: 2
Fore
SplineSet
59 0 m 1,0,-1
 374 771 l 1,1,-1
 63 1513 l 1,2,-1
 292 1513 l 1,3,-1
 496 1016 l 1,4,-1
 693 1513 l 1,5,-1
 911 1513 l 1,6,-1
 621 773 l 1,7,-1
 949 0 l 1,8,-1
 713 0 l 1,9,-1
 496 521 l 1,10,-1
 288 0 l 1,11,-1
 59 0 l 1,0,-1
EndSplineSet
EndChar

StartChar: Y
Encoding: 89 89 216
Width: 922
VWidth: 2424
GlyphClass: 2
Flags: HW
AnchorPoint: "Anchor-2" 493 0 basechar 0
AnchorPoint: "Anchor-0" 475 1511 basechar 0
LayerCount: 2
Fore
SplineSet
382 0 m 1,0,-1
 382 587 l 1,1,-1
 34 1511 l 1,2,-1
 260 1511 l 1,3,-1
 495 877 l 1,4,-1
 707 1511 l 1,5,-1
 924 1511 l 1,6,-1
 602 585 l 1,7,-1
 602 0 l 1,8,-1
 382 0 l 1,0,-1
EndSplineSet
EndChar

StartChar: Z
Encoding: 90 90 226
Width: 922
VWidth: 2424
GlyphClass: 2
Flags: HW
AnchorPoint: "Anchor-2" 545 0 basechar 0
AnchorPoint: "Anchor-0" 528 1511 basechar 0
LayerCount: 2
Fore
SplineSet
79 162 m 1,0,-1
 660 1287 l 1,1,-1
 101 1287 l 1,2,-1
 101 1511 l 1,3,-1
 937 1511 l 1,4,-1
 937 1348 l 1,5,-1
 368 220 l 1,6,-1
 865 220 l 2,7,8
 901 220 901 220 918 225.5 c 128,-1,9
 935 231 935 231 948 245 c 1,10,-1
 969 245 l 1,11,-1
 969 0 l 1,12,-1
 79 0 l 1,13,-1
 79 162 l 1,0,-1
EndSplineSet
EndChar

StartChar: a
Encoding: 97 97 232
Width: 922
VWidth: 2424
GlyphClass: 2
Flags: HW
AnchorPoint: "Anchor-3" 810 0 basechar 0
AnchorPoint: "Anchor-2" 529 0 basechar 0
AnchorPoint: "Anchor-0" 527 1115 basechar 0
LayerCount: 2
Fore
SplineSet
325 324 m 0,0,1
 325 246 325 246 367.5 212 c 128,-1,2
 410 178 410 178 475 178 c 0,3,4
 589 178 589 178 650.5 257.5 c 128,-1,5
 712 337 712 337 725 514 c 1,6,7
 698 514 698 514 673 514 c 128,-1,8
 648 514 648 514 627 514 c 0,9,10
 463 514 463 514 394 463 c 128,-1,11
 325 412 325 412 325 324 c 0,0,1
425 -27 m 0,12,13
 259 -27 259 -27 168 61.5 c 128,-1,14
 77 150 77 150 77 291 c 0,15,16
 77 480 77 480 219.5 593 c 128,-1,17
 362 706 362 706 629 706 c 0,18,19
 670 706 670 706 722 701 c 1,20,21
 708 849 708 849 654 898.5 c 128,-1,22
 600 948 600 948 505 948 c 0,23,24
 436 948 436 948 376 924 c 128,-1,25
 316 900 316 900 257 837 c 1,26,-1
 123 992 l 1,27,28
 207 1077 207 1077 308.5 1115.5 c 128,-1,29
 410 1154 410 1154 519 1154 c 0,30,31
 648 1154 648 1154 749 1109 c 128,-1,32
 850 1064 850 1064 908.5 953 c 128,-1,33
 967 842 967 842 967 638 c 2,34,-1
 967 0 l 1,35,-1
 712 0 l 1,36,-1
 712 118 l 1,37,38
 657 35 657 35 586.5 4 c 128,-1,39
 516 -27 516 -27 425 -27 c 0,12,13
EndSplineSet
Substitution2: "Single Substitution lookup 29 subtable" ordfeminine
Substitution2: "'aalt' Access All Alternates in Latin lookup 0 subtable" ordfeminine
EndChar

StartChar: ae
Encoding: 230 230 257
Width: 922
VWidth: 2424
GlyphClass: 1
Flags: HW
LayerCount: 2
Fore
SplineSet
256 167 m 0,0,1
 313 167 313 167 333 250 c 128,-1,2
 353 333 353 333 353 514 c 1,3,4
 250 509 250 509 208.5 452 c 128,-1,5
 167 395 167 395 167 310 c 0,6,7
 168 167 168 167 256 167 c 0,0,1
517 710 m 1,8,-1
 720 717 l 1,9,10
 720 838 720 838 693 898 c 128,-1,11
 666 958 666 958 620 958 c 0,12,13
 576 958 576 958 546.5 892 c 128,-1,14
 517 826 517 826 517 710 c 1,8,-1
245 -30 m 0,15,16
 137 -30 137 -30 63.5 59 c 128,-1,17
 -10 148 -10 148 -10 310 c 0,18,19
 -10 488 -10 488 85 589.5 c 128,-1,20
 180 691 180 691 349 701 c 1,21,22
 349 826 349 826 317 892 c 128,-1,23
 285 958 285 958 235 958 c 0,24,25
 165 958 165 958 110 854 c 1,26,-1
 18 1004 l 1,27,28
 105.401360544 1149.00680272 105.401360544 1149.00680272 253.962052848 1149.00680272 c 0,29,30
 254.979591837 1149.00680272 254.979591837 1149.00680272 256 1149 c 0,31,32
 315 1149 315 1149 370 1108 c 128,-1,33
 425 1067 425 1067 449 1013 c 1,34,35
 475 1071 475 1071 521.5 1110 c 128,-1,36
 568 1149 568 1149 620 1149 c 0,37,38
 750 1149 750 1149 809.5 1017 c 128,-1,39
 869 885 869 885 869 652 c 2,40,-1
 869 546 l 1,41,-1
 517 526 l 1,42,-1
 517 429 l 2,43,44
 517 311 517 311 555 236.5 c 128,-1,45
 593 162 593 162 660 162 c 0,46,47
 738 162 738 162 789 262 c 1,48,-1
 880 114 l 1,49,50
 787 -29 787 -29 650 -30 c 0,51,52
 589 -30 589 -30 534 8 c 128,-1,53
 479 46 479 46 443 114 c 1,54,55
 411 49 411 49 356.5 9.5 c 128,-1,56
 302 -30 302 -30 245 -30 c 0,15,16
EndSplineSet
EndChar

StartChar: b
Encoding: 98 98 259
Width: 922
VWidth: 2424
GlyphClass: 2
Flags: HW
AnchorPoint: "Anchor-2" 600 0 basechar 0
AnchorPoint: "Anchor-0" 600 1120 basechar 0
LayerCount: 2
Fore
SplineSet
536 180 m 0,0,1
 594 180 594 180 641 213.5 c 128,-1,2
 688 247 688 247 717 329.5 c 128,-1,3
 746 412 746 412 746 555 c 0,4,5
 746 756 746 756 691.5 854.5 c 128,-1,6
 637 953 637 953 540 953 c 0,7,8
 449 953 449 953 396 853.5 c 128,-1,9
 343 754 343 754 343 567 c 0,10,11
 342.979695431 563.07106599 342.979695431 563.07106599 342.979695431 559.182019635 c 0,12,13
 342.979695431 180 342.979695431 180 536 180 c 0,0,1
584 -27 m 0,14,15
 505 -27 505 -27 437 11 c 128,-1,16
 369 49 369 49 323 125 c 1,17,-1
 285 0 l 1,18,-1
 97 0 l 1,19,-1
 97 1624 l 1,20,-1
 361 1624 l 1,21,-1
 361 1603 l 1,22,23
 347 1589 347 1589 344 1570.5 c 128,-1,24
 341 1552 341 1552 341 1513 c 2,25,-1
 341 997 l 1,26,27
 383 1072 383 1072 452.5 1114.5 c 0,28,29
 517.417582418 1154.1978022 517.417582418 1154.1978022 588.006279435 1154.1978022 c 0,30,31
 592.989010989 1154.1978022 592.989010989 1154.1978022 598 1154 c 0,32,33
 775 1154 775 1154 881 1017 c 128,-1,34
 987 880 987 880 987 579 c 0,35,36
 987 364 987 364 931.5 229.5 c 128,-1,37
 876 95 876 95 783 34 c 128,-1,38
 690 -27 690 -27 584 -27 c 0,14,15
EndSplineSet
EndChar

StartChar: c
Encoding: 99 99 261
Width: 922
VWidth: 2424
GlyphClass: 2
Flags: HW
AnchorPoint: "Anchor-2" 580 0 basechar 0
AnchorPoint: "Anchor-0" 580 1125 basechar 0
LayerCount: 2
Fore
SplineSet
584 -27 m 0,0,1
 440 -27 440 -27 326.5 44.5 c 128,-1,2
 213 116 213 116 148.5 247 c 128,-1,3
 84 378 84 378 84 555 c 0,4,5
 84 735 84 735 149.5 869.5 c 128,-1,6
 215 1004 215 1004 327.5 1079 c 128,-1,7
 440 1154 440 1154 582 1154 c 0,8,9
 717 1154 717 1154 816.5 1099.5 c 128,-1,10
 916 1045 916 1045 974 948 c 1,11,-1
 847 784 l 1,12,-1
 832 766 l 1,13,-1
 816 778 l 1,14,15
 814 797 814 797 810.5 818 c 128,-1,16
 807 839 807 839 781 868 c 0,17,18
 744 907 744 907 696.5 923 c 128,-1,19
 649 939 649 939 589 939 c 0,20,21
 487 939 487 939 408.5 845.5 c 128,-1,22
 330 752 330 752 330 558 c 0,23,24
 330 378 330 378 409.5 282.5 c 128,-1,25
 489 187 489 187 596 187 c 0,26,27
 661 187 661 187 722.5 216 c 128,-1,28
 784 245 784 245 837 317 c 1,29,-1
 962 143 l 1,30,31
 887 53 887 53 787.5 13 c 128,-1,32
 688 -27 688 -27 584 -27 c 0,0,1
EndSplineSet
EndChar

StartChar: d
Encoding: 100 100 268
Width: 922
VWidth: 2424
GlyphClass: 2
Flags: HW
AnchorPoint: "Anchor-4" 749 1348 basechar 0
AnchorPoint: "Anchor-2" 519 0 basechar 0
AnchorPoint: "Anchor-1" 977 1120 basechar 0
AnchorPoint: "Anchor-0" 519 1120 basechar 0
LayerCount: 2
Fore
SplineSet
507 187 m 0,0,1
 695.005263158 187 695.005263158 187 695.005263158 561.031523546 c 0,2,3
 695.005263158 951 695.005263158 951 502 951 c 0,4,5
 405 951 405 951 354.5 855 c 128,-1,6
 304 759 304 759 304 577 c 0,7,8
 304 383 304 383 362.5 285 c 128,-1,9
 421 187 421 187 507 187 c 0,0,1
464 -27 m 0,10,11
 358 -27 358 -27 268 35 c 128,-1,12
 178 97 178 97 123.5 228 c 128,-1,13
 69 359 69 359 69 567 c 0,14,15
 69 773 69 773 121 902.5 c 128,-1,16
 173 1032 173 1032 262.5 1094.5 c 128,-1,17
 352 1157 352 1157 466 1157 c 0,18,19
 543 1157 543 1157 604.5 1124 c 128,-1,20
 666 1091 666 1091 699 1016 c 1,21,-1
 699 1624 l 1,22,-1
 956 1624 l 1,23,-1
 956 1603 l 1,24,25
 945 1589 945 1589 941.5 1570.5 c 128,-1,26
 938 1552 938 1552 938 1513 c 2,27,-1
 935 155 l 2,28,29
 935 116 935 116 939 77.5 c 128,-1,30
 943 39 943 39 959 0 c 1,31,-1
 721 0 l 1,32,33
 707 37 707 37 704 61 c 128,-1,34
 701 85 701 85 701 123 c 1,35,36
 662 48 662 48 600 10.5 c 128,-1,37
 538 -27 538 -27 464 -27 c 0,10,11
EndSplineSet
EndChar

StartChar: eth
Encoding: 240 240 269
Width: 922
VWidth: 2424
GlyphClass: 1
Flags: HW
LayerCount: 2
Fore
SplineSet
526 180 m 0,0,1
 608 180 608 180 667 270.5 c 128,-1,2
 726 361 726 361 726 558 c 0,3,4
 726 747 726 747 662.5 835 c 128,-1,5
 599 923 599 923 521 923 c 128,-1,6
 443 923 443 923 378.5 832.5 c 128,-1,7
 314 742 314 742 314 558 c 0,8,9
 314 380 314 380 376.5 280 c 128,-1,10
 439 180 439 180 526 180 c 0,0,1
523 -34 m 0,11,12
 393 -34 393 -34 291 31.5 c 128,-1,13
 189 97 189 97 129.5 224.5 c 128,-1,14
 70 352 70 352 70 536 c 0,15,16
 70 716 70 716 125 851.5 c 128,-1,17
 180 987 180 987 271 1062.5 c 128,-1,18
 362 1138 362 1138 471 1138 c 0,19,20
 603 1138 603 1138 676 1052 c 1,21,22
 650 1117 650 1117 615 1182 c 128,-1,23
 580 1247 580 1247 537 1295 c 1,24,-1
 317 1222 l 1,25,-1
 257 1392 l 1,26,-1
 414 1441 l 1,27,28
 371 1482 371 1482 330 1518 c 128,-1,29
 289 1554 289 1554 230 1580 c 1,30,-1
 469 1644 l 1,31,32
 512 1612 512 1612 549.5 1583 c 128,-1,33
 587 1554 587 1554 626 1513 c 1,34,-1
 853 1585 l 1,35,-1
 910 1418 l 1,36,-1
 758 1365 l 1,37,38
 854 1224 854 1224 907 1035 c 128,-1,39
 960 846 960 846 960 611 c 0,40,41
 960 301 960 301 847 133.5 c 128,-1,42
 734 -34 734 -34 523 -34 c 0,11,12
EndSplineSet
EndChar

StartChar: dcaron
Encoding: 271 271 270
Width: 922
VWidth: 2424
GlyphClass: 1
Flags: HW
LayerCount: 2
Fore
SplineSet
369 182 m 0,0,1
 501 182 501 182 501 562 c 0,2,3
 501 768 501 768 469.5 863 c 128,-1,4
 438 958 438 958 371 958 c 0,5,6
 310 958 310 958 274 872 c 128,-1,7
 238 786 238 786 238 585 c 0,8,9
 238 367 238 367 277 274.5 c 128,-1,10
 316 182 316 182 369 182 c 0,0,1
831 1619 m 0,11,12
 880 1619 880 1619 909.5 1581 c 128,-1,13
 939 1543 939 1543 939 1471 c 0,14,15
 939 1386 939 1386 906 1295.5 c 128,-1,16
 873 1205 873 1205 817 1101 c 1,17,-1
 718 1173 l 1,18,19
 750 1224 750 1224 770 1269 c 128,-1,20
 790 1314 790 1314 790 1355 c 0,21,22
 790 1379 790 1379 775 1397.5 c 128,-1,23
 760 1416 760 1416 745.5 1440 c 128,-1,24
 731 1464 731 1464 731 1511 c 0,25,26
 731 1557 731 1557 759.5 1588 c 128,-1,27
 788 1619 788 1619 831 1619 c 0,11,12
329 -24 m 0,28,29
 252 -24 252 -24 189 29.5 c 128,-1,30
 126 83 126 83 87.5 211.5 c 128,-1,31
 49 340 49 340 49 567 c 0,32,33
 49 785 49 785 85 915 c 128,-1,34
 121 1045 121 1045 185 1101 c 128,-1,35
 249 1157 249 1157 331 1157 c 0,36,37
 392 1157 392 1157 437 1123 c 128,-1,38
 482 1089 482 1089 503 1011 c 1,39,-1
 503 1619 l 1,40,-1
 716 1619 l 1,41,-1
 716 1598 l 1,42,43
 704 1584 704 1584 700.5 1567 c 128,-1,44
 697 1550 697 1550 699 1508 c 2,45,-1
 697 162 l 2,46,47
 697 121 697 121 699 81 c 128,-1,48
 701 41 701 41 712 0 c 1,49,-1
 523 0 l 1,50,51
 513 34 513 34 508 58.5 c 128,-1,52
 503 83 503 83 503 123 c 1,53,54
 475 51 475 51 427.5 13.5 c 128,-1,55
 380 -24 380 -24 329 -24 c 0,28,29
EndSplineSet
EndChar

StartChar: e
Encoding: 101 101 274
Width: 922
VWidth: 2424
GlyphClass: 2
Flags: HW
AnchorPoint: "Anchor-3" 658 24 basechar 0
AnchorPoint: "Anchor-2" 576 0 basechar 0
AnchorPoint: "Anchor-0" 548 1120 basechar 0
LayerCount: 2
Fore
SplineSet
326 691 m 1,0,-1
 732 691 l 1,1,2
 732 948 732 948 538 948 c 0,3,4
 455 948 455 948 396.5 887.5 c 128,-1,5
 338 827 338 827 326 691 c 1,0,-1
576 -27 m 0,6,7
 359 -27 359 -27 220 121 c 128,-1,8
 81 269 81 269 81 555 c 0,9,10
 81 752 81 752 142 885 c 128,-1,11
 203 1018 203 1018 309 1086 c 128,-1,12
 415 1154 415 1154 548 1154 c 0,13,14
 666 1154 666 1154 762.5 1094.5 c 128,-1,15
 859 1035 859 1035 915 911.5 c 128,-1,16
 971 788 971 788 971 601 c 0,17,18
 971 574 971 574 971 544 c 128,-1,19
 971 514 971 514 968 490 c 1,20,-1
 322 490 l 1,21,22
 329 325 329 325 406.5 253.5 c 128,-1,23
 484 182 484 182 586 182 c 0,24,25
 654 182 654 182 712 206.5 c 128,-1,26
 770 231 770 231 817 286 c 1,27,-1
 944 150 l 1,28,29
 876 60 876 60 781.5 16.5 c 128,-1,30
 687 -27 687 -27 576 -27 c 0,6,7
EndSplineSet
EndChar

StartChar: uni029A
Encoding: 666 666 296
Width: 922
VWidth: 2424
GlyphClass: 1
Flags: HW
LayerCount: 2
Fore
SplineSet
473 178 m 0,0,1
 600 178 600 178 661.5 268.5 c 128,-1,2
 723 359 723 359 723 562 c 0,3,4
 723 749 723 749 670 846.5 c 128,-1,5
 617 944 617 944 491 944 c 0,6,7
 407 944 407 944 369 902.5 c 128,-1,8
 331 861 331 861 331 805 c 0,9,10
 331 754 331 754 362.5 715 c 128,-1,11
 394 676 394 676 475 676 c 0,12,13
 497 676 497 676 513 677 c 128,-1,14
 529 678 529 678 554 684 c 1,15,-1
 554 483 l 1,16,17
 515 485 515 485 505.5 486.5 c 128,-1,18
 496 488 496 488 464 488 c 0,19,20
 372 488 372 488 330 445 c 128,-1,21
 288 402 288 402 288 340 c 0,22,23
 288 277 288 277 334.5 227.5 c 128,-1,24
 381 178 381 178 473 178 c 0,0,1
466 -37 m 0,25,26
 264 -37 264 -37 162.5 62.5 c 128,-1,27
 61 162 61 162 61 320 c 0,28,29
 61 422 61 422 108 492 c 128,-1,30
 155 562 155 562 234 601 c 1,31,32
 167 645 167 645 134 710 c 128,-1,33
 101 775 101 775 101 856 c 0,34,35
 101 936 101 936 146 1003.5 c 128,-1,36
 191 1071 191 1071 273.5 1114 c 128,-1,37
 356 1157 356 1157 469 1157 c 0,38,39
 701 1157 701 1157 826 999.5 c 128,-1,40
 951 842 951 842 951 562 c 0,41,42
 951 276 951 276 824.5 119.5 c 128,-1,43
 698 -37 698 -37 466 -37 c 0,25,26
EndSplineSet
EndChar

StartChar: f
Encoding: 102 102 300
Width: 922
VWidth: 2424
GlyphClass: 1
Flags: HW
LayerCount: 2
Fore
SplineSet
271 921 m 1,0,-1
 73 921 l 1,1,-1
 73 1127 l 1,2,-1
 271 1127 l 1,3,-1
 271 1198 l 2,4,5
 271 1348 271 1348 324.5 1446.5 c 128,-1,6
 378 1545 378 1545 465 1593 c 128,-1,7
 552 1641 552 1641 653 1641 c 0,8,9
 745 1641 745 1641 826.5 1602.5 c 128,-1,10
 908 1564 908 1564 963 1492 c 1,11,-1
 879 1309 l 1,12,-1
 869 1290 l 1,13,-1
 853 1300 l 1,14,15
 847 1317 847 1317 840 1336 c 128,-1,16
 833 1355 833 1355 805 1382 c 0,17,18
 749.096153846 1432.01923077 749.096153846 1432.01923077 672.030325444 1432.01923077 c 0,0,0
 670.519230769 1432.01923077 670.519230769 1432.01923077 669 1432 c 0,19,20
 590 1432 590 1432 543.5 1374 c 128,-1,21
 497 1316 497 1316 497 1198 c 2,22,-1
 497 1127 l 1,23,-1
 772 1127 l 1,24,-1
 772 921 l 1,25,-1
 497 921 l 1,26,-1
 497 0 l 1,27,-1
 271 0 l 1,28,-1
 271 921 l 1,0,-1
EndSplineSet
EndChar

StartChar: g
Encoding: 103 103 301
Width: 922
VWidth: 2278
GlyphClass: 2
Flags: HW
AnchorPoint: "Anchor-2" 467 -219 basechar 0
AnchorPoint: "Anchor-0" 448 1125 basechar 0
LayerCount: 2
Fore
SplineSet
232 47 m 0,0,1
 232 -11 232 -11 301.5 -38.5 c 128,-1,2
 371 -66 371 -66 479 -66 c 0,3,4
 586 -66 586 -66 643 -33 c 128,-1,5
 700 0 700 0 700 54 c 0,6,7
 700 107 700 107 662.5 129.5 c 128,-1,8
 625 152 625 152 522 152 c 0,9,10
 464 152 464 152 407 157 c 128,-1,11
 350 162 350 162 301 174 c 1,12,13
 271 146 271 146 251.5 118 c 128,-1,14
 232 90 232 90 232 47 c 0,0,1
444 639 m 0,15,16
 508 639 508 639 548 685.5 c 128,-1,17
 588 732 588 732 588 811 c 0,18,19
 588 891 588 891 548 937 c 128,-1,20
 508 983 508 983 444 983 c 0,21,22
 386 983 386 983 344.5 936 c 128,-1,23
 303 889 303 889 303 811 c 0,24,25
 303 736 303 736 343.5 687.5 c 128,-1,26
 384 639 384 639 444 639 c 0,15,16
446 468 m 0,27,28
 380 468 380 468 322 490 c 1,29,30
 305 473 305 473 293 457.5 c 128,-1,31
 281 442 281 442 281 420 c 0,32,33
 281 383 281 383 348.5 364.5 c 128,-1,34
 416 346 416 346 582 346 c 0,35,36
 754 346 754 346 820.5 269.5 c 128,-1,37
 887 193 887 193 887 78 c 0,38,39
 887 -6 887 -6 842.5 -80 c 128,-1,40
 798 -154 798 -154 704 -200 c 128,-1,41
 610 -246 610 -246 463 -246 c 0,42,43
 270 -246 270 -246 161.5 -176.5 c 128,-1,44
 53 -107 53 -107 53 15 c 0,45,46
 53 81 53 81 90 135 c 128,-1,47
 127 189 127 189 182 223 c 1,48,49
 147 247 147 247 127 281.5 c 0,50,51
 108.818181818 312.863636364 108.818181818 312.863636364 108.818181818 356.210743802 c 0,52,53
 108.818181818 360.545454545 108.818181818 360.545454545 109 365 c 0,54,55
 109 421 109 421 139.5 468.5 c 128,-1,56
 170 516 170 516 213 554 c 1,57,58
 166 601 166 601 137.5 666.5 c 128,-1,59
 109 732 109 732 109 811 c 0,60,61
 109 914 109 914 152 992.5 c 128,-1,62
 195 1071 195 1071 271.5 1116 c 128,-1,63
 348 1161 348 1161 446 1161 c 0,64,65
 577 1161 577 1161 670 1080 c 1,66,67
 721 1121 721 1121 782.5 1141 c 0,68,69
 829.807692308 1156.38461538 829.807692308 1156.38461538 882.144970414 1156.38461538 c 0,70,71
 897.846153846 1156.38461538 897.846153846 1156.38461538 914 1155 c 1,72,-1
 936 992 l 1,73,74
 907.758064516 996.661290323 907.758064516 996.661290323 881.245317378 996.661290323 c 0,75,76
 811.064516129 996.661290323 811.064516129 996.661290323 753 964 c 1,77,78
 781 893 781 893 781 811 c 0,79,80
 781 708 781 708 737.5 631 c 128,-1,81
 694 554 694 554 617 511 c 128,-1,82
 540 468 540 468 446 468 c 0,27,28
EndSplineSet
EndChar

StartChar: h
Encoding: 104 104 308
Width: 922
VWidth: 2424
GlyphClass: 2
Flags: HW
AnchorPoint: "Anchor-4" 294 1335 basechar 0
AnchorPoint: "Anchor-2" 546 0 basechar 0
AnchorPoint: "Anchor-0" 257 1624 basechar 0
LayerCount: 2
Fore
SplineSet
118 1624 m 1,0,-1
 393 1624 l 1,1,-1
 393 1603 l 1,2,3
 381 1589 381 1589 377 1570.5 c 128,-1,4
 373 1552 373 1552 373 1513 c 2,5,-1
 373 977 l 1,6,7
 426 1067 426 1067 508 1110.5 c 128,-1,8
 590 1154 590 1154 671 1154 c 0,9,10
 819 1154 819 1154 904.5 1046.5 c 128,-1,11
 990 939 990 939 990 684 c 2,12,-1
 990 0 l 1,13,-1
 738 0 l 1,14,-1
 738 681 l 2,15,16
 738 829 738 829 701 888.5 c 128,-1,17
 664 948 664 948 599 948 c 0,18,19
 507 948 507 948 440 869.5 c 128,-1,20
 373 791 373 791 373 645 c 2,21,-1
 373 0 l 1,22,-1
 118 0 l 1,23,-1
 118 1624 l 1,0,-1
EndSplineSet
EndChar

StartChar: i
Encoding: 105 105 313
Width: 922
VWidth: 2424
GlyphClass: 2
Flags: HW
AnchorPoint: "Anchor-3" 747 0 basechar 0
AnchorPoint: "Anchor-2" 546 0 basechar 0
AnchorPoint: "Anchor-0" 546 1488 basechar 0
LayerCount: 2
Fore
SplineSet
180 0 m 1,0,-1
 180 208 l 1,1,-1
 429 208 l 1,2,-1
 429 919 l 1,3,-1
 192 919 l 1,4,-1
 192 1127 l 1,5,-1
 684 1127 l 1,6,-1
 684 208 l 1,7,-1
 912 208 l 1,8,-1
 912 0 l 1,9,-1
 180 0 l 1,0,-1
546 1326 m 0,10,11
 479 1326 479 1326 432.5 1372 c 128,-1,12
 386 1418 386 1418 386 1481 c 0,13,14
 386 1546 386 1546 430.5 1591 c 128,-1,15
 475 1636 475 1636 546 1636 c 0,16,17
 609 1636 609 1636 657.5 1590.5 c 128,-1,18
 706 1545 706 1545 706 1481 c 0,19,20
 706 1418 706 1418 657.5 1372 c 128,-1,21
 609 1326 609 1326 546 1326 c 0,10,11
EndSplineSet
Substitution2: "'locl' Localized Forms in Latin lookup 18 subtable" i.loclTRK
Substitution2: "'locl' Localized Forms in Latin lookup 17 subtable" i.loclTRK
Substitution2: "'locl' Localized Forms in Latin lookup 16 subtable" i.loclTRK
Substitution2: "'locl' Localized Forms in Latin lookup 15 subtable" i.loclTRK
Substitution2: "'locl' Localized Forms in Latin lookup 14 subtable" i.loclTRK
Substitution2: "Single Substitution lookup 4 subtable" dotlessi
Substitution2: "Single Substitution lookup 3 subtable" dotlessi
AlternateSubs2: "'aalt' Access All Alternates in Latin lookup 1 subtable" dotlessi i.loclTRK
EndChar

StartChar: dotlessi
Encoding: 305 305 314
Width: 922
VWidth: 2424
GlyphClass: 2
Flags: HW
AnchorPoint: "Anchor-3" 747 0 basechar 0
AnchorPoint: "Anchor-2" 546 0 basechar 0
AnchorPoint: "Anchor-0" 546 1122 basechar 0
LayerCount: 2
Fore
SplineSet
180 0 m 1,0,-1
 180 208 l 1,1,-1
 429 208 l 1,2,-1
 429 919 l 1,3,-1
 192 919 l 1,4,-1
 192 1127 l 1,5,-1
 684 1127 l 1,6,-1
 684 208 l 1,7,-1
 912 208 l 1,8,-1
 912 0 l 1,9,-1
 180 0 l 1,0,-1
EndSplineSet
EndChar

StartChar: j
Encoding: 106 106 329
Width: 922
VWidth: 2355
GlyphClass: 2
Flags: HW
AnchorPoint: "Anchor-2" 503 -280 basechar 0
AnchorPoint: "Anchor-0" 634 1501 basechar 0
LayerCount: 2
Fore
SplineSet
381 -246 m 0,0,1
 193 -246 193 -246 66 -104 c 1,2,-1
 188 73 l 1,3,-1
 199 90 l 1,4,-1
 217 80 l 1,5,6
 219 63 219 63 224.5 45 c 128,-1,7
 230 27 230 27 252 -0 c 1,8,9
 277 -22 277 -22 308 -34.5 c 128,-1,10
 339 -47 339 -47 379 -47 c 0,11,12
 529 -47 529 -47 529 181 c 2,13,-1
 529 978 l 1,14,-1
 203 978 l 1,15,-1
 203 1171 l 1,16,-1
 765 1171 l 1,17,-1
 765 201 l 2,18,19
 765 39 765 39 710 -59 c 128,-1,20
 655 -157 655 -157 568 -201.5 c 128,-1,21
 481 -246 481 -246 381 -246 c 0,0,1
634 1353 m 0,22,23
 572 1353 572 1353 530 1395 c 128,-1,24
 488 1437 488 1437 488 1494 c 0,25,26
 488 1553 488 1553 528.5 1594.5 c 128,-1,27
 569 1636 569 1636 634 1636 c 0,28,29
 691 1636 691 1636 735.5 1594.5 c 128,-1,30
 780 1553 780 1553 780 1494 c 0,31,32
 780 1437 780 1437 735.5 1395 c 128,-1,33
 691 1353 691 1353 634 1353 c 0,22,23
EndSplineSet
Substitution2: "Single Substitution lookup 4 subtable" uni0237
Substitution2: "Single Substitution lookup 3 subtable" uni0237
Substitution2: "'aalt' Access All Alternates in Latin lookup 0 subtable" uni0237
EndChar

StartChar: uni0237
Encoding: 567 567 330
Width: 922
VWidth: 2274
GlyphClass: 2
Flags: HW
AnchorPoint: "Anchor-2" 487 -278 basechar 0
AnchorPoint: "Anchor-0" 614 1123 basechar 0
LayerCount: 2
Fore
SplineSet
369 -246 m 0,0,1
 187 -246 187 -246 64 -109 c 1,2,-1
 182 63 l 1,3,-1
 193 80 l 1,4,-1
 211 69 l 1,5,6
 213 52 213 52 218 35 c 128,-1,7
 223 18 223 18 244 -8 c 1,8,9
 268 -29 268 -29 298 -41 c 128,-1,10
 328 -53 328 -53 367 -53 c 0,11,12
 513 -53 513 -53 513 168 c 2,13,-1
 513 940 l 1,14,-1
 197 940 l 1,15,-1
 197 1127 l 1,16,-1
 741 1127 l 1,17,-1
 741 187 l 2,18,19
 741 30 741 30 688 -65 c 128,-1,20
 635 -160 635 -160 550 -203 c 128,-1,21
 465 -246 465 -246 369 -246 c 0,0,1
EndSplineSet
EndChar

StartChar: k
Encoding: 107 107 332
Width: 922
VWidth: 2424
GlyphClass: 2
Flags: HW
AnchorPoint: "Anchor-2" 506 0 basechar 0
AnchorPoint: "Anchor-0" 218 1624 basechar 0
LayerCount: 2
Fore
SplineSet
414 502 m 1,0,-1
 339 412 l 1,1,-1
 339 0 l 1,2,-1
 103 0 l 1,3,-1
 103 1624 l 1,4,-1
 360 1624 l 1,5,-1
 360 1603 l 1,6,7
 347 1589 347 1589 343 1570.5 c 128,-1,8
 339 1552 339 1552 339 1513 c 2,9,-1
 339 703 l 1,10,-1
 699 1138 l 1,11,12
 729 1131 729 1131 770 1125.5 c 128,-1,13
 811 1120 811 1120 838 1120 c 2,14,-1
 944 1120 l 1,15,-1
 575 666 l 1,16,-1
 993 0 l 1,17,-1
 731 -9 l 1,18,-1
 414 502 l 1,0,-1
EndSplineSet
EndChar

StartChar: kgreenlandic
Encoding: 312 312 334
Width: 922
VWidth: 2424
GlyphClass: 2
Flags: HW
AnchorPoint: "Anchor-2" 506 0 basechar 0
AnchorPoint: "Anchor-0" 227 1120 basechar 0
LayerCount: 2
Fore
SplineSet
414 502 m 1,0,-1
 339 412 l 1,1,-1
 339 0 l 1,2,-1
 103 0 l 1,3,-1
 103 1127 l 1,4,-1
 360 1127 l 1,5,-1
 360 1106 l 1,6,7
 347 1092 347 1092 343 1074.5 c 128,-1,8
 339 1057 339 1057 339 1016 c 2,9,-1
 339 703 l 1,10,-1
 699 1138 l 1,11,12
 729 1131 729 1131 770 1125.5 c 128,-1,13
 811 1120 811 1120 838 1120 c 2,14,-1
 944 1120 l 1,15,-1
 575 666 l 1,16,-1
 993 0 l 1,17,-1
 731 -9 l 1,18,-1
 414 502 l 1,0,-1
EndSplineSet
EndChar

StartChar: l
Encoding: 108 108 335
Width: 922
VWidth: 2424
GlyphClass: 2
Flags: HW
AnchorPoint: "Anchor-4" 546 560 basechar 0
AnchorPoint: "Anchor-2" 546 0 basechar 0
AnchorPoint: "Anchor-1" 1048 1120 basechar 0
AnchorPoint: "Anchor-0" 546 1624 basechar 0
LayerCount: 2
Fore
SplineSet
136 0 m 1,0,-1
 136 211 l 1,1,-1
 419 211 l 1,2,-1
 419 1413 l 1,3,-1
 148 1413 l 1,4,-1
 148 1624 l 1,5,-1
 676 1624 l 1,6,-1
 676 211 l 1,7,-1
 958 211 l 1,8,-1
 958 0 l 1,9,-1
 136 0 l 1,0,-1
EndSplineSet
EndChar

StartChar: ldot
Encoding: 320 320 339
Width: 922
VWidth: 2424
GlyphClass: 1
Flags: HW
LayerCount: 2
Fore
SplineSet
845 638 m 0,0,1
 774 638 774 638 725.5 688 c 128,-1,2
 677 738 677 738 677 810 c 0,3,4
 677 880 677 880 725.5 929.5 c 128,-1,5
 774 979 774 979 845 979 c 0,6,7
 911 979 911 979 961 929.5 c 128,-1,8
 1011 880 1011 880 1011 810 c 0,9,10
 1011 738 1011 738 962 688 c 128,-1,11
 913 638 913 638 845 638 c 0,0,1
121 0 m 1,12,-1
 121 211 l 1,13,-1
 346 211 l 1,14,-1
 346 1421 l 1,15,-1
 136 1421 l 1,16,-1
 136 1631 l 1,17,-1
 598 1631 l 1,18,-1
 598 211 l 1,19,-1
 906 211 l 1,20,-1
 906 0 l 1,21,-1
 121 0 l 1,12,-1
EndSplineSet
EndChar

StartChar: uni01C9
Encoding: 457 457 341
Width: 922
VWidth: 2353
GlyphClass: 1
Flags: HW
LayerCount: 2
Fore
SplineSet
520 -246 m 0,0,1
 381 -246 381 -246 285 -142 c 1,2,-1
 394 50 l 1,3,4
 407 44 407 44 408 32.5 c 128,-1,5
 409 21 409 21 416.5 7 c 128,-1,6
 424 -7 424 -7 458 -26 c 0,7,8
 471 -35 471 -35 487.5 -39 c 128,-1,9
 504 -43 504 -43 524 -43 c 0,10,11
 588 -43 588 -43 631.5 9 c 128,-1,12
 675 61 675 61 675 185 c 2,13,-1
 675 979 l 1,14,-1
 471 979 l 1,15,-1
 471 1171 l 1,16,-1
 901 1171 l 1,17,-1
 901 194 l 2,18,19
 901 35 901 35 850.5 -62 c 128,-1,20
 800 -159 800 -159 714 -202.5 c 128,-1,21
 628 -246 628 -246 520 -246 c 0,0,1
46 143 m 1,22,-1
 49 335 l 1,23,-1
 146 335 l 1,24,-1
 146 1439 l 1,25,-1
 59 1439 l 1,26,-1
 59 1631 l 1,27,-1
 372 1631 l 1,28,-1
 372 335 l 1,29,-1
 562 335 l 1,30,-1
 562 143 l 1,31,-1
 46 143 l 1,22,-1
779 1348 m 0,32,33
 717 1348 717 1348 675 1390.5 c 128,-1,34
 633 1433 633 1433 633 1490 c 0,35,36
 633 1549 633 1549 674 1590 c 128,-1,37
 715 1631 715 1631 779 1631 c 0,38,39
 836 1631 836 1631 880.5 1589 c 128,-1,40
 925 1547 925 1547 925 1490 c 128,-1,41
 925 1433 925 1433 880.5 1390.5 c 128,-1,42
 836 1348 836 1348 779 1348 c 0,32,33
EndSplineSet
EndChar

StartChar: lslash
Encoding: 322 322 343
Width: 922
VWidth: 2424
GlyphClass: 1
Flags: HW
LayerCount: 2
Fore
SplineSet
146 0 m 1,0,-1
 146 211 l 1,1,-1
 419 211 l 1,2,-1
 419 613 l 1,3,-1
 264 553 l 1,4,-1
 264 803 l 1,5,-1
 419 863 l 1,6,-1
 419 1413 l 1,7,-1
 160 1413 l 1,8,-1
 160 1624 l 1,9,-1
 674 1624 l 1,10,-1
 674 958 l 1,11,-1
 854 1025 l 1,12,-1
 854 773 l 1,13,-1
 674 703 l 1,14,-1
 674 211 l 1,15,-1
 948 211 l 1,16,-1
 948 0 l 1,17,-1
 146 0 l 1,0,-1
EndSplineSet
EndChar

StartChar: m
Encoding: 109 109 344
Width: 922
VWidth: 2424
GlyphClass: 2
Flags: HW
AnchorPoint: "Anchor-2" 499 0 basechar 0
AnchorPoint: "Anchor-0" 552 1120 basechar 0
LayerCount: 2
Fore
SplineSet
59 0 m 1,0,-1
 59 1127 l 1,1,-1
 249 1127 l 1,2,-1
 249 1041 l 1,3,4
 312.443478261 1154.00869565 312.443478261 1154.00869565 408.315538752 1154.00869565 c 0,5,6
 409.156521739 1154.00869565 409.156521739 1154.00869565 410 1154 c 0,7,8
 461 1154 461 1154 503 1120.5 c 128,-1,9
 545 1087 545 1087 565 1013 c 1,10,11
 624 1154 624 1154 760 1154 c 0,12,13
 859 1154 859 1154 905 1069 c 0,14,15
 949.083333333 987.541666667 949.083333333 987.541666667 949.083333333 849.142361111 c 0,16,17
 949.083333333 843.125 949.083333333 843.125 949 837 c 2,18,-1
 949 0 l 1,19,-1
 750 0 l 1,20,-1
 750 780 l 2,21,22
 750 891 750 891 737 926.5 c 128,-1,23
 724 962 724 962 697 962 c 0,24,25
 657 962 657 962 627.5 899.5 c 128,-1,26
 598 837 598 837 598 732 c 2,27,-1
 598 0 l 1,28,-1
 410 0 l 1,29,-1
 410 771 l 2,30,31
 410 889 410 889 397 927 c 128,-1,32
 384 965 384 965 349 965 c 0,33,34
 313 965 313 965 286 909.5 c 128,-1,35
 259 854 259 854 259 742 c 2,36,-1
 259 0 l 1,37,-1
 59 0 l 1,0,-1
EndSplineSet
EndChar

StartChar: n
Encoding: 110 110 346
Width: 922
VWidth: 2424
GlyphClass: 2
Flags: HW
AnchorPoint: "Anchor-2" 567 0 basechar 0
AnchorPoint: "Anchor-0" 572 1120 basechar 0
LayerCount: 2
Fore
SplineSet
118 0 m 1,0,-1
 118 1127 l 1,1,-1
 373 1127 l 1,2,-1
 373 970 l 1,3,4
 424 1053 424 1053 496.5 1103.5 c 128,-1,5
 569 1154 569 1154 664 1154 c 0,6,7
 752 1154 752 1154 826 1109 c 128,-1,8
 900 1064 900 1064 945 962.5 c 128,-1,9
 990 861 990 861 990 689 c 2,10,-1
 990 0 l 1,11,-1
 738 0 l 1,12,-1
 738 687 l 2,13,14
 738 826 738 826 700 887 c 128,-1,15
 662 948 662 948 592 948 c 0,16,17
 512 948 512 948 442.5 874 c 128,-1,18
 373 800 373 800 373 671 c 2,19,-1
 373 0 l 1,20,-1
 118 0 l 1,0,-1
EndSplineSet
EndChar

StartChar: eng
Encoding: 331 331 352
Width: 922
VWidth: 2273
GlyphClass: 1
Flags: HW
LayerCount: 2
Fore
SplineSet
516 -246 m 0,0,1
 461 -246 461 -246 399.5 -224.5 c 128,-1,2
 338 -203 338 -203 291 -158 c 1,3,-1
 376 29 l 1,4,5
 391 25 391 25 396.5 6.5 c 128,-1,6
 402 -12 402 -12 423.5 -28 c 128,-1,7
 445 -44 445 -44 503 -44 c 0,8,9
 657 -44 657 -44 657 229 c 2,10,-1
 657 736 l 2,11,12
 657 860 657 860 616.5 912 c 128,-1,13
 576 964 576 964 518 964 c 0,14,15
 434 964 434 964 379.5 894 c 128,-1,16
 325 824 325 824 325 711 c 2,17,-1
 325 135 l 1,18,-1
 100 135 l 1,19,-1
 100 1130 l 1,20,-1
 325 1130 l 1,21,-1
 325 991 l 1,22,23
 370 1066 370 1066 438.5 1109 c 128,-1,24
 507 1152 507 1152 584 1152 c 0,25,26
 665 1152 665 1152 730.5 1112 c 128,-1,27
 796 1072 796 1072 834.5 982.5 c 128,-1,28
 873 893 873 893 873 739 c 2,29,-1
 873 251 l 2,30,31
 873 73 873 73 825.5 -36 c 128,-1,32
 778 -145 778 -145 697 -195.5 c 128,-1,33
 616 -246 616 -246 516 -246 c 0,0,1
EndSplineSet
EndChar

StartChar: o
Encoding: 111 111 355
Width: 922
VWidth: 2424
GlyphClass: 2
Flags: HW
AnchorPoint: "Anchor-4" 501 560 basechar 0
AnchorPoint: "Anchor-3" 581 53 basechar 0
AnchorPoint: "Anchor-2" 501 0 basechar 0
AnchorPoint: "Anchor-1" 724 1069 basechar 0
AnchorPoint: "Anchor-0" 503 1120 basechar 0
LayerCount: 2
Fore
SplineSet
501 189 m 0,0,1
 594 189 594 189 653 288.5 c 128,-1,2
 712 388 712 388 712 565 c 0,3,4
 712 745 712 745 653 843 c 128,-1,5
 594 941 594 941 501 941 c 128,-1,6
 408 941 408 941 348.5 843 c 128,-1,7
 289 745 289 745 289 565 c 0,8,9
 289 387 289 387 347 288 c 128,-1,10
 405 189 405 189 501 189 c 0,0,1
501 -24 m 0,11,12
 374 -24 374 -24 273 45 c 128,-1,13
 172 114 172 114 113.5 246 c 128,-1,14
 55 378 55 378 55 562 c 0,15,16
 55 744 55 744 113.5 876.5 c 128,-1,17
 172 1009 172 1009 273 1081.5 c 128,-1,18
 374 1154 374 1154 501 1154 c 0,19,20
 626 1154 626 1154 727 1081.5 c 128,-1,21
 828 1009 828 1009 886.5 877 c 128,-1,22
 945 745 945 745 945 562 c 0,23,24
 945 377 945 377 886.5 246.5 c 128,-1,25
 828 116 828 116 727 46 c 128,-1,26
 626 -24 626 -24 501 -24 c 0,11,12
EndSplineSet
Substitution2: "Single Substitution lookup 29 subtable" ordmasculine
Substitution2: "'aalt' Access All Alternates in Latin lookup 0 subtable" ordmasculine
EndChar

StartChar: oslash
Encoding: 248 248 383
Width: 922
VWidth: 2424
GlyphClass: 2
Flags: HW
AnchorPoint: "Anchor-4" 501 560 basechar 0
AnchorPoint: "Anchor-3" 581 53 basechar 0
AnchorPoint: "Anchor-2" 501 0 basechar 0
AnchorPoint: "Anchor-1" 724 1069 basechar 0
AnchorPoint: "Anchor-0" 503 1120 basechar 0
LayerCount: 2
Fore
SplineSet
501 189 m 0,0,1
 594 189 594 189 653 288.5 c 128,-1,2
 712 388 712 388 712 565 c 0,3,4
 712 672 712 672 690 754 c 1,5,-1
 441 201 l 1,6,7
 469 189 469 189 501 189 c 0,0,1
289 565 m 0,8,9
 289 456 289 456 312 375 c 1,10,-1
 561 928 l 1,11,12
 532 940 532 940 501 941 c 0,13,14
 408 941 408 941 348.5 843 c 128,-1,15
 289 745 289 745 289 565 c 0,8,9
280 -155 m 1,16,-1
 115 -63 l 1,17,-1
 196 114 l 1,18,19
 130 189 130 189 92.5 301.5 c 128,-1,20
 55 414 55 414 55 562 c 0,21,22
 55 744 55 744 113.5 876.5 c 128,-1,23
 172 1009 172 1009 273 1081.5 c 128,-1,24
 374 1154 374 1154 501 1154 c 0,25,26
 579 1154 579 1154 648 1125 c 1,27,-1
 710 1265 l 1,28,-1
 877 1171 l 1,29,-1
 805 1009 l 1,30,31
 869 934 869 934 907 820 c 128,-1,32
 945 706 945 706 945 562 c 0,33,34
 945 377 945 377 886.5 246.5 c 128,-1,35
 828 116 828 116 726.5 46 c 128,-1,36
 625 -24 625 -24 501 -24 c 0,37,38
 421 -24 421 -24 352 2 c 1,39,-1
 280 -155 l 1,16,-1
EndSplineSet
EndChar

StartChar: oe
Encoding: 339 339 389
Width: 922
VWidth: 2424
GlyphClass: 1
Flags: HW
LayerCount: 2
Fore
SplineSet
306 172 m 0,0,1
 335 172 335 172 355 192.5 c 128,-1,2
 375 213 375 213 375 247 c 0,3,4
 375 259 375 259 374 270.5 c 128,-1,5
 373 282 373 282 371 301 c 0,6,7
 363 368 363 368 357.5 429 c 128,-1,8
 352 490 352 490 352 582 c 0,9,10
 352 716 352 716 363.5 781 c 128,-1,11
 375 846 375 846 375 863 c 0,12,13
 375 893 375 893 356.5 920.5 c 128,-1,14
 338 948 338 948 302 948 c 0,15,16
 253 948 253 948 217.5 866 c 128,-1,17
 182 784 182 784 182 590 c 0,18,19
 182 384 182 384 208.5 278 c 128,-1,20
 235 172 235 172 306 172 c 0,0,1
519 696 m 1,21,-1
 747 696 l 1,22,23
 745 827 745 827 722 889 c 128,-1,24
 699 951 699 951 639 951 c 0,25,26
 582 951 582 951 552.5 879 c 128,-1,27
 523 807 523 807 519 696 c 1,21,-1
660 -30 m 0,28,29
 605 -30 605 -30 555 -9 c 128,-1,30
 505 12 505 12 464 60 c 1,31,32
 423 11 423 11 380.5 -8 c 128,-1,33
 338 -27 338 -27 290 -27 c 0,34,35
 221 -27 221 -27 155.5 21.5 c 128,-1,36
 90 70 90 70 48.5 198.5 c 128,-1,37
 7 327 7 327 7 560 c 0,38,39
 7 775 7 775 47.5 905 c 128,-1,40
 88 1035 88 1035 155 1092 c 128,-1,41
 222 1149 222 1149 302 1149 c 0,42,43
 403 1149 403 1149 466 1052 c 1,44,45
 527 1149 527 1149 631 1149 c 0,46,47
 757 1149 757 1149 827 1032.5 c 128,-1,48
 897 916 897 916 897 687 c 2,49,-1
 897 514 l 1,50,-1
 517 514 l 1,51,52
 519 371 519 371 538.5 294.5 c 128,-1,53
 558 218 558 218 592.5 190 c 128,-1,54
 627 162 627 162 672 162 c 0,55,56
 715 162 715 162 750.5 181.5 c 128,-1,57
 786 201 786 201 816 250 c 1,58,-1
 891 107 l 1,59,60
 842 37 842 37 787.5 3.5 c 128,-1,61
 733 -30 733 -30 660 -30 c 0,28,29
EndSplineSet
EndChar

StartChar: p
Encoding: 112 112 390
Width: 922
VWidth: 2293
GlyphClass: 2
Flags: HW
AnchorPoint: "Anchor-2" 527 118 basechar 0
AnchorPoint: "Anchor-0" 527 1126 basechar 0
LayerCount: 2
Fore
SplineSet
505 277 m 0,0,1
 561 277 561 277 606 308.5 c 128,-1,2
 651 340 651 340 677.5 416 c 128,-1,3
 704 492 704 492 704 629 c 0,4,5
 704 797 704 797 654.5 881 c 128,-1,6
 605 965 605 965 516 967 c 0,7,8
 513.977777778 967.044444444 513.977777778 967.044444444 511.974567901 967.044444444 c 0,9,10
 423.833333333 967.044444444 423.833333333 967.044444444 372.5 881 c 0,11,12
 320 793 320 793 320 601 c 0,13,14
 322 431 322 431 369 354 c 128,-1,15
 416 277 416 277 505 277 c 0,0,1
91 -246 m 1,16,-1
 91 1132 l 1,17,-1
 316 1132 l 1,18,-1
 316 990 l 1,19,20
 360 1073 360 1073 424 1113.5 c 128,-1,21
 488 1154 488 1154 571 1154 c 0,22,23
 669 1154 669 1154 750 1098.5 c 128,-1,24
 831 1043 831 1043 880 925.5 c 128,-1,25
 929 808 929 808 929 623 c 128,-1,26
 929 438 929 438 879 320.5 c 128,-1,27
 829 203 829 203 746.5 147 c 128,-1,28
 664 91 664 91 566 91 c 0,29,30
 492 91 492 91 426.5 121 c 128,-1,31
 361 151 361 151 322 209 c 1,32,-1
 322 -246 l 1,33,-1
 91 -246 l 1,16,-1
EndSplineSet
EndChar

StartChar: thorn
Encoding: 254 254 391
Width: 922
VWidth: 2360
GlyphClass: 1
Flags: HW
LayerCount: 2
Fore
SplineSet
518 291 m 0,0,1
 576 291 576 291 622 323 c 128,-1,2
 668 355 668 355 695 433 c 128,-1,3
 722 511 722 511 722 652 c 0,4,5
 722 824 722 824 671.5 910.5 c 128,-1,6
 621 997 621 997 529 999 c 0,7,8
 526.967567568 999.043243243 526.967567568 999.043243243 524.954068663 999.043243243 c 0,0,0
 433.843243243 999.043243243 433.843243243 999.043243243 381.5 910.5 c 128,-1,9
 328 820 328 820 328 624 c 0,10,11
 330 449 330 449 378 370 c 128,-1,12
 426 291 426 291 518 291 c 0,0,1
94 1624 m 1,13,-1
 344 1624 l 1,14,-1
 344 1605 l 1,15,16
 331 1592 331 1592 327.5 1575 c 128,-1,17
 324 1558 324 1558 324 1522 c 2,18,-1
 324 1023 l 1,19,20
 369 1108 369 1108 435 1149.5 c 128,-1,21
 501 1191 501 1191 586 1191 c 0,22,23
 686 1191 686 1191 769.5 1133.5 c 128,-1,24
 853 1076 853 1076 903.5 955.5 c 128,-1,25
 954 835 954 835 954 645 c 128,-1,26
 954 455 954 455 902.5 334.5 c 128,-1,27
 851 214 851 214 766.5 157 c 128,-1,28
 682 100 682 100 580 100 c 0,29,30
 504 100 504 100 437.5 130.5 c 128,-1,31
 371 161 371 161 331 221 c 1,32,-1
 331 -246 l 1,33,-1
 94 -246 l 1,34,-1
 94 1624 l 1,13,-1
EndSplineSet
EndChar

StartChar: q
Encoding: 113 113 392
Width: 922
VWidth: 2293
GlyphClass: 1
Flags: HW
LayerCount: 2
Fore
SplineSet
484 279 m 0,0,1
 563 279 563 279 613.5 359.5 c 128,-1,2
 664 440 664 440 664 635 c 0,3,4
 664 824 664 824 612.5 897.5 c 128,-1,5
 561 971 561 971 484 971 c 0,6,7
 397 971 397 971 339 894.5 c 128,-1,8
 281 818 281 818 281 629 c 0,9,10
 281 446 281 446 335.5 362.5 c 128,-1,11
 390 279 390 279 484 279 c 0,0,1
664 -246 m 1,12,-1
 664 218 l 1,13,14
 631 155 631 155 572.5 124 c 128,-1,15
 514 93 514 93 442 93 c 0,16,17
 257 93 257 93 154.5 236 c 128,-1,18
 52 379 52 379 52 623 c 0,19,20
 52 885 52 885 158 1019.5 c 128,-1,21
 264 1154 264 1154 449 1154 c 0,22,23
 530 1154 530 1154 583 1120 c 128,-1,24
 636 1086 636 1086 671 1023 c 1,25,-1
 671 1130 l 1,26,-1
 893 1130 l 1,27,-1
 893 -246 l 1,28,-1
 664 -246 l 1,12,-1
EndSplineSet
EndChar

StartChar: r
Encoding: 114 114 393
Width: 922
VWidth: 2424
GlyphClass: 2
Flags: HW
AnchorPoint: "Anchor-2" 620 0 basechar 0
AnchorPoint: "Anchor-0" 620 1120 basechar 0
LayerCount: 2
Fore
SplineSet
185 1127 m 1,0,-1
 446 1127 l 1,1,-1
 444 953 l 1,2,3
 485 1048 485 1048 567.5 1101 c 128,-1,4
 650 1154 650 1154 742 1154 c 0,5,6
 914 1154 914 1154 1023 1023 c 1,7,-1
 919 810 l 1,8,-1
 909 788 l 1,9,-1
 890 798 l 1,10,11
 883 817 883 817 875.5 837.5 c 128,-1,12
 868 858 868 858 842 888 c 1,13,14
 778.3 936.02 778.3 936.02 708.8376 936.02 c 0,15,16
 707.42 936.02 707.42 936.02 706 936 c 0,17,18
 639 936 639 936 577.5 902 c 128,-1,19
 516 868 516 868 479 792.5 c 128,-1,20
 442 717 442 717 442 594 c 2,21,-1
 442 -2 l 1,22,-1
 185 -2 l 1,23,-1
 185 1127 l 1,0,-1
EndSplineSet
EndChar

StartChar: uni027B
Encoding: 635 635 399
Width: 922
VWidth: 2271
GlyphClass: 1
Flags: HW
LayerCount: 2
Fore
SplineSet
750 -246 m 0,0,1
 610 -246 610 -246 544.5 -157.5 c 128,-1,2
 479 -69 479 -69 475 130 c 1,3,-1
 475 271 l 1,4,5
 442 196 442 196 376 153.5 c 128,-1,6
 310 111 310 111 242 111 c 0,7,8
 181 111 181 111 126 135 c 128,-1,9
 71 159 71 159 20 214 c 1,10,-1
 98 396 l 1,11,-1
 104 415 l 1,12,-1
 121 408 l 1,13,14
 127 393 127 393 133 376 c 128,-1,15
 139 359 139 359 162 338 c 1,16,17
 185 323 185 323 207 314.5 c 128,-1,18
 229 306 229 306 261 306 c 0,19,20
 310 306 310 306 360 340 c 128,-1,21
 410 374 410 374 442.5 441.5 c 128,-1,22
 475 509 475 509 475 606 c 2,23,-1
 475 1132 l 1,24,-1
 690 1132 l 1,25,-1
 687 128 l 2,26,27
 687 -58 687 -58 778 -58 c 0,28,29
 792 -58 792 -58 806.5 -56 c 128,-1,30
 821 -54 821 -54 837 -45 c 0,31,32
 851 -37 851 -37 854 -26 c 128,-1,33
 857 -15 857 -15 867 -11 c 1,34,-1
 910 -189 l 1,35,36
 843 -246 843 -246 750 -246 c 0,0,1
EndSplineSet
EndChar

StartChar: uni024D
Encoding: 589 589 402
Width: 922
VWidth: 2424
GlyphClass: 2
Flags: HW
AnchorPoint: "Anchor-2" 574 0 basechar 0
AnchorPoint: "Anchor-0" 574 1120 basechar 0
LayerCount: 2
Fore
SplineSet
56 384 m 1,0,-1
 56 594 l 1,1,-1
 171 594 l 1,2,-1
 171 1127 l 1,3,-1
 413 1127 l 1,4,-1
 411 953 l 1,5,6
 449 1048 449 1048 525 1101 c 128,-1,7
 601 1154 601 1154 686 1154 c 0,8,9
 845 1154 845 1154 946 1023 c 1,10,-1
 849 810 l 1,11,-1
 841 788 l 1,12,-1
 823 798 l 1,13,14
 816 817 816 817 809 837.5 c 128,-1,15
 802 858 802 858 778 888 c 1,16,17
 719.2 936.02 719.2 936.02 654.6376 936.02 c 0,18,19
 653.32 936.02 653.32 936.02 652 936 c 0,20,21
 590 936 590 936 533.5 902 c 128,-1,22
 477 868 477 868 442.5 792.5 c 128,-1,23
 408 717 408 717 408 594 c 1,24,-1
 652 594 l 1,25,-1
 652 384 l 1,26,-1
 408 384 l 1,27,-1
 408 -2 l 1,28,-1
 171 -2 l 1,29,-1
 171 384 l 1,30,-1
 56 384 l 1,0,-1
EndSplineSet
EndChar

StartChar: s
Encoding: 115 115 403
Width: 922
VWidth: 2424
GlyphClass: 1
Flags: HW
LayerCount: 2
Fore
SplineSet
558 -27 m 0,0,1
 417 -27 417 -27 301 12 c 128,-1,2
 185 51 185 51 97 134 c 1,3,-1
 204 344 l 1,4,-1
 215 366 l 1,5,-1
 233 356 l 1,6,7
 240 337 240 337 248.5 317.5 c 128,-1,8
 257 298 257 298 284 271 c 0,9,10
 337 227 337 227 402.5 203.5 c 128,-1,11
 468 180 468 180 558 180 c 128,-1,12
 648 180 648 180 698.5 217.5 c 128,-1,13
 749 255 749 255 749 313 c 0,14,15
 749 369 749 369 696 405.5 c 128,-1,16
 643 442 643 442 519 483 c 0,17,18
 354 534 354 534 254.5 615 c 128,-1,19
 155 696 155 696 155 835 c 0,20,21
 155 971 155 971 264 1062.5 c 128,-1,22
 373 1154 373 1154 558 1154 c 0,23,24
 815 1154 815 1154 967 990 c 1,25,-1
 846 812 l 1,26,-1
 831 793 l 1,27,-1
 814 805 l 1,28,29
 812 824 812 824 804 842.5 c 128,-1,30
 796 861 796 861 768 888 c 1,31,32
 724 920 724 920 672 935.5 c 128,-1,33
 620 951 620 951 565 951 c 0,34,35
 490 951 490 951 438 922 c 128,-1,36
 386 893 386 893 386 839 c 0,37,38
 386 788 386 788 443 751.5 c 128,-1,39
 500 715 500 715 636 674 c 0,40,41
 818 618 818 618 898.5 539.5 c 128,-1,42
 979 461 979 461 979 327 c 0,43,44
 979 177 979 177 870.5 75 c 128,-1,45
 762 -27 762 -27 558 -27 c 0,0,1
EndSplineSet
EndChar

StartChar: germandbls
Encoding: 223 223 414
Width: 922
VWidth: 2424
GlyphClass: 1
Flags: HW
LayerCount: 2
Fore
SplineSet
604 -30 m 0,0,1
 537 -30 537 -30 489.5 -12.5 c 128,-1,2
 442 5 442 5 388 39 c 1,3,-1
 475 240 l 1,4,5
 524 189 524 189 586 189 c 0,6,7
 658 189 658 189 699.5 274 c 128,-1,8
 741 359 741 359 741 470 c 0,9,10
 741 588 741 588 685.5 667.5 c 128,-1,11
 630 747 630 747 499 747 c 2,12,-1
 419 747 l 1,13,-1
 419 955 l 1,14,-1
 512 955 l 2,15,16
 579 955 579 955 625.5 1015.5 c 128,-1,17
 672 1076 672 1076 672 1185 c 0,18,19
 672 1287 672 1287 625.5 1352.5 c 128,-1,20
 579 1418 579 1418 499 1418 c 0,21,22
 415 1418 415 1418 367 1321 c 128,-1,23
 319 1224 319 1224 319 1060 c 2,24,-1
 319 0 l 1,25,-1
 86 0 l 1,26,-1
 86 1043 l 2,27,28
 86 1351 86 1351 197.5 1490 c 128,-1,29
 309 1629 309 1629 488 1629 c 0,30,31
 608 1629 608 1629 700 1572 c 128,-1,32
 792 1515 792 1515 843.5 1418 c 128,-1,33
 895 1321 895 1321 895 1203 c 0,34,35
 895 1099 895 1099 858 1013.5 c 128,-1,36
 821 928 821 928 739 875 c 1,37,38
 848 836 848 836 912 726 c 128,-1,39
 976 616 976 616 976 446 c 0,40,41
 976 228 976 228 872.5 99 c 128,-1,42
 769 -30 769 -30 604 -30 c 0,0,1
EndSplineSet
EndChar

StartChar: t
Encoding: 116 116 415
Width: 922
VWidth: 2424
GlyphClass: 2
Flags: HW
AnchorPoint: "Anchor-4" 458 735 basechar 0
AnchorPoint: "Anchor-2" 599 0 basechar 0
AnchorPoint: "Anchor-1" 662 1122 basechar 0
AnchorPoint: "Anchor-0" 516 1421 basechar 0
LayerCount: 2
Fore
SplineSet
655 -24 m 0,0,1
 534 -24 534 -24 456 30.5 c 128,-1,2
 378 85 378 85 344 219.5 c 0,3,4
 315.804878049 331.036585366 315.804878049 331.036585366 315.804878049 510.310232005 c 0,5,6
 315.804878049 547.219512195 315.804878049 547.219512195 317 587 c 2,7,-1
 330 909 l 1,8,-1
 123 909 l 1,9,-1
 125 1120 l 1,10,-1
 337 1120 l 1,11,-1
 347 1395 l 1,12,-1
 608 1428 l 1,13,-1
 630 1430 l 1,14,-1
 633 1409 l 1,15,16
 624 1392 624 1392 614 1373.5 c 128,-1,17
 604 1355 604 1355 601 1316 c 2,18,-1
 590 1120 l 1,19,-1
 912 1120 l 1,20,-1
 909 909 l 1,21,-1
 587 909 l 1,22,-1
 572 590 l 2,23,24
 569.869565217 541.304347826 569.869565217 541.304347826 569.869565217 499.324196597 c 0,25,26
 569.869565217 403.369565217 569.869565217 403.369565217 581 342.5 c 0,27,28
 597 255 597 255 631.5 221 c 128,-1,29
 666 187 666 187 715 187 c 0,30,31
 785 187 785 187 840 216 c 128,-1,32
 895 245 895 245 944 284 c 1,33,-1
 992 92 l 1,34,35
 844 -24 844 -24 655 -24 c 0,0,1
EndSplineSet
EndChar

StartChar: tbar
Encoding: 359 359 416
Width: 922
VWidth: 2424
GlyphClass: 2
Flags: HW
AnchorPoint: "Anchor-4" 458 735 basechar 0
AnchorPoint: "Anchor-2" 599 0 basechar 0
AnchorPoint: "Anchor-1" 662 1122 basechar 0
AnchorPoint: "Anchor-0" 516 1421 basechar 0
LayerCount: 2
Fore
SplineSet
114 502 m 1,0,-1
 114 715 l 1,1,-1
 322 715 l 1,2,-1
 330 909 l 1,3,-1
 123 909 l 1,4,-1
 125 1120 l 1,5,-1
 337 1120 l 1,6,-1
 347 1395 l 1,7,-1
 608 1428 l 1,8,-1
 630 1430 l 1,9,-1
 633 1409 l 1,10,11
 624 1392 624 1392 614 1373.5 c 128,-1,12
 604 1355 604 1355 601 1316 c 2,13,-1
 590 1120 l 1,14,-1
 912 1120 l 1,15,-1
 909 909 l 1,16,-1
 587 909 l 1,17,-1
 577 715 l 1,18,-1
 897 715 l 1,19,-1
 897 502 l 1,20,-1
 569 502 l 1,21,22
 571 315 571 315 610.5 251 c 128,-1,23
 650 187 650 187 715 187 c 0,24,25
 785 187 785 187 840 216 c 128,-1,26
 895 245 895 245 944 284 c 1,27,-1
 992 92 l 1,28,29
 844 -24 844 -24 655 -24 c 0,30,31
 544 -24 544 -24 468.5 23 c 128,-1,32
 393 70 393 70 355 185.5 c 128,-1,33
 317 301 317 301 315 502 c 1,34,-1
 114 502 l 1,0,-1
EndSplineSet
EndChar

StartChar: u
Encoding: 117 117 423
Width: 922
VWidth: 2424
GlyphClass: 2
Flags: HW
AnchorPoint: "Anchor-3" 786 0 basechar 0
AnchorPoint: "Anchor-2" 490 0 basechar 0
AnchorPoint: "Anchor-1" 953 1120 basechar 0
AnchorPoint: "Anchor-0" 543 1120 basechar 0
LayerCount: 2
Fore
SplineSet
461 -27 m 0,0,1
 304 -27 304 -27 205.5 85 c 0,2,3
 108.960199005 194.771144279 108.960199005 194.771144279 108.960199005 459.198089156 c 0,4,5
 108.960199005 464.567164179 108.960199005 464.567164179 109 470 c 2,6,-1
 109 1127 l 1,7,-1
 361 1127 l 1,8,-1
 361 463 l 2,9,10
 361 303 361 303 405 244 c 128,-1,11
 449 185 449 185 514 185 c 0,12,13
 604 185 604 185 659.5 260 c 128,-1,14
 715 335 715 335 715 485 c 2,15,-1
 715 1127 l 1,16,-1
 967 1127 l 1,17,-1
 967 178 l 2,18,19
 967 129 967 129 970.5 85 c 128,-1,20
 974 41 974 41 990 0 c 1,21,-1
 756 0 l 1,22,23
 742 34 742 34 738.5 68 c 128,-1,24
 735 102 735 102 735 141 c 1,25,26
 691 58 691 58 618.5 15.5 c 128,-1,27
 546 -27 546 -27 461 -27 c 0,0,1
EndSplineSet
EndChar

StartChar: v
Encoding: 118 118 446
Width: 922
VWidth: 2424
GlyphClass: 2
Flags: HW
AnchorPoint: "Anchor-2" 512 0 basechar 0
AnchorPoint: "Anchor-0" 510 1122 basechar 0
LayerCount: 2
Fore
SplineSet
414 0 m 1,0,-1
 61 1127 l 1,1,-1
 307 1127 l 1,2,-1
 530 356 l 1,3,-1
 639 678 l 2,4,5
 678 799 678 799 702 913.5 c 128,-1,6
 726 1028 726 1028 730 1127 c 1,7,-1
 951 1127 l 1,8,9
 940 1020 940 1020 906.5 899 c 128,-1,10
 873 778 873 778 833 652 c 2,11,-1
 608 0 l 1,12,-1
 414 0 l 1,0,-1
EndSplineSet
EndChar

StartChar: w
Encoding: 119 119 447
Width: 922
VWidth: 2424
GlyphClass: 2
Flags: HW
AnchorPoint: "Anchor-2" 467 0 basechar 0
AnchorPoint: "Anchor-0" 467 1120 basechar 0
LayerCount: 2
Fore
SplineSet
176 -2 m 1,0,-1
 18 1127 l 1,1,-1
 204 1127 l 1,2,-1
 299 359 l 1,3,-1
 419 984 l 1,4,-1
 535 984 l 1,5,-1
 676 363 l 1,6,7
 696 569 696 569 707 702 c 128,-1,8
 718 835 718 835 722 920.5 c 128,-1,9
 726 1006 726 1006 726 1069 c 2,10,-1
 726 1127 l 1,11,-1
 908 1127 l 1,12,13
 892 856 892 856 855.5 561 c 128,-1,14
 819 266 819 266 780 -2 c 1,15,-1
 591 -2 l 1,16,-1
 475 590 l 1,17,-1
 365 -2 l 1,18,-1
 176 -2 l 1,0,-1
EndSplineSet
EndChar

StartChar: x
Encoding: 120 120 452
Width: 922
VWidth: 2424
GlyphClass: 2
Flags: HW
AnchorPoint: "Anchor-2" 500 0 basechar 0
AnchorPoint: "Anchor-0" 500 1122 basechar 0
LayerCount: 2
Fore
SplineSet
57 0 m 1,0,-1
 375 565 l 1,1,-1
 62 1127 l 1,2,-1
 302 1127 l 1,3,-1
 498 780 l 1,4,-1
 680 1127 l 1,5,-1
 911 1127 l 1,6,-1
 617 577 l 1,7,-1
 947 0 l 1,8,-1
 704 0 l 1,9,-1
 498 359 l 1,10,-1
 302 0 l 1,11,-1
 57 0 l 1,0,-1
EndSplineSet
EndChar

StartChar: y
Encoding: 121 121 453
Width: 922
VWidth: 2274
GlyphClass: 2
Flags: HW
AnchorPoint: "Anchor-2" 747 129 basechar 0
AnchorPoint: "Anchor-0" 498 1123 basechar 0
LayerCount: 2
Fore
SplineSet
244 -246 m 0,0,1
 180 -246 180 -246 130 -224.5 c 128,-1,2
 80 -203 80 -203 32 -160 c 1,3,-1
 107 4 l 1,4,-1
 116 24 l 1,5,-1
 133 15 l 1,6,7
 139 0 139 0 148 -16 c 128,-1,8
 157 -32 157 -32 184 -51 c 1,9,10
 212 -64 212 -64 247 -64 c 0,11,12
 305 -64 305 -64 339 -10.5 c 128,-1,13
 373 43 373 43 410 158 c 1,14,-1
 410 162 l 1,15,-1
 62 1127 l 1,16,-1
 285 1127 l 1,17,-1
 508 473 l 1,18,-1
 601 762 l 2,19,20
 631 854 631 854 651.5 944.5 c 128,-1,21
 672 1035 672 1035 676 1127 c 1,22,-1
 882 1127 l 1,23,24
 876 1031 876 1031 842.5 923.5 c 128,-1,25
 809 816 809 816 777 717 c 2,26,-1
 555 37 l 2,27,28
 504 -117 504 -117 424.5 -181.5 c 128,-1,29
 345 -246 345 -246 244 -246 c 0,0,1
EndSplineSet
EndChar

StartChar: z
Encoding: 122 122 463
Width: 922
VWidth: 2424
GlyphClass: 2
Flags: HW
AnchorPoint: "Anchor-2" 542 0 basechar 0
AnchorPoint: "Anchor-0" 546 1122 basechar 0
LayerCount: 2
Fore
SplineSet
85 160 m 1,0,-1
 627 909 l 1,1,-1
 128 909 l 1,2,-1
 128 1127 l 1,3,-1
 928 1127 l 1,4,-1
 928 960 l 1,5,-1
 396 218 l 1,6,-1
 867 218 l 2,7,8
 907 218 907 218 923 221.5 c 128,-1,9
 939 225 939 225 953 240 c 1,10,-1
 975 240 l 1,11,-1
 975 0 l 1,12,-1
 85 0 l 1,13,-1
 85 160 l 1,0,-1
EndSplineSet
EndChar

StartChar: u.i
Encoding: 65539 -1 468
Width: 922
VWidth: 2424
GlyphClass: 2
Flags: HW
AnchorPoint: "Anchor-3" 713 0 basechar 0
AnchorPoint: "Anchor-2" 407 0 basechar 0
AnchorPoint: "Anchor-1" 826 1122 basechar 0
AnchorPoint: "Anchor-0" 442 1122 basechar 0
LayerCount: 2
Fore
SplineSet
381 -27 m 0,0,1
 235 -27 235 -27 144 85 c 0,2,3
 55.9042553191 193.425531915 55.9042553191 193.425531915 55.9042553191 452.738456315 c 0,4,5
 55.9042553191 461.287234043 55.9042553191 461.287234043 56 470 c 2,6,-1
 56 1127 l 1,7,-1
 289 1127 l 1,8,-1
 289 463 l 2,9,10
 289 303 289 303 328.5 244 c 128,-1,11
 368 185 368 185 429 185 c 0,12,13
 512 185 512 185 564 260 c 128,-1,14
 616 335 616 335 616 485 c 2,15,-1
 616 1127 l 1,16,-1
 849 1127 l 1,17,-1
 849 178 l 2,18,19
 849 129 849 129 851.5 85 c 128,-1,20
 854 41 854 41 868 0 c 1,21,-1
 655 0 l 1,22,23
 641 34 641 34 637 68 c 128,-1,24
 633 102 633 102 633 141 c 1,25,26
 594 58 594 58 526.5 15.5 c 128,-1,27
 459 -27 459 -27 381 -27 c 0,0,1
EndSplineSet
EndChar

StartChar: r.serif
Encoding: 65540 -1 469
Width: 922
VWidth: 2424
GlyphClass: 1
Flags: HW
LayerCount: 2
Fore
SplineSet
90 0 m 1,0,-1
 90 206 l 1,1,-1
 210 206 l 1,2,-1
 210 919 l 1,3,-1
 95 919 l 1,4,-1
 95 1127 l 1,5,-1
 450 1127 l 1,6,-1
 450 953 l 1,7,8
 495 1050 495 1050 570.5 1102 c 128,-1,9
 646 1154 646 1154 730 1154 c 0,10,11
 797 1154 797 1154 863 1124 c 128,-1,12
 929 1094 929 1094 980 1032 c 1,13,-1
 897 800 l 1,14,15
 877 802 877 802 867.5 822 c 128,-1,16
 858 842 858 842 842.5 867.5 c 128,-1,17
 827 893 827 893 794 910.5 c 128,-1,18
 761 928 761 928 698 928 c 0,19,20
 637 928 637 928 579.5 886 c 128,-1,21
 522 844 522 844 483 769 c 128,-1,22
 444 694 444 694 444 592 c 2,23,-1
 444 206 l 1,24,-1
 614 206 l 1,25,-1
 614 0 l 1,26,-1
 90 0 l 1,0,-1
EndSplineSet
EndChar

StartChar: ordfeminine
Encoding: 170 170 470
Width: 922
VWidth: 2424
GlyphClass: 1
Flags: HW
LayerCount: 2
Fore
SplineSet
148 534 m 1,0,-1
 946 534 l 1,1,-1
 946 330 l 1,2,-1
 148 330 l 1,3,-1
 148 534 l 1,0,-1
405 907 m 0,4,5
 405 854 405 854 433 826 c 128,-1,6
 461 798 461 798 502 798 c 0,7,8
 577 798 577 798 617 853.5 c 128,-1,9
 657 909 657 909 662 1041 c 1,10,11
 650 1041 650 1041 637.5 1041 c 128,-1,12
 625 1041 625 1041 616 1041 c 0,13,14
 495 1041 495 1041 450 1003 c 128,-1,15
 405 965 405 965 405 907 c 0,4,5
456 625 m 0,16,17
 333 625 333 625 265 695.5 c 128,-1,18
 197 766 197 766 197 875 c 0,19,20
 197 1023 197 1023 303.5 1111.5 c 128,-1,21
 410 1200 410 1200 618 1200 c 0,22,23
 635 1200 635 1200 659 1198 c 1,24,25
 650 1305 650 1305 614.5 1337.5 c 128,-1,26
 579 1370 579 1370 519 1370 c 0,27,28
 468 1370 468 1370 427 1352.5 c 128,-1,29
 386 1335 386 1335 342 1287 c 1,30,-1
 228 1416 l 1,31,32
 291 1479 291 1479 368.5 1509 c 128,-1,33
 446 1539 446 1539 534 1539 c 0,34,35
 631 1539 631 1539 707.5 1506.5 c 128,-1,36
 784 1474 784 1474 827 1388 c 128,-1,37
 870 1302 870 1302 870 1145 c 2,38,-1
 870 648 l 1,39,-1
 659 648 l 1,40,-1
 659 727 l 1,41,42
 620 671 620 671 571.5 648 c 128,-1,43
 523 625 523 625 456 625 c 0,16,17
EndSplineSet
EndChar

StartChar: ordmasculine
Encoding: 186 186 471
Width: 922
VWidth: 2424
GlyphClass: 1
Flags: HW
LayerCount: 2
Fore
SplineSet
148 534 m 1,0,-1
 946 534 l 1,1,-1
 946 330 l 1,2,-1
 148 330 l 1,3,-1
 148 534 l 1,0,-1
546 805 m 128,-1,5
 616 805 616 805 657 878 c 128,-1,6
 698 951 698 951 698 1081 c 0,7,8
 698 1222 698 1222 655.5 1292.5 c 128,-1,9
 613 1363 613 1363 546 1363 c 128,-1,10
 479 1363 479 1363 436 1292.5 c 128,-1,11
 393 1222 393 1222 393 1081 c 0,12,13
 393 950 393 950 434.5 877.5 c 128,-1,4
 476 805 476 805 546 805 c 128,-1,5
546 627 m 0,14,15
 391 627 391 627 288 744 c 128,-1,16
 185 861 185 861 185 1081 c 0,17,18
 185 1299 185 1299 289 1419 c 128,-1,19
 393 1539 393 1539 546 1539 c 128,-1,20
 699 1539 699 1539 803 1419.5 c 128,-1,21
 907 1300 907 1300 907 1081 c 0,22,23
 907 861 907 861 803 744 c 128,-1,24
 699 627 699 627 546 627 c 0,14,15
EndSplineSet
EndChar

StartChar: uni2124
Encoding: 8484 8484 473
Width: 922
VWidth: 2424
GlyphClass: 1
Flags: HW
LayerCount: 2
Fore
SplineSet
838 1335 m 1,0,-1
 723 1335 l 1,1,-1
 264 172 l 1,2,-1
 382 172 l 1,3,-1
 838 1335 l 1,0,-1
997 1511 m 1,4,-1
 997 1348 l 1,5,-1
 530 172 l 1,6,-1
 885 172 l 2,7,8
 923 172 923 172 941 177 c 128,-1,9
 959 182 959 182 974 197 c 1,10,-1
 995 197 l 1,11,-1
 995 0 l 1,12,-1
 107 0 l 1,13,-1
 107 162 l 1,14,-1
 570 1335 l 1,15,-1
 112 1335 l 1,16,-1
 112 1511 l 1,17,-1
 997 1511 l 1,4,-1
EndSplineSet
EndChar

StartChar: zero
Encoding: 48 48 474
Width: 922
VWidth: 2424
GlyphClass: 1
Flags: HW
LayerCount: 2
Fore
SplineSet
523 178 m 0,0,1
 739 178 739 178 739 747 c 0,2,3
 739 837 739 837 734 912 c 1,4,-1
 342 378 l 1,5,6
 395 178 395 178 523 178 c 0,0,1
304 747 m 0,7,8
 304 652 304 652 311 572 c 1,9,-1
 702 1113 l 1,10,11
 649.258536585 1316.00487805 649.258536585 1316.00487805 524.227531231 1316.00487805 c 0,0,0
 523.614634146 1316.00487805 523.614634146 1316.00487805 523 1316 c 0,12,13
 416 1316 416 1316 360 1167 c 128,-1,14
 304 1018 304 1018 304 747 c 0,7,8
523 -27 m 128,-1,16
 319 -27 319 -27 198 167 c 128,-1,17
 77 361 77 361 77 747 c 0,18,19
 77 1125 77 1125 198 1327 c 128,-1,20
 319 1529 319 1529 523 1529 c 128,-1,21
 727 1529 727 1529 847 1327 c 128,-1,22
 967 1125 967 1125 967 747 c 0,23,24
 967 361 967 361 847 167 c 128,-1,15
 727 -27 727 -27 523 -27 c 128,-1,16
EndSplineSet
Substitution2: "'ss02' Style Set 2 in Latin lookup 36 subtable" zero.ss02
Substitution2: "'zero' Slashed Zero in Latin lookup 33 subtable" zero.zero
Substitution2: "'frac' Diagonal Fractions in Latin lookup 24 subtable" zero.numr
Substitution2: "'dnom' Denominators in Latin lookup 22 subtable" zero.dnom
Substitution2: "'numr' Numerators in Latin lookup 21 subtable" zero.numr
Substitution2: "'sups' Superscript in Latin lookup 20 subtable" uni2070
Substitution2: "'subs' Subscript in Latin lookup 19 subtable" uni2080
AlternateSubs2: "'aalt' Access All Alternates in Latin lookup 1 subtable" zero.zero zero.ss02 uni2080 zero.dnom zero.numr uni2070
EndChar

StartChar: one
Encoding: 49 49 475
Width: 922
VWidth: 2424
GlyphClass: 1
Flags: HW
LayerCount: 2
Fore
SplineSet
451 0 m 1,0,-1
 451 1215 l 1,1,-1
 206 1120 l 1,2,-1
 153 1300 l 1,3,-1
 519 1513 l 1,4,-1
 703 1513 l 1,5,-1
 703 0 l 1,6,-1
 451 0 l 1,0,-1
EndSplineSet
Substitution2: "'frac' Diagonal Fractions in Latin lookup 24 subtable" one.numr
Substitution2: "'dnom' Denominators in Latin lookup 22 subtable" one.dnom
Substitution2: "'numr' Numerators in Latin lookup 21 subtable" one.numr
Substitution2: "'sups' Superscript in Latin lookup 20 subtable" uni00B9
Substitution2: "'subs' Subscript in Latin lookup 19 subtable" uni2081
AlternateSubs2: "'aalt' Access All Alternates in Latin lookup 1 subtable" uni2081 one.dnom one.numr uni00B9
EndChar

StartChar: two
Encoding: 50 50 476
Width: 922
VWidth: 2424
GlyphClass: 1
Flags: HW
LayerCount: 2
Fore
SplineSet
125 192 m 1,0,1
 280 364 280 364 393.5 490 c 128,-1,2
 507 616 507 616 582 715 c 128,-1,3
 657 814 657 814 693 905.5 c 128,-1,4
 729 997 729 997 732 1096 c 0,5,6
 732 1309 732 1309 548 1309 c 0,7,8
 481 1309 481 1309 427 1285 c 128,-1,9
 373 1261 373 1261 330 1205 c 1,10,11
 309 1171 309 1171 303.5 1154.5 c 128,-1,12
 298 1138 298 1138 301 1118 c 1,13,-1
 289 1101 l 1,14,-1
 269 1113 l 1,15,-1
 92 1236 l 1,16,17
 164 1377 164 1377 283 1453 c 128,-1,18
 402 1529 402 1529 550 1529 c 0,19,20
 671 1529 671 1529 767 1477 c 128,-1,21
 863 1425 863 1425 918.5 1327 c 128,-1,22
 974 1229 974 1229 974 1094 c 0,23,24
 974 939 974 939 909 806.5 c 128,-1,25
 844 674 844 674 727.5 534.5 c 128,-1,26
 611 395 611 395 456 218 c 1,27,-1
 868 218 l 2,28,29
 907 218 907 218 925.5 221.5 c 128,-1,30
 944 225 944 225 958 240 c 1,31,-1
 979 240 l 1,32,-1
 979 0 l 1,33,-1
 125 0 l 1,34,-1
 125 192 l 1,0,1
EndSplineSet
Substitution2: "'frac' Diagonal Fractions in Latin lookup 24 subtable" two.numr
Substitution2: "'dnom' Denominators in Latin lookup 22 subtable" two.dnom
Substitution2: "'numr' Numerators in Latin lookup 21 subtable" two.numr
Substitution2: "'sups' Superscript in Latin lookup 20 subtable" uni00B2
Substitution2: "'subs' Subscript in Latin lookup 19 subtable" uni2082
AlternateSubs2: "'aalt' Access All Alternates in Latin lookup 1 subtable" uni2082 two.dnom two.numr uni00B2
EndChar

StartChar: three
Encoding: 51 51 477
Width: 922
VWidth: 2424
GlyphClass: 1
Flags: HW
LayerCount: 2
Fore
SplineSet
514 -27 m 0,0,1
 391 -27 391 -27 278 19 c 128,-1,2
 165 65 165 65 95 157 c 1,3,-1
 231 335 l 1,4,-1
 245 352 l 1,5,-1
 262 340 l 1,6,7
 264 321 264 321 270 302.5 c 128,-1,8
 276 284 276 284 303 255 c 1,9,10
 342 221 342 221 390.5 201.5 c 128,-1,11
 439 182 439 182 502 182 c 0,12,13
 601 182 601 182 657 247.5 c 128,-1,14
 713 313 713 313 713 426 c 0,15,16
 713 581 713 581 624.5 641 c 128,-1,17
 560.524096386 684.373493976 560.524096386 684.373493976 450.300551604 684.373493976 c 0,0,0
 408.048192771 684.373493976 408.048192771 684.373493976 359 678 c 1,18,-1
 359 885 l 1,19,20
 366.701492537 884.880597015 366.701492537 884.880597015 374.190911116 884.880597015 c 0,0,0
 492.149253731 884.880597015 492.149253731 884.880597015 557.5 914.5 c 128,-1,21
 627 946 627 946 654 1001.5 c 128,-1,22
 681 1057 681 1057 681 1122 c 0,23,24
 681 1212 681 1212 634 1264 c 128,-1,25
 587 1316 587 1316 507 1316 c 0,26,27
 444 1316 444 1316 384 1288.5 c 128,-1,28
 324 1261 324 1261 279 1203 c 1,29,-1
 125 1344 l 1,30,31
 203 1443 203 1443 307.5 1486 c 128,-1,32
 412 1529 412 1529 516 1529 c 0,33,34
 696 1529 696 1529 811 1424 c 128,-1,35
 926 1319 926 1319 926 1145 c 0,36,37
 926 1020 926 1020 864.5 931 c 128,-1,38
 803 842 803 842 715 803 c 1,39,40
 814 764 814 764 889.5 670.5 c 128,-1,41
 965 577 965 577 965 419 c 0,42,43
 965 288 965 288 910.5 188 c 128,-1,44
 856 88 856 88 754.5 30.5 c 128,-1,45
 653 -27 653 -27 514 -27 c 0,0,1
EndSplineSet
Substitution2: "'frac' Diagonal Fractions in Latin lookup 24 subtable" three.numr
Substitution2: "'dnom' Denominators in Latin lookup 22 subtable" three.dnom
Substitution2: "'numr' Numerators in Latin lookup 21 subtable" three.numr
Substitution2: "'sups' Superscript in Latin lookup 20 subtable" uni00B3
Substitution2: "'subs' Subscript in Latin lookup 19 subtable" uni2083
AlternateSubs2: "'aalt' Access All Alternates in Latin lookup 1 subtable" uni2083 three.dnom three.numr uni00B3
EndChar

StartChar: four
Encoding: 52 52 478
Width: 922
VWidth: 2424
GlyphClass: 1
Flags: HW
LayerCount: 2
Fore
SplineSet
320 567 m 1,0,-1
 588 567 l 1,1,-1
 588 1060 l 1,2,-1
 320 567 l 1,0,-1
584 0 m 1,3,-1
 584 356 l 1,4,-1
 84 356 l 1,5,-1
 84 536 l 1,6,-1
 639 1513 l 1,7,-1
 813 1513 l 1,8,-1
 813 569 l 1,9,-1
 974 569 l 1,10,-1
 974 354 l 1,11,-1
 813 354 l 1,12,-1
 813 0 l 1,13,-1
 584 0 l 1,3,-1
EndSplineSet
Substitution2: "'frac' Diagonal Fractions in Latin lookup 24 subtable" four.numr
Substitution2: "'dnom' Denominators in Latin lookup 22 subtable" four.dnom
Substitution2: "'numr' Numerators in Latin lookup 21 subtable" four.numr
Substitution2: "'sups' Superscript in Latin lookup 20 subtable" uni2074
Substitution2: "'subs' Subscript in Latin lookup 19 subtable" uni2084
AlternateSubs2: "'aalt' Access All Alternates in Latin lookup 1 subtable" uni2084 four.dnom four.numr uni2074
EndChar

StartChar: five
Encoding: 53 53 479
Width: 922
VWidth: 2424
GlyphClass: 1
Flags: HW
LayerCount: 2
Fore
SplineSet
550 -27 m 0,0,1
 407 -27 407 -27 292.5 30.5 c 128,-1,2
 178 88 178 88 114 208 c 1,3,-1
 294 349 l 1,4,-1
 310 363 l 1,5,-1
 324 347 l 1,6,7
 322 328 322 328 328.5 312 c 128,-1,8
 335 296 335 296 359 264 c 1,9,10
 430.088607595 186.987341772 430.088607595 186.987341772 543.095497516 186.987341772 c 0,0,0
 544.544303797 186.987341772 544.544303797 186.987341772 546 187 c 0,11,12
 643 187 643 187 702 269.5 c 128,-1,13
 761 352 761 352 761 481 c 0,14,15
 761 622 761 622 703 705 c 128,-1,16
 645 788 645 788 543 788 c 0,17,18
 407 788 407 788 324 674 c 1,19,-1
 169 713 l 1,20,-1
 218 1511 l 1,21,-1
 943 1511 l 1,22,-1
 943 1297 l 1,23,-1
 434 1297 l 1,24,-1
 414 944 l 1,25,26
 453 971 453 971 505 985 c 128,-1,27
 557 999 557 999 606 999 c 0,28,29
 786 999 786 999 895 870.5 c 128,-1,30
 1004 742 1004 742 1004 495 c 128,-1,31
 1004 248 1004 248 876.5 110.5 c 128,-1,32
 749 -27 749 -27 550 -27 c 0,0,1
EndSplineSet
Substitution2: "'frac' Diagonal Fractions in Latin lookup 24 subtable" five.numr
Substitution2: "'dnom' Denominators in Latin lookup 22 subtable" five.dnom
Substitution2: "'numr' Numerators in Latin lookup 21 subtable" five.numr
Substitution2: "'sups' Superscript in Latin lookup 20 subtable" uni2075
Substitution2: "'subs' Subscript in Latin lookup 19 subtable" uni2085
AlternateSubs2: "'aalt' Access All Alternates in Latin lookup 1 subtable" uni2085 five.dnom five.numr uni2075
EndChar

StartChar: six
Encoding: 54 54 480
Width: 922
VWidth: 2424
GlyphClass: 1
Flags: HW
LayerCount: 2
Fore
SplineSet
572 187 m 0,0,1
 652 189 652 189 703 269 c 128,-1,2
 754 349 754 349 754 495 c 128,-1,3
 754 641 754 641 697 710.5 c 128,-1,4
 640 780 640 780 569 780 c 0,5,6
 504 780 504 780 454.5 737 c 128,-1,7
 405 694 405 694 368 623 c 1,8,9
 366.772727273 596.818181818 366.772727273 596.818181818 366.772727273 571.938016529 c 0,0,0
 366.772727273 414.363636364 366.772727273 414.363636364 416 309 c 128,-1,10
 473 187 473 187 572 187 c 0,0,1
567 -27 m 0,11,12
 347 -27 347 -27 230.5 164.5 c 128,-1,13
 114 356 114 356 114 691 c 0,14,15
 114 1101 114 1101 256 1316.5 c 128,-1,16
 398 1532 398 1532 625 1532 c 0,17,18
 717 1532 717 1532 808.5 1497 c 128,-1,19
 900 1462 900 1462 970 1382 c 1,20,-1
 831 1222 l 1,21,-1
 817 1203 l 1,22,-1
 803 1217 l 1,23,24
 801 1236 801 1236 789.5 1249.5 c 128,-1,25
 778 1263 778 1263 749 1287 c 1,26,27
 703 1314 703 1314 645 1314 c 0,28,29
 604 1314 604 1314 557.5 1297 c 128,-1,30
 511 1280 511 1280 470 1232.5 c 128,-1,31
 429 1185 429 1185 398.5 1097 c 128,-1,32
 368 1009 368 1009 361 865 c 1,33,34
 405 925 405 925 473 957.5 c 128,-1,35
 541 990 541 990 611 990 c 0,36,37
 773 990 773 990 881.5 866 c 128,-1,38
 990 742 990 742 990 497 c 0,39,40
 990 344 990 344 936 226.5 c 128,-1,41
 882 109 882 109 787 41 c 128,-1,42
 692 -27 692 -27 567 -27 c 0,11,12
EndSplineSet
Substitution2: "'frac' Diagonal Fractions in Latin lookup 24 subtable" six.numr
Substitution2: "'dnom' Denominators in Latin lookup 22 subtable" six.dnom
Substitution2: "'numr' Numerators in Latin lookup 21 subtable" six.numr
Substitution2: "'sups' Superscript in Latin lookup 20 subtable" uni2076
Substitution2: "'subs' Subscript in Latin lookup 19 subtable" uni2086
AlternateSubs2: "'aalt' Access All Alternates in Latin lookup 1 subtable" uni2086 six.dnom six.numr uni2076
EndChar

StartChar: seven
Encoding: 55 55 481
Width: 922
VWidth: 2424
GlyphClass: 1
Flags: HW
LayerCount: 2
Fore
SplineSet
269 0 m 1,0,1
 364 335 364 335 464.5 648.5 c 128,-1,2
 565 962 565 962 678 1284 c 1,3,-1
 143 1284 l 1,4,-1
 143 1511 l 1,5,-1
 967 1511 l 1,6,-1
 967 1365 l 1,7,8
 842 1028 842 1028 733.5 694.5 c 128,-1,9
 625 361 625 361 532 0 c 1,10,-1
 269 0 l 1,0,1
EndSplineSet
Substitution2: "'frac' Diagonal Fractions in Latin lookup 24 subtable" seven.numr
Substitution2: "'dnom' Denominators in Latin lookup 22 subtable" seven.dnom
Substitution2: "'numr' Numerators in Latin lookup 21 subtable" seven.numr
Substitution2: "'sups' Superscript in Latin lookup 20 subtable" uni2077
Substitution2: "'subs' Subscript in Latin lookup 19 subtable" uni2087
AlternateSubs2: "'aalt' Access All Alternates in Latin lookup 1 subtable" uni2087 seven.dnom seven.numr uni2077
EndChar

StartChar: eight
Encoding: 56 56 482
Width: 922
VWidth: 2424
GlyphClass: 1
Flags: HW
LayerCount: 2
Fore
SplineSet
542 192 m 0,0,1
 638 192 638 192 687.5 250 c 128,-1,2
 737 308 737 308 737 407 c 0,3,4
 737 509 737 509 673.5 583 c 128,-1,5
 610 657 610 657 503 701 c 1,6,7
 430 655 430 655 384.5 584.5 c 128,-1,8
 339 514 339 514 339 414 c 0,9,10
 339 312 339 312 394 252 c 128,-1,11
 449 192 449 192 542 192 c 0,0,1
580 888 m 1,12,13
 639 934 639 934 670 1002.5 c 128,-1,14
 701 1071 701 1071 701 1147 c 0,15,16
 701 1219 701 1219 659 1269 c 128,-1,17
 617 1319 617 1319 544 1319 c 0,18,19
 467 1319 467 1319 429 1270.5 c 128,-1,20
 391 1222 391 1222 391 1152 c 0,21,22
 391 1060 391 1060 444.5 997 c 128,-1,23
 498 934 498 934 580 888 c 1,12,13
537 -27 m 0,24,25
 401 -27 401 -27 302 26.5 c 128,-1,26
 203 80 203 80 148 173 c 128,-1,27
 93 266 93 266 93 386 c 0,28,29
 93 534 93 534 162.5 638 c 128,-1,30
 232 742 232 742 346 807 c 1,31,32
 260 865 260 865 208.5 955 c 128,-1,33
 157 1045 157 1045 157 1149 c 0,34,35
 157 1314 157 1314 262 1424 c 128,-1,36
 367 1534 367 1534 549 1534 c 0,37,38
 738 1534 738 1534 838 1427.5 c 128,-1,39
 938 1321 938 1321 938 1164 c 0,40,41
 938 1046 938 1046 890 952 c 128,-1,42
 842 858 842 858 756 798 c 1,43,44
 983 667 983 667 983 395 c 0,45,46
 983 208 983 208 861.5 90.5 c 128,-1,47
 740 -27 740 -27 537 -27 c 0,24,25
EndSplineSet
Substitution2: "'frac' Diagonal Fractions in Latin lookup 24 subtable" eight.numr
Substitution2: "'dnom' Denominators in Latin lookup 22 subtable" eight.dnom
Substitution2: "'numr' Numerators in Latin lookup 21 subtable" eight.numr
Substitution2: "'sups' Superscript in Latin lookup 20 subtable" uni2078
Substitution2: "'subs' Subscript in Latin lookup 19 subtable" uni2088
AlternateSubs2: "'aalt' Access All Alternates in Latin lookup 1 subtable" uni2088 eight.dnom eight.numr uni2078
EndChar

StartChar: nine
Encoding: 57 57 483
Width: 922
VWidth: 2424
GlyphClass: 1
Flags: HW
LayerCount: 2
Fore
SplineSet
342 1013 m 0,0,1
 342 884 342 884 399 818 c 128,-1,2
 456 752 456 752 541 752 c 0,3,4
 604 752 604 752 655 770 c 128,-1,5
 706 788 706 788 745 835 c 1,6,7
 743 1104 743 1104 691.5 1211.5 c 128,-1,8
 640 1319 640 1319 539 1319 c 0,9,10
 449 1319 449 1319 395.5 1240 c 128,-1,11
 342 1161 342 1161 342 1013 c 0,0,1
490 -27 m 0,12,13
 383 -27 383 -27 287.5 5 c 128,-1,14
 192 37 192 37 116 111 c 1,15,-1
 245 301 l 1,16,-1
 257 320 l 1,17,-1
 276 308 l 1,18,19
 278 289 278 289 287 272 c 128,-1,20
 296 255 296 255 327 231 c 0,21,22
 392 190 392 190 477 189 c 0,23,24
 586 189 586 189 651.5 305 c 128,-1,25
 717 421 717 421 738 606 c 1,26,27
 646 541 646 541 521 541 c 0,28,29
 405 541 405 541 310 599 c 128,-1,30
 215 657 215 657 159.5 764.5 c 128,-1,31
 104 872 104 872 104 1020 c 0,32,33
 104 1170 104 1170 162 1286 c 128,-1,34
 220 1402 220 1402 320.5 1465.5 c 128,-1,35
 421 1529 421 1529 546 1529 c 0,36,37
 761 1529 761 1529 870 1353.5 c 128,-1,38
 979 1178 979 1178 979 842 c 0,39,40
 979 408 979 408 853.5 191.5 c 128,-1,41
 728 -25 728 -25 490 -27 c 0,12,13
EndSplineSet
Substitution2: "'frac' Diagonal Fractions in Latin lookup 24 subtable" nine.numr
Substitution2: "'dnom' Denominators in Latin lookup 22 subtable" nine.dnom
Substitution2: "'numr' Numerators in Latin lookup 21 subtable" nine.numr
Substitution2: "'sups' Superscript in Latin lookup 20 subtable" uni2079
Substitution2: "'subs' Subscript in Latin lookup 19 subtable" uni2089
AlternateSubs2: "'aalt' Access All Alternates in Latin lookup 1 subtable" uni2089 nine.dnom nine.numr uni2079
EndChar

StartChar: zero.zero
Encoding: 65541 -1 484
Width: 922
VWidth: 2424
GlyphClass: 1
Flags: HW
LayerCount: 2
Fore
SplineSet
523 618 m 128,-1,1
 465 618 465 618 424.5 660.5 c 128,-1,2
 384 703 384 703 384 766 c 0,3,4
 384 824 384 824 426 866.5 c 128,-1,5
 468 909 468 909 523 909 c 0,6,7
 581 909 581 909 623 866.5 c 128,-1,8
 665 824 665 824 665 766 c 0,9,10
 665 706 665 706 623 662 c 128,-1,0
 581 618 581 618 523 618 c 128,-1,1
523 178 m 0,11,12
 739 178 739 178 739 747 c 0,13,14
 739 1018 739 1018 685.5 1167 c 128,-1,15
 632 1316 632 1316 523 1316 c 0,16,17
 416 1316 416 1316 360 1167 c 128,-1,18
 304 1018 304 1018 304 747 c 0,19,20
 304 178 304 178 523 178 c 0,11,12
523 -27 m 128,-1,22
 319 -27 319 -27 198 167 c 128,-1,23
 77 361 77 361 77 747 c 0,24,25
 77 1125 77 1125 198 1327 c 128,-1,26
 319 1529 319 1529 523 1529 c 128,-1,27
 727 1529 727 1529 847 1327 c 128,-1,28
 967 1125 967 1125 967 747 c 0,29,30
 967 361 967 361 847 167 c 128,-1,21
 727 -27 727 -27 523 -27 c 128,-1,22
EndSplineSet
EndChar

StartChar: zero.ss02
Encoding: 65542 -1 485
Width: 922
VWidth: 2424
GlyphClass: 1
Flags: HW
LayerCount: 2
Fore
SplineSet
523 178 m 0,0,1
 739 178 739 178 739 747 c 0,2,3
 739 1018 739 1018 685.5 1167 c 128,-1,4
 632 1316 632 1316 523 1316 c 0,5,6
 416 1316 416 1316 360 1167 c 128,-1,7
 304 1018 304 1018 304 747 c 0,8,9
 304 178 304 178 523 178 c 0,0,1
523 -27 m 128,-1,11
 319 -27 319 -27 198 167 c 128,-1,12
 77 361 77 361 77 747 c 0,13,14
 77 1125 77 1125 198 1327 c 128,-1,15
 319 1529 319 1529 523 1529 c 128,-1,16
 727 1529 727 1529 847 1327 c 128,-1,17
 967 1125 967 1125 967 747 c 0,18,19
 967 361 967 361 847 167 c 128,-1,10
 727 -27 727 -27 523 -27 c 128,-1,11
EndSplineSet
EndChar

StartChar: uni2070
Encoding: 8304 8304 516
Width: 922
VWidth: 2424
GlyphClass: 1
Flags: HW
LayerCount: 2
Fore
SplineSet
546 722 m 0,0,1
 698.006493506 722 698.006493506 722 698.006493506 1055.62464159 c 0,2,3
 698.006493506 1110.86688312 698.006493506 1110.86688312 696 1152 c 1,4,-1
 419 837 l 1,5,6
 458 722 458 722 546 722 c 0,0,1
393 1060 m 0,7,8
 393 1009 393 1009 395 967 c 1,9,-1
 669 1287 l 1,10,11
 632 1396 632 1396 546 1397 c 0,12,13
 471 1397 471 1397 432 1309.5 c 128,-1,14
 393 1222 393 1222 393 1060 c 0,7,8
546 579 m 128,-1,16
 400 579 400 579 312.5 700.5 c 128,-1,17
 225 822 225 822 225 1060 c 0,18,19
 225 1296 225 1296 312.5 1421.5 c 128,-1,20
 400 1547 400 1547 546 1547 c 128,-1,21
 692 1547 692 1547 778.5 1421 c 128,-1,22
 865 1295 865 1295 865 1060 c 0,23,24
 865 822 865 822 778.5 700.5 c 128,-1,15
 692 579 692 579 546 579 c 128,-1,16
EndSplineSet
Substitution2: "'ss02' Style Set 2 in Latin lookup 36 subtable" uni2070.ss02
Substitution2: "'zero' Slashed Zero in Latin lookup 33 subtable" uni2070.zero
AlternateSubs2: "'aalt' Access All Alternates in Latin lookup 1 subtable" uni2070.ss02 uni2070.zero
EndChar

StartChar: uni00B9
Encoding: 185 185 517
Width: 922
VWidth: 2424
GlyphClass: 1
Flags: HW
LayerCount: 2
Fore
SplineSet
475 597 m 1,0,-1
 475 1331 l 1,1,-1
 315 1270 l 1,2,-1
 276 1399 l 1,3,-1
 521 1534 l 1,4,-1
 657 1534 l 1,5,-1
 657 597 l 1,6,-1
 475 597 l 1,0,-1
EndSplineSet
EndChar

StartChar: uni00B2
Encoding: 178 178 518
Width: 922
VWidth: 2424
GlyphClass: 1
Flags: HW
LayerCount: 2
Fore
SplineSet
255 727 m 1,0,1
 398 870 398 870 488.5 961 c 128,-1,2
 579 1052 579 1052 622.5 1122.5 c 128,-1,3
 666 1193 666 1193 669 1273 c 0,4,5
 669 1391 669 1391 546 1392 c 0,6,7
 476 1392 476 1392 429 1360 c 1,8,9
 402 1330 402 1330 395 1313.5 c 128,-1,10
 388 1297 388 1297 388 1277 c 1,11,-1
 373 1263 l 1,12,-1
 356 1277 l 1,13,-1
 233 1365 l 1,14,15
 337 1547 337 1547 548 1547 c 0,16,17
 671 1547 671 1547 756.5 1474.5 c 128,-1,18
 842 1402 842 1402 842 1275 c 0,19,20
 842 1180 842 1180 801.5 1101.5 c 128,-1,21
 761 1023 761 1023 687 940.5 c 128,-1,22
 613 858 613 858 509 749 c 1,23,-1
 732 749 l 2,24,25
 773 749 773 749 790 754 c 128,-1,26
 807 759 807 759 822 771 c 1,27,-1
 844 771 l 1,28,-1
 844 597 l 1,29,-1
 255 597 l 1,30,-1
 255 727 l 1,0,1
EndSplineSet
EndChar

StartChar: uni00B3
Encoding: 179 179 519
Width: 922
VWidth: 2424
GlyphClass: 1
Flags: HW
LayerCount: 2
Fore
SplineSet
523 579 m 0,0,1
 435 579 435 579 357 608.5 c 128,-1,2
 279 638 279 638 233 696 c 1,3,-1
 324 814 l 1,4,-1
 342 835 l 1,5,-1
 359 819 l 1,6,7
 359 800 359 800 370 785.5 c 128,-1,8
 381 771 381 771 410 747 c 1,9,10
 459 726 459 726 514 724 c 0,11,12
 581 724 581 724 619 761 c 128,-1,13
 657 798 657 798 657 863 c 0,14,15
 657 955 657 955 596.5 987.5 c 0,16,17
 551.298850575 1011.7816092 551.298850575 1011.7816092 473.443123266 1011.7816092 c 0,18,19
 447.091954023 1011.7816092 447.091954023 1011.7816092 417 1009 c 1,20,-1
 417 1154 l 1,21,22
 431.827586207 1153.42528736 431.827586207 1153.42528736 445.525564804 1153.42528736 c 0,23,24
 551 1153.42528736 551 1153.42528736 589.5 1187.5 c 0,25,26
 633 1226 633 1226 633 1284 c 0,27,28
 633 1335 633 1335 602.5 1366 c 128,-1,29
 572 1397 572 1397 519 1397 c 0,30,31
 422 1397 422 1397 361 1326 c 1,32,-1
 252 1428 l 1,33,34
 305 1491 305 1491 378 1519 c 128,-1,35
 451 1547 451 1547 523 1547 c 0,36,37
 646 1547 646 1547 728 1481.5 c 128,-1,38
 810 1416 810 1416 810 1307 c 0,39,40
 810 1227 810 1227 768.5 1172.5 c 128,-1,41
 727 1118 727 1118 671 1096 c 1,42,43
 734 1072 734 1072 785.5 1015 c 128,-1,44
 837 958 837 958 837 858 c 0,45,46
 837 735 837 735 753 657 c 128,-1,47
 669 579 669 579 523 579 c 0,0,1
EndSplineSet
EndChar

StartChar: uni2074
Encoding: 8308 8308 520
Width: 922
VWidth: 2424
GlyphClass: 1
Flags: HW
LayerCount: 2
Fore
SplineSet
417 960 m 1,0,-1
 597 960 l 1,1,-1
 597 1231 l 1,2,-1
 417 960 l 1,0,-1
594 597 m 1,3,-1
 594 812 l 1,4,-1
 231 812 l 1,5,-1
 231 933 l 1,6,-1
 636 1534 l 1,7,-1
 766 1534 l 1,8,-1
 766 962 l 1,9,-1
 885 962 l 1,10,-1
 885 810 l 1,11,-1
 766 810 l 1,12,-1
 766 597 l 1,13,-1
 594 597 l 1,3,-1
EndSplineSet
EndChar

StartChar: uni2075
Encoding: 8309 8309 521
Width: 922
VWidth: 2424
GlyphClass: 1
Flags: HW
LayerCount: 2
Fore
SplineSet
548 579 m 0,0,1
 449 579 449 579 370 614.5 c 128,-1,2
 291 650 291 650 250 727 c 1,3,-1
 373 826 l 1,4,-1
 391 842 l 1,5,-1
 402 824 l 1,6,7
 402 805 402 805 413 791.5 c 128,-1,8
 424 778 424 778 451 752 c 1,9,10
 492 731 492 731 546 729 c 0,11,12
 609 729 609 729 650 775.5 c 128,-1,13
 691 822 691 822 691 895 c 0,14,15
 691 975 691 975 652 1023 c 128,-1,16
 613 1071 613 1071 543 1071 c 0,17,18
 451 1071 451 1071 398 1004 c 1,19,-1
 286 1032 l 1,20,-1
 320 1532 l 1,21,-1
 819 1532 l 1,22,-1
 819 1384 l 1,23,-1
 472 1384 l 1,24,-1
 461 1185 l 1,25,26
 488 1199 488 1199 524 1209 c 128,-1,27
 560 1219 560 1219 592 1219 c 0,28,29
 713 1219 713 1219 788 1141.5 c 128,-1,30
 863 1064 863 1064 863 907 c 0,31,32
 863 752 863 752 776 665.5 c 128,-1,33
 689 579 689 579 548 579 c 0,0,1
EndSplineSet
EndChar

StartChar: uni2076
Encoding: 8310 8310 522
Width: 922
VWidth: 2424
GlyphClass: 1
Flags: HW
LayerCount: 2
Fore
SplineSet
562 729 m 0,0,1
 615 729 615 729 649.5 776.5 c 128,-1,2
 684 824 684 824 684 907 c 128,-1,3
 684 990 684 990 646 1028.5 c 128,-1,4
 608 1067 608 1067 562 1067 c 0,5,6
 518 1067 518 1067 485.5 1043.5 c 128,-1,7
 453 1020 453 1020 426 979 c 1,8,9
 425.898734177 973.025316456 425.898734177 973.025316456 425.898734177 967.183944881 c 0,10,11
 425.898734177 857.658227848 425.898734177 857.658227848 461.5 795 c 0,12,13
 499 729 499 729 562 729 c 0,0,1
560 579 m 0,14,15
 407 579 407 579 327 699 c 128,-1,16
 247 819 247 819 247 1025 c 0,17,18
 247 1277 247 1277 345.5 1412 c 128,-1,19
 444 1547 444 1547 599 1547 c 0,20,21
 662 1547 662 1547 726.5 1525 c 128,-1,22
 791 1503 791 1503 839 1453 c 1,23,-1
 745 1344 l 1,24,-1
 729 1324 l 1,25,-1
 715 1338 l 1,26,27
 713 1357 713 1357 698.5 1364.5 c 128,-1,28
 684 1372 684 1372 650 1390 c 1,29,30
 636 1392 636 1392 613 1392 c 0,31,32
 576 1392 576 1392 535.5 1375 c 128,-1,33
 495 1358 495 1358 464.5 1304.5 c 128,-1,34
 434 1251 434 1251 424 1145 c 1,35,36
 454 1179 454 1179 500 1197 c 128,-1,37
 546 1215 546 1215 592 1215 c 0,38,39
 703 1215 703 1215 777 1139.5 c 128,-1,40
 851 1064 851 1064 851 909 c 0,41,42
 851 763 851 763 771 671 c 128,-1,43
 691 579 691 579 560 579 c 0,14,15
EndSplineSet
EndChar

StartChar: uni2077
Encoding: 8311 8311 523
Width: 922
VWidth: 2424
GlyphClass: 1
Flags: HW
LayerCount: 2
Fore
SplineSet
352 597 m 1,0,1
 417 801 417 801 486 989.5 c 128,-1,2
 555 1178 555 1178 633 1374 c 1,3,-1
 266 1374 l 1,4,-1
 266 1532 l 1,5,-1
 837 1532 l 1,6,-1
 837 1428 l 1,7,8
 752 1222 752 1222 678 1020.5 c 128,-1,9
 604 819 604 819 539 597 c 1,10,-1
 352 597 l 1,0,1
EndSplineSet
EndChar

StartChar: uni2078
Encoding: 8312 8312 524
Width: 922
VWidth: 2424
GlyphClass: 1
Flags: HW
LayerCount: 2
Fore
SplineSet
548 732 m 0,0,1
 681.007407407 732 681.007407407 732 681.007407407 852.199286694 c 0,2,3
 681.007407407 913.99292551 681.007407407 913.99292551 636.5 956.5 c 128,-1,4
 592 999 592 999 519 1023 c 1,5,6
 468 993 468 993 439 954.5 c 128,-1,7
 410 916 410 916 410 858 c 0,8,9
 410 798 410 798 447.5 765 c 128,-1,10
 485 732 485 732 548 732 c 0,0,1
574 1149 m 1,11,12
 615 1176 615 1176 636 1217 c 128,-1,13
 657 1258 657 1258 657 1300 c 0,14,15
 657 1341 657 1341 628 1369 c 128,-1,16
 599 1397 599 1397 550 1397 c 128,-1,17
 501 1397 501 1397 473.5 1370.5 c 128,-1,18
 446 1344 446 1344 446 1305 c 0,19,20
 446 1252 446 1252 483.5 1214 c 128,-1,21
 521 1176 521 1176 574 1149 c 1,11,12
546 579 m 128,-1,23
 405 579 405 579 320.5 651.5 c 128,-1,24
 236 724 236 724 236 837 c 0,25,26
 236 932 236 932 280 994.5 c 128,-1,27
 324 1057 324 1057 400 1099 c 1,28,29
 344 1136 344 1136 311.5 1189 c 128,-1,30
 279 1242 279 1242 279 1305 c 0,31,32
 279 1412 279 1412 354 1481 c 128,-1,33
 429 1550 429 1550 555 1550 c 0,34,35
 684 1550 684 1550 755 1483 c 128,-1,36
 826 1416 826 1416 826 1314 c 0,37,38
 826 1166 826 1166 713 1091 c 1,39,40
 858.006802721 1008.56462585 858.006802721 1008.56462585 858.006802721 846.227544079 c 0,41,42
 858.006802721 726.005847953 858.006802721 726.005847953 772.5 652.5 c 128,-1,22
 687 579 687 579 546 579 c 128,-1,23
EndSplineSet
EndChar

StartChar: uni2079
Encoding: 8313 8313 525
Width: 922
VWidth: 2424
GlyphClass: 1
Flags: HW
LayerCount: 2
Fore
SplineSet
407 1219 m 0,0,1
 409 1147 409 1147 447 1109 c 128,-1,2
 485 1071 485 1071 543 1071 c 0,3,4
 582 1071 582 1071 616 1081 c 128,-1,5
 650 1091 650 1091 676 1118 c 1,6,7
 674 1278 674 1278 640 1338.5 c 128,-1,8
 606 1399 606 1399 541 1399 c 0,9,10
 481 1399 481 1399 444 1353 c 128,-1,11
 407 1307 407 1307 407 1219 c 0,0,1
507 579 m 0,12,13
 435 579 435 579 366.5 598.5 c 128,-1,14
 298 618 298 618 245 666 c 1,15,-1
 337 798 l 1,16,-1
 352 817 l 1,17,-1
 368 805 l 1,18,19
 373 786 373 786 385.5 773.5 c 128,-1,20
 398 761 398 761 429 740 c 1,21,22
 461 731 461 731 500 729 c 0,23,24
 567 729 567 729 611 791.5 c 128,-1,25
 655 854 655 854 669 960 c 1,26,27
 609 923 609 923 526 923 c 0,28,29
 405 923 405 923 322.5 1003 c 128,-1,30
 240 1083 240 1083 240 1226 c 128,-1,31
 240 1369 240 1369 328.5 1458 c 128,-1,32
 417 1547 417 1547 546 1547 c 0,33,34
 844 1547 844 1547 844 1113 c 0,35,36
 844 847 844 847 758 713 c 128,-1,37
 672 579 672 579 507 579 c 0,12,13
EndSplineSet
EndChar

StartChar: fraction
Encoding: 8260 8260 526
Width: 922
VWidth: 2424
GlyphClass: 1
Flags: HW
LayerCount: 2
Fore
SplineSet
269 -104 m 1,0,-1
 125 -19 l 1,1,-1
 807 1627 l 1,2,-1
 951 1539 l 1,3,-1
 269 -104 l 1,0,-1
EndSplineSet
EndChar

StartChar: onehalf
Encoding: 189 189 527
Width: 922
VWidth: 2424
GlyphClass: 1
Flags: HW
LayerCount: 2
Fore
SplineSet
507 -169 m 1,0,-1
 507 -58 l 1,1,2
 602 56 602 56 662.5 126.5 c 128,-1,3
 723 197 723 197 751.5 250 c 128,-1,4
 780 303 780 303 780 366 c 0,5,6
 780 403 780 403 761.5 426 c 128,-1,7
 743 449 743 449 702 449 c 128,-1,8
 661 449 661 449 633 430.5 c 128,-1,9
 605 412 605 412 581 363 c 1,10,-1
 490 442 l 1,11,12
 525 507 525 507 580 544.5 c 128,-1,13
 635 582 635 582 704 582 c 0,14,15
 788 582 788 582 847 525 c 128,-1,16
 906 468 906 468 906 368 c 0,17,18
 906 293 906 293 882.5 233.5 c 128,-1,19
 859 174 859 174 811.5 111.5 c 128,-1,20
 764 49 764 49 694 -39 c 1,21,-1
 908 -39 l 1,22,-1
 908 -169 l 1,23,-1
 507 -169 l 1,0,-1
228 -104 m 1,24,-1
 107 -19 l 1,25,-1
 686 1627 l 1,26,-1
 808 1539 l 1,27,-1
 228 -104 l 1,24,-1
151 921 m 1,28,-1
 151 1488 l 1,29,-1
 47 1441 l 1,30,-1
 18 1557 l 1,31,-1
 185 1663 l 1,32,-1
 285 1663 l 1,33,-1
 285 921 l 1,34,-1
 151 921 l 1,28,-1
EndSplineSet
EndChar

StartChar: onequarter
Encoding: 188 188 528
Width: 922
VWidth: 2424
GlyphClass: 1
Flags: HW
LayerCount: 2
Fore
SplineSet
600 125 m 1,0,-1
 705 125 l 1,1,-1
 705 315 l 1,2,-1
 600 125 l 1,0,-1
700 -169 m 1,3,-1
 700 -2 l 1,4,-1
 467 -2 l 1,5,-1
 467 102 l 1,6,-1
 731 572 l 1,7,-1
 827 572 l 1,8,-1
 827 129 l 1,9,-1
 905 129 l 1,10,-1
 905 -2 l 1,11,-1
 827 -2 l 1,12,-1
 827 -169 l 1,13,-1
 700 -169 l 1,3,-1
224 -104 m 1,14,-1
 103 -19 l 1,15,-1
 680 1627 l 1,16,-1
 801 1539 l 1,17,-1
 224 -104 l 1,14,-1
147 921 m 1,18,-1
 147 1488 l 1,19,-1
 44 1441 l 1,20,-1
 15 1557 l 1,21,-1
 181 1663 l 1,22,-1
 280 1663 l 1,23,-1
 280 921 l 1,24,-1
 147 921 l 1,18,-1
EndSplineSet
EndChar

StartChar: threequarters
Encoding: 190 190 529
Width: 922
VWidth: 2424
GlyphClass: 1
Flags: HW
LayerCount: 2
Fore
SplineSet
681 125 m 1,0,-1
 681 315 l 1,1,-1
 580 125 l 1,2,-1
 681 125 l 1,0,-1
676 -2 m 1,3,-1
 451 -2 l 1,4,-1
 451 102 l 1,5,-1
 706 572 l 1,6,-1
 799 572 l 1,7,-1
 799 129 l 1,8,-1
 875 129 l 1,9,-1
 875 -2 l 1,10,-1
 799 -2 l 1,11,-1
 799 -169 l 1,12,-1
 676 -169 l 1,13,-1
 676 -2 l 1,3,-1
216 -104 m 1,14,-1
 99 -19 l 1,15,-1
 657 1627 l 1,16,-1
 774 1539 l 1,17,-1
 216 -104 l 1,14,-1
177 907 m 0,18,19
 120 907 120 907 67 930 c 128,-1,20
 14 953 14 953 -15 999 c 1,21,-1
 48 1103 l 1,22,-1
 61 1122 l 1,23,-1
 74 1110 l 1,24,25
 74 1093 74 1093 83 1080 c 128,-1,26
 92 1067 92 1067 116 1045 c 1,27,28
 138 1033 138 1033 171 1032 c 0,29,30
 256 1032 256 1032 256 1132 c 0,31,32
 256 1202 256 1202 220 1228 c 128,-1,33
 195.368421053 1245.78947368 195.368421053 1245.78947368 151.074792244 1245.78947368 c 0,0,0
 130.631578947 1245.78947368 130.631578947 1245.78947368 106 1242 c 1,34,-1
 106 1365 l 1,35,36
 111.491525424 1364.86440678 111.491525424 1364.86440678 116.744039069 1364.86440678 c 0,0,0
 188.966101695 1364.86440678 188.966101695 1364.86440678 216 1390.5 c 128,-1,37
 245 1418 245 1418 245 1460 c 0,38,39
 245 1545 245 1545 171 1545 c 0,40,41
 110 1545 110 1545 72 1488 c 1,42,-1
 -3 1578 l 1,43,44
 31 1627 31 1627 80 1650 c 128,-1,45
 129 1673 129 1673 177 1673 c 0,46,47
 258 1673 258 1673 313 1621 c 128,-1,48
 368 1569 368 1569 368 1481 c 0,49,50
 368 1418 368 1418 340 1375.5 c 128,-1,51
 312 1333 312 1333 280 1316 c 1,52,53
 318 1297 318 1297 351.5 1252 c 128,-1,54
 385 1207 385 1207 385 1127 c 0,55,56
 385 1030 385 1030 328.5 968.5 c 128,-1,57
 272 907 272 907 177 907 c 0,18,19
EndSplineSet
EndChar

StartChar: uni2070.ss02
Encoding: 65566 -1 533
Width: 922
VWidth: 2424
GlyphClass: 1
Flags: HW
LayerCount: 2
Fore
SplineSet
546 722 m 0,0,1
 698.006493506 722 698.006493506 722 698.006493506 1055.62464159 c 0,2,3
 698.006493506 1221.98484848 698.006493506 1221.98484848 660.5 1309.5 c 128,-1,4
 623 1397 623 1397 546 1397 c 0,5,6
 471 1397 471 1397 432 1309.5 c 128,-1,7
 393 1222 393 1222 393 1060 c 0,8,9
 393 722 393 722 546 722 c 0,0,1
546 579 m 128,-1,11
 400 579 400 579 312.5 700.5 c 128,-1,12
 225 822 225 822 225 1060 c 0,13,14
 225 1296 225 1296 312.5 1421.5 c 128,-1,15
 400 1547 400 1547 546 1547 c 128,-1,16
 692 1547 692 1547 778.5 1421 c 128,-1,17
 865 1295 865 1295 865 1060 c 0,18,19
 865 822 865 822 778.5 700.5 c 128,-1,10
 692 579 692 579 546 579 c 128,-1,11
EndSplineSet
EndChar

StartChar: uni2070.zero
Encoding: 65570 -1 537
Width: 922
VWidth: 2424
GlyphClass: 1
Flags: HW
LayerCount: 2
Fore
SplineSet
550 1006 m 128,-1,1
 516 1006 516 1006 492 1030.5 c 128,-1,2
 468 1055 468 1055 468 1089 c 128,-1,3
 468 1123 468 1123 492 1147 c 128,-1,4
 516 1171 516 1171 550 1171 c 128,-1,5
 584 1171 584 1171 610 1146.5 c 128,-1,6
 636 1122 636 1122 636 1089 c 0,7,8
 636 1055 636 1055 610 1030.5 c 128,-1,0
 584 1006 584 1006 550 1006 c 128,-1,1
546 722 m 0,9,10
 698.006493506 722 698.006493506 722 698.006493506 1055.62464159 c 0,11,12
 698.006493506 1221.98484848 698.006493506 1221.98484848 660.5 1309.5 c 128,-1,13
 623 1397 623 1397 546 1397 c 0,14,15
 471 1397 471 1397 432 1309.5 c 128,-1,16
 393 1222 393 1222 393 1060 c 0,17,18
 393 722 393 722 546 722 c 0,9,10
546 579 m 128,-1,20
 400 579 400 579 312.5 700.5 c 128,-1,21
 225 822 225 822 225 1060 c 0,22,23
 225 1296 225 1296 312.5 1421.5 c 128,-1,24
 400 1547 400 1547 546 1547 c 128,-1,25
 692 1547 692 1547 778.5 1421 c 128,-1,26
 865 1295 865 1295 865 1060 c 0,27,28
 865 822 865 822 778.5 700.5 c 128,-1,19
 692 579 692 579 546 579 c 128,-1,20
EndSplineSet
EndChar

StartChar: period
Encoding: 46 46 538
Width: 922
VWidth: 2590
GlyphClass: 1
Flags: HW
LayerCount: 2
Fore
SplineSet
523 136 m 0,0,1
 451 136 451 136 401.5 186 c 128,-1,2
 352 236 352 236 352 309 c 0,3,4
 352 379 352 379 401.5 429 c 128,-1,5
 451 479 451 479 523 479 c 0,6,7
 593 479 593 479 643.5 429 c 128,-1,8
 694 379 694 379 694 309 c 0,9,10
 694 237 694 237 643.5 186.5 c 128,-1,11
 593 136 593 136 523 136 c 0,0,1
EndSplineSet
EndChar

StartChar: comma
Encoding: 44 44 539
Width: 922
VWidth: 2590
GlyphClass: 1
Flags: HW
LayerCount: 2
Fore
SplineSet
470 -246 m 1,0,-1
 330 -132 l 1,1,2
 393 -69 393 -69 428 -6 c 128,-1,3
 463 57 463 57 463 101 c 0,4,5
 463 135 463 135 437.5 165.5 c 128,-1,6
 412 196 412 196 386.5 230.5 c 128,-1,7
 361 265 361 265 361 321 c 0,8,9
 361 396 361 396 412 438.5 c 128,-1,10
 463 481 463 481 534 481 c 0,11,12
 617 481 617 481 669.5 419.5 c 128,-1,13
 722 358 722 358 722 254 c 0,14,15
 722 25 722 25 470 -246 c 1,0,-1
EndSplineSet
EndChar

StartChar: colon
Encoding: 58 58 540
Width: 922
VWidth: 2699
GlyphClass: 1
Flags: HW
LayerCount: 2
Fore
SplineSet
514 245 m 128,-1,1
 442 245 442 245 393 296 c 128,-1,2
 344 347 344 347 344 416 c 0,3,4
 344 486 344 486 394 539 c 128,-1,5
 444 592 444 592 514 592 c 0,6,7
 579 592 579 592 633 540 c 128,-1,8
 687 488 687 488 687 416 c 0,9,10
 687 351 687 351 636.5 298 c 128,-1,0
 586 245 586 245 514 245 c 128,-1,1
514 990 m 0,11,12
 444 990 444 990 394 1042 c 128,-1,13
 344 1094 344 1094 344 1163 c 0,14,15
 344 1230 344 1230 394 1282.5 c 128,-1,16
 444 1335 444 1335 514 1335 c 0,17,18
 579 1335 579 1335 633 1285 c 128,-1,19
 687 1235 687 1235 687 1163 c 0,20,21
 687 1096 687 1096 636.5 1043 c 128,-1,22
 586 990 586 990 514 990 c 0,11,12
EndSplineSet
EndChar

StartChar: semicolon
Encoding: 59 59 541
Width: 922
VWidth: 2699
GlyphClass: 1
Flags: HW
LayerCount: 2
Fore
SplineSet
463 -137 m 1,0,-1
 322 -23 l 1,1,2
 385 40 385 40 420.5 103 c 128,-1,3
 456 166 456 166 456 210 c 0,4,5
 456 244 456 244 430.5 274.5 c 128,-1,6
 405 305 405 305 379.5 339.5 c 128,-1,7
 354 374 354 374 354 430 c 0,8,9
 354 505 354 505 405 547.5 c 128,-1,10
 456 590 456 590 526 590 c 0,11,12
 611 590 611 590 663 528.5 c 128,-1,13
 715 467 715 467 715 363 c 0,14,15
 715 134 715 134 463 -137 c 1,0,-1
514 990 m 0,16,17
 444 990 444 990 394 1042 c 128,-1,18
 344 1094 344 1094 344 1163 c 0,19,20
 344 1230 344 1230 394 1282.5 c 128,-1,21
 444 1335 444 1335 514 1335 c 0,22,23
 579 1335 579 1335 633 1285 c 128,-1,24
 687 1235 687 1235 687 1163 c 0,25,26
 687 1096 687 1096 636.5 1043 c 128,-1,27
 586 990 586 990 514 990 c 0,16,17
EndSplineSet
EndChar

StartChar: ellipsis
Encoding: 8230 8230 542
Width: 922
VWidth: 2424
GlyphClass: 1
Flags: HW
LayerCount: 2
Fore
SplineSet
143 -27 m 0,0,1
 90 -27 90 -27 53 18 c 128,-1,2
 16 63 16 63 16 125 c 0,3,4
 16 188 16 188 53 233.5 c 128,-1,5
 90 279 90 279 143 279 c 0,6,7
 194 279 194 279 232.5 234 c 128,-1,8
 271 189 271 189 271 125 c 0,9,10
 271 62 271 62 232.5 17.5 c 128,-1,11
 194 -27 194 -27 143 -27 c 0,0,1
460 -27 m 0,12,13
 407 -27 407 -27 370 18 c 128,-1,14
 333 63 333 63 333 125 c 0,15,16
 333 188 333 188 369.5 233.5 c 128,-1,17
 406 279 406 279 460 279 c 0,18,19
 511 279 511 279 549 234 c 128,-1,20
 587 189 587 189 587 125 c 0,21,22
 587 62 587 62 549 17.5 c 128,-1,23
 511 -27 511 -27 460 -27 c 0,12,13
781 -27 m 0,24,25
 728 -27 728 -27 690.5 18 c 128,-1,26
 653 63 653 63 653 125 c 0,27,28
 653 188 653 188 690 233.5 c 128,-1,29
 727 279 727 279 781 279 c 0,30,31
 832 279 832 279 869 234 c 128,-1,32
 906 189 906 189 906 125 c 0,33,34
 906 62 906 62 869 17.5 c 128,-1,35
 832 -27 832 -27 781 -27 c 0,24,25
EndSplineSet
EndChar

StartChar: exclam
Encoding: 33 33 543
Width: 922
VWidth: 2424
GlyphClass: 1
Flags: HW
LayerCount: 2
Fore
SplineSet
523 -27 m 0,0,1
 451 -27 451 -27 397.5 22.5 c 128,-1,2
 344 72 344 72 344 146 c 0,3,4
 344 213 344 213 397.5 265 c 128,-1,5
 451 317 451 317 523 317 c 0,6,7
 598 317 598 317 650.5 264 c 128,-1,8
 703 211 703 211 703 146 c 0,9,10
 703 76 703 76 648 24.5 c 128,-1,11
 593 -27 593 -27 523 -27 c 0,0,1
434 500 m 1,12,-1
 371 1421 l 2,13,14
 370.509803922 1431.19607843 370.509803922 1431.19607843 370.509803922 1440.85870819 c 0,15,16
 370.509803922 1529.75490196 370.509803922 1529.75490196 412 1573.5 c 0,17,18
 458 1622 458 1622 523 1622 c 128,-1,19
 588 1622 588 1622 636 1573.5 c 0,20,21
 678.666666667 1530.38888889 678.666666667 1530.38888889 678.666666667 1433.94444444 c 0,22,23
 678.666666667 1421.88888889 678.666666667 1421.88888889 678 1409 c 2,24,-1
 611 500 l 1,25,-1
 434 500 l 1,12,-1
EndSplineSet
EndChar

StartChar: question
Encoding: 63 63 545
Width: 922
VWidth: 2424
GlyphClass: 1
Flags: HW
LayerCount: 2
Fore
SplineSet
574 -30 m 128,-1,1
 504 -30 504 -30 454.5 20 c 128,-1,2
 405 70 405 70 405 143 c 0,3,4
 405 213 405 213 454.5 263 c 128,-1,5
 504 313 504 313 574 313 c 128,-1,6
 644 313 644 313 694.5 263 c 128,-1,7
 745 213 745 213 745 143 c 0,8,9
 745 71 745 71 694.5 20.5 c 128,-1,0
 644 -30 644 -30 574 -30 c 128,-1,1
461 594 m 2,10,11
 461 696 461 696 488.5 763.5 c 128,-1,12
 516 831 516 831 558.5 880.5 c 128,-1,13
 601 930 601 930 642.5 976.5 c 128,-1,14
 684 1023 684 1023 713 1078.5 c 128,-1,15
 742 1134 742 1134 742 1217 c 0,16,17
 742 1314 742 1314 686 1361.5 c 128,-1,18
 630 1409 630 1409 548 1409 c 0,19,20
 437 1409 437 1409 352 1326 c 1,21,22
 328 1294 328 1294 321.5 1277.5 c 128,-1,23
 315 1261 315 1261 317 1242 c 1,24,-1
 305 1224 l 1,25,-1
 286 1239 l 1,26,-1
 129 1358 l 1,27,28
 204 1481 204 1481 309 1550 c 128,-1,29
 414 1619 414 1619 567 1619 c 0,30,31
 754 1619 754 1619 864 1508 c 128,-1,32
 974 1397 974 1397 974 1222 c 0,33,34
 974 1113 974 1113 945 1041.5 c 128,-1,35
 916 970 916 970 872.5 920 c 128,-1,36
 829 870 829 870 784.5 825 c 128,-1,37
 740 780 740 780 710.5 727 c 128,-1,38
 681 674 681 674 681 594 c 2,39,-1
 681 477 l 1,40,-1
 461 477 l 1,41,-1
 461 594 l 2,10,11
EndSplineSet
EndChar

StartChar: periodcentered
Encoding: 183 183 547
Width: 922
VWidth: 2424
GlyphClass: 1
Flags: HW
LayerCount: 2
Fore
SplineSet
523 638 m 0,0,1
 451 638 451 638 401.5 688 c 128,-1,2
 352 738 352 738 352 810 c 0,3,4
 352 880 352 880 402.5 929.5 c 128,-1,5
 453 979 453 979 523 979 c 0,6,7
 590 979 590 979 642 929.5 c 128,-1,8
 694 880 694 880 694 810 c 0,9,10
 694 738 694 738 643.5 688 c 128,-1,11
 593 638 593 638 523 638 c 0,0,1
EndSplineSet
Substitution2: "Single Substitution lookup 11 subtable" periodcentered.loclCAT
Substitution2: "Single Substitution lookup 10 subtable" periodcentered.loclCAT
Substitution2: "'aalt' Access All Alternates in Latin lookup 0 subtable" periodcentered.loclCAT
EndChar

StartChar: bullet
Encoding: 8226 8226 548
Width: 922
VWidth: 2424
GlyphClass: 1
Flags: HW
LayerCount: 2
Fore
SplineSet
548 472 m 0,0,1
 444 472 444 472 372.5 545 c 128,-1,2
 301 618 301 618 301 717 c 0,3,4
 301 784 301 784 334.5 842 c 128,-1,5
 368 900 368 900 425.5 932.5 c 128,-1,6
 483 965 483 965 548 965 c 0,7,8
 647 965 647 965 721.5 892 c 128,-1,9
 796 819 796 819 796 717 c 0,10,11
 796 618 796 618 723 545 c 128,-1,12
 650 472 650 472 548 472 c 0,0,1
EndSplineSet
EndChar

StartChar: asterisk
Encoding: 42 42 549
Width: 922
VWidth: 2424
GlyphClass: 1
Flags: HW
LayerCount: 2
Fore
SplineSet
316 264 m 1,0,-1
 127 432 l 1,1,-1
 376 752 l 1,2,-1
 63 856 l 1,3,-1
 146 1101 l 1,4,-1
 424 928 l 1,5,-1
 381 1314 l 1,6,-1
 653 1314 l 1,7,-1
 597 928 l 1,8,-1
 870 1083 l 1,9,-1
 953 851 l 1,10,-1
 638 754 l 1,11,-1
 881 432 l 1,12,-1
 690 264 l 1,13,-1
 507 625 l 1,14,-1
 316 264 l 1,0,-1
EndSplineSet
Substitution2: "'ss01' Style Set 1 in Latin lookup 35 subtable" asterisk.ss01
Substitution2: "'salt' Stylistic Alternatives in Latin lookup 34 subtable" asterisk.ss01
Substitution2: "'aalt' Access All Alternates in Latin lookup 0 subtable" asterisk.ss01
EndChar

StartChar: uni2E12
Encoding: 11794 11794 550
Width: 922
VWidth: 2175
GlyphClass: 1
Flags: HW
LayerCount: 2
Fore
SplineSet
385 -246 m 1,0,-1
 385 -95 l 1,1,2
 444 -95 444 -95 479.5 -53 c 128,-1,3
 515 -11 515 -11 515 52 c 0,4,5
 515 114 515 114 480.5 158 c 128,-1,6
 446 202 446 202 385 202 c 1,7,-1
 385 349 l 1,8,9
 513 349 513 349 589.5 267 c 128,-1,10
 666 185 666 185 666 50 c 0,11,12
 666 -80 666 -80 590.5 -163 c 128,-1,13
 515 -246 515 -246 385 -246 c 1,0,-1
EndSplineSet
EndChar

StartChar: numbersign
Encoding: 35 35 551
Width: 922
VWidth: 2424
GlyphClass: 1
Flags: HW
LayerCount: 2
Fore
SplineSet
384 601 m 1,0,-1
 540 601 l 1,1,-1
 574 941 l 1,2,-1
 418 941 l 1,3,-1
 384 601 l 1,0,-1
487 21 m 1,4,-1
 527 419 l 1,5,-1
 369 419 l 1,6,-1
 332 32 l 1,7,-1
 157 30 l 1,8,-1
 194 417 l 1,9,-1
 32 417 l 1,10,-1
 40 597 l 1,11,-1
 211 597 l 1,12,-1
 243 939 l 1,13,-1
 59 939 l 1,14,-1
 65 1120 l 1,15,-1
 258 1120 l 1,16,-1
 294 1515 l 1,17,-1
 471 1518 l 1,18,-1
 433 1125 l 1,19,-1
 588 1125 l 1,20,-1
 624 1511 l 1,21,-1
 810 1513 l 1,22,-1
 773 1129 l 1,23,-1
 922 1129 l 1,24,-1
 908 946 l 1,25,-1
 757 946 l 1,26,-1
 723 608 l 1,27,-1
 886 608 l 1,28,-1
 876 426 l 1,29,-1
 711 426 l 1,30,-1
 671 34 l 1,31,-1
 487 21 l 1,4,-1
EndSplineSet
EndChar

StartChar: slash
Encoding: 47 47 552
Width: 922
VWidth: 2424
GlyphClass: 1
Flags: HW
LayerCount: 2
Fore
SplineSet
333 -104 m 1,0,-1
 99 -7 l 1,1,-1
 759 1615 l 1,2,-1
 989 1506 l 1,3,-1
 333 -104 l 1,0,-1
EndSplineSet
Substitution2: "'frac' Diagonal Fractions in Latin lookup 23 subtable" fraction
Substitution2: "'aalt' Access All Alternates in Latin lookup 0 subtable" fraction
EndChar

StartChar: backslash
Encoding: 92 92 553
Width: 922
VWidth: 2424
GlyphClass: 1
Flags: HW
LayerCount: 2
Fore
SplineSet
762 -107 m 1,0,-1
 101 1511 l 1,1,-1
 332 1615 l 1,2,-1
 991 -5 l 1,3,-1
 762 -107 l 1,0,-1
EndSplineSet
EndChar

StartChar: asterisk.ss01
Encoding: 65572 -1 555
Width: 922
VWidth: 2424
GlyphClass: 1
Flags: HW
LayerCount: 2
Fore
SplineSet
316 410 m 1,0,-1
 127 577 l 1,1,-1
 376 897 l 1,2,-1
 63 1002 l 1,3,-1
 146 1247 l 1,4,-1
 424 1074 l 1,5,-1
 381 1460 l 1,6,-1
 653 1460 l 1,7,-1
 597 1074 l 1,8,-1
 870 1229 l 1,9,-1
 953 997 l 1,10,-1
 638 900 l 1,11,-1
 881 577 l 1,12,-1
 690 410 l 1,13,-1
 507 771 l 1,14,-1
 316 410 l 1,0,-1
EndSplineSet
EndChar

StartChar: parenleft
Encoding: 40 40 556
Width: 922
VWidth: 2429
GlyphClass: 1
Flags: HW
LayerCount: 2
Fore
SplineSet
851 -246 m 1,0,1
 646 -147 646 -147 504 12.5 c 128,-1,2
 362 172 362 172 288.5 370.5 c 128,-1,3
 215 569 215 569 215 786 c 0,4,5
 215 1001 215 1001 287.5 1196 c 128,-1,6
 360 1391 360 1391 499.5 1546 c 128,-1,7
 639 1701 639 1701 840 1797 c 1,8,-1
 914 1584 l 1,9,10
 701 1459 701 1459 581.5 1256 c 128,-1,11
 462 1053 462 1053 462 779 c 0,12,13
 462 513 462 513 585 296.5 c 128,-1,14
 708 80 708 80 928 -43 c 1,15,-1
 851 -246 l 1,0,1
EndSplineSet
EndChar

StartChar: parenright
Encoding: 41 41 557
Width: 922
VWidth: 2429
GlyphClass: 1
Flags: HW
LayerCount: 2
Fore
SplineSet
293 -246 m 1
 498 -147 498 -147 640 13 c 0
 782 172 782 172 855 370 c 0
 928 568 928 568 928 786 c 0
 928 1001 928 1001 856 1196 c 0
 784 1391 784 1391 645 1545 c 0
 506 1700 506 1700 305 1797 c 1
 230 1584 l 1
 443 1459 443 1459 562 1256 c 0
 681 1053 681 1053 682 779 c 0
 682 513 682 513 559 297 c 0
 436 81 436 81 215 -43 c 1
 293 -246 l 1
EndSplineSet
EndChar

StartChar: braceleft
Encoding: 123 123 558
Width: 922
VWidth: 2469
GlyphClass: 1
Flags: HW
LayerCount: 2
Fore
SplineSet
803 -166 m 2,0,1
 648 -166 648 -166 534.5 -128.5 c 128,-1,2
 421 -91 421 -91 359.5 3.5 c 128,-1,3
 300.860465116 93.6046511628 300.860465116 93.6046511628 300.860465116 254.167658194 c 0,0,0
 300.860465116 262 300.860465116 262 301 270 c 2,4,-1
 310 494 l 1,5,6
 310 635 310 635 267.5 675.5 c 128,-1,7
 225 716 225 716 150 716 c 2,8,-1
 80 716 l 1,9,-1
 80 925 l 1,10,-1
 148 925 l 2,11,12
 231 925 231 925 272 970 c 128,-1,13
 313 1015 313 1015 313 1136 c 2,14,-1
 310 1335 l 2,15,16
 310 1548 310 1548 428 1656 c 128,-1,17
 546 1764 546 1764 749 1764 c 2,18,-1
 907 1764 l 1,19,-1
 907 1558 l 1,20,-1
 715 1558 l 2,21,22
 550 1558 550 1558 550 1361 c 1,23,-1
 555 1165 l 2,24,25
 555 1044 555 1044 509 956.5 c 128,-1,26
 463 869 463 869 381 820 c 1,27,28
 461 779 461 779 505.5 687 c 128,-1,29
 550 595 550 595 550 459 c 2,30,-1
 546 270 l 2,31,32
 546 145 546 145 599 91.5 c 128,-1,33
 652 38 652 38 773 38 c 2,34,-1
 904 38 l 1,35,-1
 904 -166 l 1,36,-1
 803 -166 l 2,0,1
EndSplineSet
EndChar

StartChar: braceright
Encoding: 125 125 559
Width: 922
VWidth: 2469
GlyphClass: 1
Flags: HW
LayerCount: 2
Fore
SplineSet
215 -166 m 2
 370 -166 370 -166 484 -128 c 0
 596 -90 596 -90 658 4 c 0
 717.138461538 94.6153846154 717.138461538 94.6153846154 717.138461538 254.377278107 c 0,0,0
 717.138461538 262.107692308 717.138461538 262.107692308 717 270 c 2
 708 494 l 1
 708 635 708 635 751 675 c 0
 794 716 794 716 868 716 c 2
 939 716 l 1
 939 925 l 1
 870 925 l 2
 787 925 787 925 747 970 c 0
 706 1015 706 1015 706 1136 c 2
 708 1335 l 2
 708 1548 708 1548 591 1656 c 0
 474 1764 474 1764 269 1764 c 2
 111 1764 l 1
 111 1558 l 1
 303 1558 l 2
 468 1558 468 1558 468 1361 c 1
 463 1165 l 2
 463 1044 463 1044 509 957 c 0
 555 869 555 869 638 820 c 1
 558 779 558 779 513 688 c 0
 468 596 468 596 468 459 c 2
 472 270 l 2
 472 145 472 145 419 91 c 0
 366 38 366 38 245 38 c 2
 114 38 l 1
 114 -166 l 1
 215 -166 l 2
EndSplineSet
EndChar

StartChar: bracketleft
Encoding: 91 91 560
Width: 922
VWidth: 2499
GlyphClass: 1
Flags: HW
LayerCount: 2
Fore
SplineSet
250 -140 m 1,0,-1
 250 1699 l 1,1,-1
 933 1699 l 1,2,-1
 933 1481 l 1,3,-1
 492 1481 l 1,4,-1
 492 70 l 1,5,-1
 936 70 l 1,6,-1
 936 -140 l 1,7,-1
 250 -140 l 1,0,-1
EndSplineSet
EndChar

StartChar: bracketright
Encoding: 93 93 561
Width: 922
VWidth: 2499
GlyphClass: 1
Flags: HW
LayerCount: 2
Fore
SplineSet
936 -140 m 1
 936 1699 l 1
 252 1699 l 1
 252 1481 l 1
 694 1481 l 1
 694 70 l 1
 250 70 l 1
 250 -140 l 1
 936 -140 l 1
EndSplineSet
EndChar

StartChar: hyphen
Encoding: 45 45 562
Width: 922
VWidth: 2424
GlyphClass: 1
Flags: HW
LayerCount: 2
Fore
SplineSet
228 662 m 1,0,-1
 228 882 l 1,1,-1
 868 882 l 1,2,-1
 868 662 l 1,3,-1
 228 662 l 1,0,-1
EndSplineSet
EndChar

StartChar: endash
Encoding: 8211 8211 564
Width: 922
VWidth: 2424
GlyphClass: 1
Flags: HW
LayerCount: 2
Fore
SplineSet
141 662 m 1,0,-1
 141 882 l 1,1,-1
 958 882 l 1,2,-1
 958 662 l 1,3,-1
 141 662 l 1,0,-1
EndSplineSet
EndChar

StartChar: emdash
Encoding: 8212 8212 565
Width: 922
VWidth: 2424
GlyphClass: 1
Flags: HW
LayerCount: 2
Fore
SplineSet
18 662 m 1,0,-1
 18 882 l 1,1,-1
 908 882 l 1,2,-1
 908 662 l 1,3,-1
 18 662 l 1,0,-1
EndSplineSet
EndChar

StartChar: underscore
Encoding: 95 95 569
Width: 922
VWidth: 2424
GlyphClass: 1
Flags: HW
LayerCount: 2
Fore
SplineSet
63 -243 m 1,0,-1
 63 -32 l 1,1,-1
 953 -32 l 1,2,-1
 953 -243 l 1,3,-1
 63 -243 l 1,0,-1
EndSplineSet
EndChar

StartChar: quotedblleft
Encoding: 8220 8220 572
Width: 922
VWidth: 2424
GlyphClass: 1
Flags: HW
LayerCount: 2
Fore
SplineSet
393 1566 m 1,0,-1
 519 1453 l 1,1,2
 459 1390 459 1390 418.5 1326.5 c 128,-1,3
 378 1263 378 1263 378 1205 c 0,4,5
 378 1164 378 1164 403.5 1138.5 c 128,-1,6
 429 1113 429 1113 455 1084 c 128,-1,7
 481 1055 481 1055 481 1002 c 0,8,9
 481 935 481 935 434.5 887 c 128,-1,10
 388 839 388 839 313 839 c 0,11,12
 246 839 246 839 188.5 897 c 128,-1,13
 131 955 131 955 131 1048 c 0,14,15
 131 1275 131 1275 393 1566 c 1,0,-1
844 1566 m 1,16,-1
 972 1453 l 1,17,18
 909 1390 909 1390 869 1326.5 c 128,-1,19
 829 1263 829 1263 829 1205 c 0,20,21
 829 1164 829 1164 854.5 1138.5 c 128,-1,22
 880 1113 880 1113 905 1084 c 128,-1,23
 930 1055 930 1055 930 1002 c 0,24,25
 930 935 930 935 884.5 887 c 128,-1,26
 839 839 839 839 766 839 c 0,27,28
 696 839 696 839 639 897 c 128,-1,29
 582 955 582 955 582 1048 c 0,30,31
 582 1275 582 1275 844 1566 c 1,16,-1
EndSplineSet
EndChar

StartChar: quoteleft
Encoding: 8216 8216 574
Width: 922
VWidth: 2424
GlyphClass: 1
Flags: HW
LayerCount: 2
Fore
SplineSet
611 1566 m 1,0,-1
 740 1453 l 1,1,2
 680 1390 680 1390 638.5 1326.5 c 128,-1,3
 597 1263 597 1263 597 1205 c 0,4,5
 597 1164 597 1164 622.5 1138.5 c 128,-1,6
 648 1113 648 1113 673 1084 c 128,-1,7
 698 1055 698 1055 698 1002 c 0,8,9
 698 935 698 935 652 887 c 128,-1,10
 606 839 606 839 532 839 c 0,11,12
 462 839 462 839 404.5 897 c 128,-1,13
 347 955 347 955 347 1048 c 0,14,15
 347 1275 347 1275 611 1566 c 1,0,-1
EndSplineSet
EndChar

StartChar: quoteright
Encoding: 8217 8217 575
Width: 922
VWidth: 2424
GlyphClass: 1
Flags: HW
LayerCount: 2
Fore
SplineSet
444 839 m 1,0,-1
 315 953 l 1,1,2
 378 1016 378 1016 418 1079 c 128,-1,3
 458 1142 458 1142 458 1200 c 0,4,5
 458 1241 458 1241 432.5 1267 c 128,-1,6
 407 1293 407 1293 381.5 1322 c 128,-1,7
 356 1351 356 1351 356 1404 c 0,8,9
 356 1471 356 1471 402.5 1518.5 c 128,-1,10
 449 1566 449 1566 523 1566 c 0,11,12
 593 1566 593 1566 650.5 1508 c 128,-1,13
 708 1450 708 1450 708 1358 c 0,14,15
 708 1130 708 1130 444 839 c 1,0,-1
EndSplineSet
EndChar

StartChar: guillemotleft
Encoding: 171 171 576
Width: 922
VWidth: 2424
GlyphClass: 1
Flags: HW
LayerCount: 2
Fore
SplineSet
858 114 m 1,0,-1
 495 550 l 1,1,-1
 495 630 l 1,2,-1
 851 1013 l 1,3,-1
 974 875 l 1,4,-1
 703 587 l 1,5,-1
 990 243 l 1,6,-1
 858 114 l 1,0,-1
490 114 m 1,7,-1
 123 550 l 1,8,-1
 123 630 l 1,9,-1
 483 1013 l 1,10,-1
 597 882 l 1,11,-1
 335 587 l 1,12,-1
 613 240 l 1,13,-1
 490 114 l 1,7,-1
EndSplineSet
EndChar

StartChar: guilsinglleft
Encoding: 8249 8249 578
Width: 922
VWidth: 2424
GlyphClass: 1
Flags: HW
LayerCount: 2
Fore
SplineSet
630 104 m 1,0,-1
 266 541 l 1,1,-1
 266 623 l 1,2,-1
 625 1009 l 1,3,-1
 773 849 l 1,4,-1
 523 579 l 1,5,-1
 784 266 l 1,6,-1
 630 104 l 1,0,-1
EndSplineSet
EndChar

StartChar: guilsinglright
Encoding: 8250 8250 579
Width: 922
VWidth: 2424
GlyphClass: 1
Flags: HW
LayerCount: 2
Fore
SplineSet
421 104 m 1,0,-1
 269 266 l 1,1,-1
 528 579 l 1,2,-1
 279 849 l 1,3,-1
 426 1009 l 1,4,-1
 786 623 l 1,5,-1
 786 541 l 1,6,-1
 421 104 l 1,0,-1
EndSplineSet
EndChar

StartChar: quotedbl
Encoding: 34 34 580
Width: 922
VWidth: 2424
GlyphClass: 1
Flags: HW
LayerCount: 2
Fore
SplineSet
255 1612 m 1
 488 1612 l 1
 488 1466 488 1466 484 1379 c 0
 480 1291 480 1291 474 1232 c 0
 468 1173 468 1173 461 1119 c 0
 454 1065 454 1065 444 987 c 1
 298 987 l 1
 289 1065 289 1065 282 1119 c 0
 275 1173 275 1173 268 1231 c 0
 262 1289 262 1289 258 1378 c 0
 255 1466 255 1466 255 1612 c 1
604 1612 m 1
 837 1612 l 1
 837 1466 837 1466 832 1379 c 0
 828 1291 828 1291 823 1232 c 0
 817 1173 817 1173 810 1119 c 0
 803 1065 803 1065 793 987 c 1
 648 987 l 1
 639 1065 639 1065 630 1119 c 0
 623 1173 623 1173 617 1231 c 0
 611 1289 611 1289 607 1378 c 0
 604 1466 604 1466 604 1612 c 1
EndSplineSet
Substitution2: "'ss03' Style Set 3 in Latin lookup 37 subtable" quotedbl.ss03
Substitution2: "'aalt' Access All Alternates in Latin lookup 0 subtable" quotedbl.ss03
EndChar

StartChar: quotesingle
Encoding: 39 39 581
Width: 922
VWidth: 2424
GlyphClass: 1
Flags: HW
LayerCount: 2
Fore
SplineSet
429 1612 m 1,0,-1
 662 1612 l 1,1,2
 662 1466 662 1466 658.5 1379.5 c 128,-1,3
 655 1293 655 1293 649 1233 c 128,-1,4
 643 1173 643 1173 635 1118.5 c 128,-1,5
 627 1064 627 1064 618 987 c 1,6,-1
 472 987 l 1,7,8
 463 1065 463 1065 456 1119 c 128,-1,9
 449 1173 449 1173 443 1231.5 c 128,-1,10
 437 1290 437 1290 433 1378 c 128,-1,11
 429 1466 429 1466 429 1612 c 1,0,-1
EndSplineSet
Substitution2: "'ss03' Style Set 3 in Latin lookup 37 subtable" quotesingle.ss03
Substitution2: "'aalt' Access All Alternates in Latin lookup 0 subtable" quotesingle.ss03
EndChar

StartChar: quotesingle.ss03
Encoding: 65574 -1 583
Width: 922
VWidth: 2424
GlyphClass: 1
Flags: HW
LayerCount: 2
Fore
SplineSet
599 967 m 1,0,-1
 402 1013 l 1,1,2
 436 1122 436 1122 444.5 1193.5 c 0,3,4
 452.105263158 1257.47368421 452.105263158 1257.47368421 452.105263158 1312.64127424 c 0,5,6
 452.105263158 1319.13157895 452.105263158 1319.13157895 452 1325.5 c 0,7,8
 451 1386 451 1386 451 1464 c 0,9,10
 451 1547 451 1547 488.5 1587 c 128,-1,11
 526 1627 526 1627 590 1627 c 0,12,13
 650 1627 650 1627 689.5 1588.5 c 128,-1,14
 729 1550 729 1550 729 1467 c 0,15,16
 729 1382 729 1382 695.5 1271.5 c 128,-1,17
 662 1161 662 1161 599 967 c 1,0,-1
EndSplineSet
EndChar

StartChar: hyphen_greater.dlig
Encoding: 65575 -1 584
Width: 922
VWidth: 2424
GlyphClass: 1
Flags: HW
LayerCount: 2
Fore
SplineSet
36 669 m 1,0,-1
 36 885 l 1,1,-1
 592 885 l 1,2,-1
 592 669 l 1,3,-1
 36 669 l 1,0,-1
413 72 m 1,4,-1
 413 327 l 1,5,-1
 791 778 l 1,6,-1
 414 1193 l 1,7,-1
 414 1443 l 1,8,-1
 926 856 l 1,9,-1
 926 706 l 1,10,-1
 413 72 l 1,4,-1
EndSplineSet
Ligature2: "'dlig' Discretionary Ligatures in Latin lookup 32 subtable" hyphen greater
EndChar

StartChar: exclam_equal_equal.dlig
Encoding: 65576 -1 585
Width: 922
VWidth: 2396
GlyphClass: 1
Flags: HW
LayerCount: 2
Fore
SplineSet
29 33 m 1,0,-1
 29 231 l 1,1,-1
 397 231 l 1,2,-1
 428 481 l 1,3,-1
 136 481 l 1,4,-1
 136 681 l 1,5,-1
 453 681 l 1,6,-1
 484 933 l 1,7,-1
 29 933 l 1,8,-1
 29 1131 l 1,9,-1
 509 1131 l 1,10,-1
 547 1448 l 1,11,-1
 599 1365 l 1,12,-1
 570 1131 l 1,13,-1
 919 1131 l 1,14,-1
 919 933 l 1,15,-1
 546 933 l 1,16,-1
 514 681 l 1,17,-1
 812 681 l 1,18,-1
 812 481 l 1,19,-1
 490 481 l 1,20,-1
 458 231 l 1,21,-1
 919 231 l 1,22,-1
 919 33 l 1,23,-1
 434 33 l 1,24,-1
 399 -246 l 1,25,-1
 348 -168 l 1,26,-1
 372 33 l 1,27,-1
 29 33 l 1,0,-1
EndSplineSet
Ligature2: "'dlig' Discretionary Ligatures in Latin lookup 32 subtable" exclam equal equal
EndChar

StartChar: uni20B5
Encoding: 8373 8373 594
Width: 922
VWidth: 2424
GlyphClass: 2
Flags: HW
AnchorPoint: "Anchor-2" 544 0 basechar 0
AnchorPoint: "Anchor-0" 535 1511 basechar 0
LayerCount: 2
Fore
SplineSet
290 759 m 0,0,1
 290 534 290 534 344.5 395.5 c 128,-1,2
 399 257 399 257 485 213 c 1,3,-1
 485 1290 l 1,4,5
 403 1244 403 1244 346.5 1113 c 128,-1,6
 290 982 290 982 290 759 c 0,0,1
485 -172 m 1,7,-1
 485 -21 l 1,8,9
 366 -2 366 -2 270 83.5 c 128,-1,10
 174 169 174 169 117.5 333 c 128,-1,11
 61 497 61 497 61 747 c 0,12,13
 61 1016 61 1016 123 1180 c 128,-1,14
 185 1344 185 1344 283 1423.5 c 128,-1,15
 381 1503 381 1503 485 1522 c 1,16,-1
 485 1636 l 1,17,-1
 649 1636 l 1,18,-1
 649 1522 l 1,19,20
 754 1503 754 1503 830.5 1434 c 128,-1,21
 907 1365 907 1365 951 1258 c 1,22,-1
 815 1118 l 1,23,-1
 799 1103 l 1,24,-1
 786 1120 l 1,25,26
 788 1137 788 1137 784.5 1157.5 c 128,-1,27
 781 1178 781 1178 762 1212 c 1,28,29
 735 1249 735 1249 706.5 1271 c 128,-1,30
 678 1293 678 1293 649 1302 c 1,31,-1
 649 208 l 1,32,33
 731 242 731 242 788 356 c 1,34,-1
 935 208 l 1,35,36
 880 106 880 106 810 52 c 128,-1,37
 740 -2 740 -2 649 -19 c 1,38,-1
 649 -172 l 1,39,-1
 485 -172 l 1,7,-1
EndSplineSet
EndChar

StartChar: cent
Encoding: 162 162 595
Width: 922
VWidth: 2424
GlyphClass: 2
Flags: HW
AnchorPoint: "Anchor-2" 580 104 basechar 0
AnchorPoint: "Anchor-0" 580 1229 basechar 0
LayerCount: 2
Fore
SplineSet
330 662 m 0,0,1
 330 551 330 551 362 472 c 128,-1,2
 394 393 394 393 445 347 c 1,3,-1
 527 1032 l 1,4,5
 445 1008 445 1008 387.5 916 c 128,-1,6
 330 824 330 824 330 662 c 0,0,1
587 -178 m 1,7,-1
 385 -178 l 1,8,-1
 418 104 l 1,9,10
 267 157 267 157 175.5 303 c 128,-1,11
 84 449 84 449 84 659 c 0,12,13
 84 831 84 831 145 962.5 c 128,-1,14
 206 1094 206 1094 312 1171.5 c 128,-1,15
 418 1249 418 1249 551 1256 c 1,16,-1
 582 1511 l 1,17,-1
 777 1511 l 1,18,-1
 744 1234 l 1,19,20
 892 1185 892 1185 974 1052 c 1,21,-1
 847 888 l 1,22,-1
 832 870 l 1,23,-1
 816 882 l 1,24,25
 814 901 814 901 810.5 922.5 c 128,-1,26
 807 944 807 944 781 972 c 0,27,28
 753 1002 753 1002 721 1016 c 1,29,-1
 640 294 l 1,30,31
 693 303 693 303 743 332 c 128,-1,32
 793 361 793 361 837 421 c 1,33,-1
 962 247 l 1,34,35
 893 164 893 164 801.5 123.5 c 128,-1,36
 710 83 710 83 615 78 c 1,37,-1
 587 -178 l 1,7,-1
EndSplineSet
EndChar

StartChar: colonmonetary
Encoding: 8353 8353 596
Width: 922
VWidth: 2424
GlyphClass: 2
Flags: HW
AnchorPoint: "Anchor-2" 544 0 basechar 0
AnchorPoint: "Anchor-0" 535 1511 basechar 0
LayerCount: 2
Fore
SplineSet
290 759 m 0,0,1
 290 655 290 655 302.5 569 c 128,-1,2
 315 483 315 483 336 417 c 1,3,-1
 526 1307 l 1,4,5
 429 1280 429 1280 359.5 1144.5 c 128,-1,6
 290 1009 290 1009 290 759 c 0,0,1
394 296 m 1,7,8
 419 262 419 262 445 238 c 1,9,-1
 670 1295 l 1,10,11
 643 1307 643 1307 609 1312 c 1,12,-1
 394 296 l 1,7,8
212 -172 m 1,13,-1
 267 88 l 1,14,15
 175 176 175 176 118 338 c 128,-1,16
 61 500 61 500 61 747 c 0,17,18
 61 975 61 975 106.5 1126 c 128,-1,19
 152 1277 152 1277 227 1366 c 128,-1,20
 302 1455 302 1455 389.5 1492 c 128,-1,21
 477 1529 477 1529 563 1529 c 2,22,-1
 575 1529 l 1,23,-1
 597 1636 l 1,24,-1
 680 1636 l 1,25,-1
 656 1522 l 1,26,27
 687 1515 687 1515 716 1503 c 1,28,-1
 744 1636 l 1,29,-1
 828 1636 l 1,30,-1
 790 1464 l 1,31,32
 895 1397 895 1397 951 1258 c 1,33,-1
 815 1118 l 1,34,-1
 799 1103 l 1,35,-1
 786 1120 l 1,36,37
 788 1137 788 1137 784.5 1157.5 c 128,-1,38
 781 1178 781 1178 762 1212 c 0,39,40
 753 1224 753 1224 742 1236 c 1,41,-1
 521 199 l 1,42,43
 540 194 540 194 565 194 c 0,44,45
 706 194 706 194 788 356 c 1,46,-1
 935 208 l 1,47,48
 867 79 867 79 773.5 26 c 128,-1,49
 680 -27 680 -27 555 -27 c 0,50,51
 513 -27 513 -27 475 -19 c 1,52,-1
 443 -172 l 1,53,-1
 357 -172 l 1,54,-1
 394 2 l 1,55,56
 365 14 365 14 336 32 c 1,57,-1
 295 -172 l 1,58,-1
 212 -172 l 1,13,-1
EndSplineSet
EndChar

StartChar: currency
Encoding: 164 164 597
Width: 922
VWidth: 2424
GlyphClass: 1
Flags: HW
LayerCount: 2
Fore
SplineSet
546 640 m 128,-1,1
 626 640 626 640 666 697 c 128,-1,2
 706 754 706 754 706 837 c 128,-1,3
 706 920 706 920 665.5 977.5 c 128,-1,4
 625 1035 625 1035 546 1035 c 0,5,6
 466 1035 466 1035 426 977 c 128,-1,7
 386 919 386 919 386 837 c 0,8,9
 386 754 386 754 426 697 c 128,-1,0
 466 640 466 640 546 640 c 128,-1,1
259 366 m 1,10,-1
 111 502 l 1,11,-1
 231 648 l 1,12,13
 182 740 182 740 182 839 c 0,14,15
 182 890 182 890 193 938.5 c 128,-1,16
 204 987 204 987 231 1035 c 1,17,-1
 111 1173 l 1,18,-1
 259 1312 l 1,19,-1
 371 1180 l 1,20,21
 412 1201 412 1201 458 1215 c 128,-1,22
 504 1229 504 1229 548 1229 c 0,23,24
 633 1229 633 1229 720 1183 c 1,25,-1
 831 1312 l 1,26,-1
 979 1176 l 1,27,-1
 861 1038 l 1,28,29
 888 989 888 989 900 939.5 c 128,-1,30
 912 890 912 890 912 839 c 0,31,32
 912 732 912 732 861 640 c 1,33,-1
 979 502 l 1,34,-1
 831 366 l 1,35,-1
 722 495 l 1,36,37
 681 471 681 471 637.5 460 c 128,-1,38
 594 449 594 449 548 449 c 0,39,40
 449 449 449 449 371 497 c 1,41,-1
 259 366 l 1,10,-1
EndSplineSet
EndChar

StartChar: dollar
Encoding: 36 36 598
Width: 922
VWidth: 2424
GlyphClass: 1
Flags: HW
LayerCount: 2
Fore
SplineSet
648 228 m 1,0,1
 713 247 713 247 754.5 304 c 128,-1,2
 796 361 796 361 796 429 c 0,3,4
 796 501 796 501 756.5 547.5 c 128,-1,5
 717 594 717 594 648 618 c 1,6,-1
 648 228 l 1,0,1
482 912 m 1,7,-1
 482 1236 l 1,8,9
 424 1227 424 1227 382.5 1190.5 c 128,-1,10
 341 1154 341 1154 341 1094 c 0,11,12
 341 979 341 979 482 912 c 1,7,-1
486 -111 m 1,13,-1
 486 27 l 1,14,15
 383 34 383 34 281 79.5 c 128,-1,16
 179 125 179 125 108 208 c 1,17,-1
 221 410 l 1,18,19
 239 401 239 401 241.5 380 c 128,-1,20
 244 359 244 359 258 342 c 0,21,22
 341 250 341 250 482 225 c 1,23,-1
 482 676 l 1,24,25
 316 746 316 746 225 837 c 128,-1,26
 134 928 134 928 134 1081 c 0,27,28
 134 1180 134 1180 182.5 1254 c 128,-1,29
 231 1328 231 1328 310.5 1374.5 c 128,-1,30
 390 1421 390 1421 486 1435 c 1,31,-1
 486 1578 l 1,32,-1
 648 1578 l 1,33,34
 655 1573 655 1573 655 1564 c 0,35,36
 655 1557 655 1557 649 1541 c 128,-1,37
 643 1525 643 1525 643 1503 c 2,38,-1
 643 1437 l 1,39,40
 737 1423 737 1423 819 1380.5 c 128,-1,41
 901 1338 901 1338 959 1261 c 1,42,-1
 848 1099 l 1,43,44
 827 1101 827 1101 823.5 1121.5 c 128,-1,45
 820 1142 820 1142 809 1152 c 0,46,47
 783 1186 783 1186 739 1207.5 c 128,-1,48
 695 1229 695 1229 648 1236 c 1,49,-1
 648 844 l 1,50,51
 832 772 832 772 915 685.5 c 128,-1,52
 998 599 998 599 998 442 c 0,53,54
 998 340 998 340 953.5 252.5 c 128,-1,55
 909 165 909 165 829 104.5 c 128,-1,56
 749 44 749 44 643 30 c 1,57,-1
 643 -111 l 1,58,-1
 486 -111 l 1,13,-1
EndSplineSet
EndChar

StartChar: dong
Encoding: 8363 8363 599
Width: 922
VWidth: 2424
GlyphClass: 2
Flags: HW
AnchorPoint: "Anchor-4" 717 1333 basechar 0
AnchorPoint: "Anchor-2" 523 269 basechar 0
AnchorPoint: "Anchor-1" 912 1154 basechar 0
AnchorPoint: "Anchor-0" 523 1154 basechar 0
LayerCount: 2
Fore
SplineSet
185 153 m 1,0,-1
 944 153 l 1,1,-1
 944 0 l 1,2,-1
 185 0 l 1,3,-1
 185 153 l 1,0,-1
514 414 m 0,4,5
 671 414 671 414 671 715 c 0,6,7
 671 1020 671 1020 511 1020 c 0,8,9
 342 1020 342 1020 342 724 c 0,10,11
 342 571 342 571 393 492.5 c 128,-1,12
 444 414 444 414 514 414 c 0,4,5
477 247 m 0,13,14
 387 247 387 247 312.5 295.5 c 128,-1,15
 238 344 238 344 192 448.5 c 128,-1,16
 146 553 146 553 146 717 c 0,17,18
 146 960 146 960 241.5 1071.5 c 128,-1,19
 337 1183 337 1183 477 1183 c 0,20,21
 542 1183 542 1183 595 1156 c 128,-1,22
 648 1129 648 1129 676 1071 c 1,23,-1
 676 1251 l 1,24,-1
 402 1251 l 1,25,-1
 402 1413 l 1,26,-1
 676 1413 l 1,27,-1
 676 1552 l 1,28,-1
 895 1552 l 1,29,-1
 895 1534 l 1,30,31
 876.95 1517.85 876.95 1517.85 876.95 1469.21 c 0,32,33
 876.95 1466.65 876.95 1466.65 877 1464 c 2,34,-1
 877 1413 l 1,35,-1
 1004 1413 l 1,36,-1
 1004 1251 l 1,37,-1
 875 1251 l 1,38,-1
 875 393 l 2,39,40
 875 361 875 361 877.5 331 c 128,-1,41
 880 301 880 301 895 269 c 1,42,-1
 696 269 l 1,43,44
 684 299 684 299 681 318 c 128,-1,45
 678 337 678 337 678 368 c 1,46,47
 644 308 644 308 590.5 277.5 c 128,-1,48
 537 247 537 247 477 247 c 0,13,14
EndSplineSet
EndChar

StartChar: Euro
Encoding: 8364 8364 600
Width: 922
VWidth: 2424
GlyphClass: 1
Flags: HW
LayerCount: 2
Fore
SplineSet
614 -34 m 0,0,1
 439 -34 439 -34 315 93 c 128,-1,2
 191 220 191 220 155 477 c 1,3,-1
 39 477 l 1,4,-1
 78 689 l 1,5,-1
 138 689 l 1,6,7
 138 716 138 716 139 752 c 128,-1,8
 140 788 140 788 140 817 c 1,9,-1
 39 817 l 1,10,-1
 80 1032 l 1,11,-1
 168 1032 l 1,12,13
 201 1212 201 1212 272 1320 c 128,-1,14
 343 1428 343 1428 436.5 1476.5 c 128,-1,15
 530 1525 530 1525 631 1525 c 0,16,17
 814 1525 814 1525 929 1379 c 1,18,-1
 862 1164 l 1,19,20
 834 1181 834 1181 813.5 1217.5 c 128,-1,21
 793 1254 793 1254 753 1285 c 128,-1,22
 713 1316 713 1316 627 1316 c 0,23,24
 543 1316 543 1316 474 1246 c 128,-1,25
 405 1176 405 1176 381 1032 c 1,26,-1
 827 1032 l 1,27,-1
 763 817 l 1,28,-1
 353 817 l 1,29,30
 351 790 351 790 350 759.5 c 128,-1,31
 349 729 349 729 349 689 c 1,32,-1
 726 689 l 1,33,-1
 662 477 l 1,34,-1
 368 477 l 1,35,36
 392 329 392 329 459 257 c 128,-1,37
 526 185 526 185 625 185 c 0,38,39
 685 185 685 185 736 210.5 c 128,-1,40
 787 236 787 236 832 296 c 1,41,-1
 917 107 l 1,42,43
 851 32 851 32 776.5 -1 c 128,-1,44
 702 -34 702 -34 614 -34 c 0,0,1
EndSplineSet
EndChar

StartChar: florin
Encoding: 402 402 601
Width: 922
VWidth: 2355
GlyphClass: 1
Flags: HW
LayerCount: 2
Fore
SplineSet
206 -246 m 0,0,1
 97 -246 97 -246 16 -151 c 1,2,-1
 115 46 l 1,3,4
 127 44 127 44 130 25 c 128,-1,5
 133 6 133 6 145.5 -13 c 128,-1,6
 158 -32 158 -32 202 -32 c 0,7,8
 245 -32 245 -32 265.5 32.5 c 128,-1,9
 286 97 286 97 292 213 c 2,10,-1
 333 828 l 1,11,-1
 133 828 l 1,12,-1
 133 1023 l 1,13,-1
 341 1023 l 1,14,-1
 355 1200 l 2,15,16
 371 1437 371 1437 453.5 1539 c 128,-1,17
 536 1641 536 1641 672 1641 c 0,18,19
 809 1641 809 1641 906 1511 c 1,20,-1
 830 1309 l 1,21,22
 818 1309 818 1309 814 1318 c 128,-1,23
 810 1327 810 1327 806 1344 c 0,24,25
 796 1386 796 1386 764.5 1415 c 128,-1,26
 733 1444 733 1444 692 1444 c 0,27,28
 641 1444 641 1444 607 1385.5 c 128,-1,29
 573 1327 573 1327 565 1173 c 2,30,-1
 557 1023 l 1,31,-1
 756 1023 l 1,32,-1
 756 828 l 1,33,-1
 543 828 l 1,34,-1
 500 203 l 2,35,36
 482 -36 482 -36 400.5 -141 c 128,-1,37
 319 -246 319 -246 206 -246 c 0,0,1
EndSplineSet
EndChar

StartChar: uni20B2
Encoding: 8370 8370 603
Width: 922
VWidth: 2424
GlyphClass: 1
Flags: HW
LayerCount: 2
Fore
SplineSet
265 773 m 0,0,1
 265 565 265 565 308 423.5 c 128,-1,2
 351 282 351 282 423 218 c 1,3,-1
 423 1293 l 1,4,5
 357 1244 357 1244 311 1120 c 128,-1,6
 265 996 265 996 265 773 c 0,0,1
423 -172 m 1,7,-1
 423 -24 l 1,8,9
 236 25 236 25 136 231 c 128,-1,10
 36 437 36 437 36 752 c 0,11,12
 38 951 38 951 71.5 1088.5 c 128,-1,13
 105 1226 105 1226 163 1317.5 c 128,-1,14
 221 1409 221 1409 289 1458.5 c 128,-1,15
 357 1508 357 1508 423 1527 c 1,16,-1
 423 1636 l 1,17,-1
 576 1636 l 1,18,-1
 576 1545 l 1,19,20
 715 1536 715 1536 797 1461 c 128,-1,21
 879 1386 879 1386 926 1275 c 1,22,-1
 809 1101 l 1,23,24
 796 1108 796 1108 784 1139.5 c 128,-1,25
 772 1171 772 1171 749.5 1211 c 128,-1,26
 727 1251 727 1251 686.5 1283.5 c 128,-1,27
 646 1316 646 1316 576 1326 c 1,28,-1
 576 178 l 1,29,30
 656 190 656 190 715 247 c 1,31,-1
 715 541 l 1,32,-1
 631 541 l 1,33,-1
 631 761 l 1,34,-1
 926 761 l 1,35,-1
 926 131 l 1,36,37
 844 48 844 48 757 8 c 128,-1,38
 670 -32 670 -32 576 -39 c 1,39,-1
 576 -172 l 1,40,-1
 423 -172 l 1,7,-1
EndSplineSet
EndChar

StartChar: uni20AD
Encoding: 8365 8365 604
Width: 922
VWidth: 2424
GlyphClass: 1
Flags: HW
LayerCount: 2
Fore
SplineSet
-12 775 m 1,0,-1
 -12 933 l 1,1,-1
 64 933 l 1,2,-1
 64 1511 l 1,3,-1
 286 1511 l 1,4,-1
 286 1488 l 1,5,6
 274 1474 274 1474 271.5 1457.5 c 128,-1,7
 269 1441 269 1441 269 1399 c 2,8,-1
 269 900 l 1,9,-1
 629 1522 l 1,10,11
 657 1517 657 1517 699.5 1514 c 128,-1,12
 742 1511 742 1511 766 1511 c 2,13,-1
 856 1511 l 1,14,-1
 521 933 l 1,15,-1
 820 933 l 1,16,-1
 820 775 l 1,17,-1
 525 775 l 1,18,-1
 878 0 l 1,19,-1
 643 -9 l 1,20,-1
 339 674 l 1,21,-1
 269 555 l 1,22,-1
 269 0 l 1,23,-1
 64 0 l 1,24,-1
 64 775 l 1,25,-1
 -12 775 l 1,0,-1
EndSplineSet
EndChar

StartChar: uni20BA
Encoding: 8378 8378 606
Width: 922
VWidth: 2424
GlyphClass: 1
Flags: HW
LayerCount: 2
Fore
SplineSet
201 0 m 1,0,-1
 201 678 l 1,1,-1
 50 611 l 1,2,-1
 50 771 l 1,3,-1
 201 839 l 1,4,-1
 201 955 l 1,5,-1
 50 888 l 1,6,-1
 50 1048 l 1,7,-1
 201 1115 l 1,8,-1
 201 1511 l 1,9,-1
 444 1511 l 1,10,11
 444 1487 444 1487 438.5 1479 c 128,-1,12
 433 1471 433 1471 429 1425 c 1,13,-1
 429 1215 l 1,14,-1
 712 1338 l 1,15,-1
 712 1178 l 1,16,-1
 429 1055 l 1,17,-1
 429 939 l 1,18,-1
 712 1062 l 1,19,-1
 712 902 l 1,20,-1
 429 778 l 1,21,-1
 429 220 l 1,22,23
 509 220 509 220 582.5 244.5 c 128,-1,24
 656 269 656 269 704 341.5 c 128,-1,25
 752 414 752 414 752 562 c 1,26,-1
 940 562 l 1,27,28
 940 395 940 395 889 268 c 128,-1,29
 838 141 838 141 722 70.5 c 128,-1,30
 606 0 606 0 420 0 c 2,31,-1
 201 0 l 1,0,-1
EndSplineSet
EndChar

StartChar: uni20BC
Encoding: 8380 8380 607
Width: 922
VWidth: 2424
GlyphClass: 1
Flags: HW
LayerCount: 2
Fore
SplineSet
429 220 m 1,0,-1
 429 1251 l 1,1,2
 341 1221 341 1221 307.5 1136.5 c 128,-1,3
 274 1052 274 1052 274 919 c 2,4,-1
 274 83 l 2,5,6
 274 44 274 44 281 35.5 c 128,-1,7
 288 27 288 27 288 0 c 1,8,-1
 77 0 l 1,9,-1
 77 916 l 2,10,11
 77 1163 77 1163 167 1304 c 128,-1,12
 257 1445 257 1445 429 1471 c 1,13,-1
 429 1631 l 1,14,-1
 617 1631 l 1,15,-1
 617 1471 l 1,16,17
 777 1444 777 1444 872 1308.5 c 128,-1,18
 967 1173 967 1173 967 909 c 2,19,-1
 967 0 l 1,20,-1
 777 0 l 1,21,-1
 777 912 l 2,22,23
 777 1051 777 1051 742.5 1136.5 c 128,-1,24
 708 1222 708 1222 617 1251 c 1,25,-1
 617 220 l 1,26,-1
 429 220 l 1,0,-1
EndSplineSet
EndChar

StartChar: uni20A6
Encoding: 8358 8358 608
Width: 922
VWidth: 2424
GlyphClass: 2
Flags: HW
AnchorPoint: "Anchor-2" 467 0 basechar 0
AnchorPoint: "Anchor-0" 467 1511 basechar 0
LayerCount: 2
Fore
SplineSet
657 536 m 1,0,-1
 655 684 l 1,1,-1
 605 684 l 1,2,-1
 657 536 l 1,0,-1
284 1038 m 1,3,-1
 284 814 l 1,4,-1
 360 814 l 1,5,-1
 284 1038 l 1,3,-1
27 684 m 1,6,-1
 27 814 l 1,7,-1
 106 814 l 1,8,-1
 106 1511 l 1,9,-1
 307 1511 l 1,10,-1
 557 814 l 1,11,-1
 655 814 l 1,12,-1
 649 1511 l 1,13,-1
 840 1511 l 1,14,-1
 840 1488 l 1,15,16
 830 1474 830 1474 827 1457.5 c 128,-1,17
 824 1441 824 1441 824 1399 c 2,18,-1
 824 814 l 1,19,-1
 917 814 l 1,20,-1
 917 684 l 1,21,-1
 824 684 l 1,22,-1
 824 0 l 1,23,-1
 647 0 l 1,24,-1
 406 684 l 1,25,-1
 284 684 l 1,26,-1
 284 0 l 1,27,-1
 106 0 l 1,28,-1
 106 684 l 1,29,-1
 27 684 l 1,6,-1
EndSplineSet
EndChar

StartChar: peseta
Encoding: 8359 8359 609
Width: 922
VWidth: 2424
GlyphClass: 1
Flags: HW
LayerCount: 2
Fore
SplineSet
494 -30 m 0,0,1
 394 -30 394 -30 356 43 c 128,-1,2
 323.181818182 106.045454545 323.181818182 106.045454545 323.181818182 230.252066116 c 0,0,0
 323.181818182 249.863636364 323.181818182 249.863636364 324 271 c 2,3,-1
 332 492 l 1,4,-1
 251 490 l 1,5,-1
 263 630 l 1,6,-1
 342 630 l 1,7,-1
 342 740 l 1,8,-1
 469 764 l 1,9,-1
 490 768 l 1,10,-1
 494 747 l 1,11,12
 483 730 483 730 476 712 c 128,-1,13
 469 694 469 694 469 655 c 2,14,-1
 467 630 l 1,15,-1
 559 630 l 1,16,-1
 546 492 l 1,17,-1
 461 492 l 1,18,-1
 455 279 l 2,19,20
 454.058823529 256.647058824 454.058823529 256.647058824 454.058823529 237.477508651 c 0,0,0
 454.058823529 175.176470588 454.058823529 175.176470588 464 146.5 c 128,-1,21
 477 109 477 109 517 109 c 0,22,23
 541 109 541 109 563 129 c 1,24,-1
 596 208 l 1,25,-1
 602 231 l 1,26,-1
 616 223 l 1,27,28
 620 206 620 206 623.5 189 c 128,-1,29
 627 172 627 172 646 148 c 1,30,31
 692 107 692 107 755 107 c 0,32,33
 794 107 794 107 814.5 125 c 128,-1,34
 835 143 835 143 835 169 c 0,35,36
 833 196 833 196 815 216 c 128,-1,37
 797 236 797 236 743 257 c 0,38,39
 676 284 676 284 629.5 329.5 c 128,-1,40
 583 375 583 375 583 465 c 0,41,42
 583 545 583 545 631 595 c 128,-1,43
 679 645 679 645 759 645 c 0,44,45
 813 645 813 645 860 624.5 c 128,-1,46
 907 604 907 604 946 553 c 1,47,-1
 883 449 l 1,48,-1
 872 429 l 1,49,-1
 863 437 l 1,50,51
 861 454 861 454 857 464.5 c 128,-1,52
 853 475 853 475 835 492 c 1,53,54
 802 513 802 513 766 514 c 0,55,56
 703 514 703 514 703 465 c 0,57,58
 703 441 703 441 721 420.5 c 128,-1,59
 739 400 739 400 799 378 c 1,60,61
 886 339 886 339 919.5 295.5 c 128,-1,62
 953 252 953 252 953 182 c 0,63,64
 953 92 953 92 903 30 c 128,-1,65
 853 -32 853 -32 764 -34 c 0,66,67
 679 -34 679 -34 609 17 c 1,68,69
 559 -30 559 -30 494 -30 c 0,0,1
245 914 m 2,70,71
 334 914 334 914 373.5 971 c 128,-1,72
 413 1028 413 1028 413 1140 c 0,73,74
 413 1237 413 1237 375 1294 c 128,-1,75
 337 1351 337 1351 247 1351 c 2,76,-1
 218 1351 l 1,77,-1
 218 914 l 1,78,-1
 245 914 l 2,70,71
63 1511 m 1,79,-1
 251 1511 l 2,80,81
 364 1511 364 1511 436.5 1460 c 128,-1,82
 509 1409 509 1409 545 1325.5 c 128,-1,83
 581 1242 581 1242 581 1145 c 0,84,85
 581 980 581 980 495 872 c 128,-1,86
 409 764 409 764 259 764 c 2,87,-1
 218 764 l 1,88,-1
 218 0 l 1,89,-1
 63 0 l 1,90,-1
 63 1511 l 1,79,-1
EndSplineSet
EndChar

StartChar: uni20B1
Encoding: 8369 8369 610
Width: 922
VWidth: 2424
GlyphClass: 2
Flags: HW
AnchorPoint: "Anchor-2" 311 0 basechar 0
AnchorPoint: "Anchor-0" 442 1511 basechar 0
LayerCount: 2
Fore
SplineSet
286 854 m 1,0,-1
 452 854 l 2,1,2
 556 854 556 854 600 941 c 1,3,-1
 286 941 l 1,4,-1
 286 854 l 1,0,-1
629 1067 m 0,5,6
 629 1088 629 1088 627 1108 c 1,7,-1
 286 1108 l 1,8,-1
 286 1032 l 1,9,-1
 627 1032 l 1,10,11
 629 1050 629 1050 629 1067 c 0,5,6
286 1282 m 1,12,-1
 286 1200 l 1,13,-1
 598 1200 l 1,14,15
 553.535714286 1282.01190476 553.535714286 1282.01190476 456.349489796 1282.01190476 c 0,16,17
 455.178571429 1282.01190476 455.178571429 1282.01190476 454 1282 c 2,18,-1
 286 1282 l 1,12,-1
70 0 m 1,19,-1
 70 930 l 1,20,-1
 11 930 l 1,21,-1
 11 1032 l 1,22,-1
 70 1032 l 1,23,-1
 70 1099 l 1,24,-1
 11 1099 l 1,25,-1
 11 1200 l 1,26,-1
 70 1200 l 1,27,-1
 70 1511 l 1,28,-1
 457 1511 l 2,29,30
 618 1511 618 1511 712 1424.5 c 128,-1,31
 806 1338 806 1338 835 1200 c 1,32,-1
 901 1200 l 1,33,-1
 901 1099 l 1,34,-1
 845 1099 l 1,35,36
 847 1085 847 1085 847 1069 c 0,37,38
 847 1050 847 1050 845 1032 c 1,39,-1
 901 1032 l 1,40,-1
 901 930 l 1,41,-1
 833 930 l 1,42,43
 802 796 802 796 710.5 714.5 c 128,-1,44
 619 633 619 633 465 633 c 2,45,-1
 286 633 l 1,46,-1
 286 0 l 1,47,-1
 70 0 l 1,19,-1
EndSplineSet
EndChar

StartChar: uni20BD
Encoding: 8381 8381 611
Width: 922
VWidth: 2424
GlyphClass: 2
Flags: HW
AnchorPoint: "Anchor-2" 361 0 basechar 0
AnchorPoint: "Anchor-0" 497 1511 basechar 0
LayerCount: 2
Fore
SplineSet
338 854 m 1,0,-1
 507 854 l 2,1,2
 596 854 596 854 644.5 913 c 128,-1,3
 693 972 693 972 693 1067 c 0,4,5
 693 1166 693 1166 644.5 1224 c 128,-1,6
 596 1282 596 1282 510 1282 c 2,7,-1
 338 1282 l 1,8,-1
 338 854 l 1,0,-1
110 0 m 1,9,-1
 110 276 l 1,10,-1
 30 276 l 1,11,-1
 30 497 l 1,12,-1
 110 497 l 1,13,-1
 110 633 l 1,14,-1
 30 633 l 1,15,-1
 30 854 l 1,16,-1
 110 854 l 1,17,-1
 110 1511 l 1,18,-1
 514 1511 l 2,19,20
 722 1511 722 1511 821 1384.5 c 128,-1,21
 920 1258 920 1258 920 1069 c 0,22,23
 920 882 920 882 821 757.5 c 128,-1,24
 722 633 722 633 525 633 c 2,25,-1
 338 633 l 1,26,-1
 338 497 l 1,27,-1
 578 497 l 1,28,-1
 578 276 l 1,29,-1
 338 276 l 1,30,-1
 338 0 l 1,31,-1
 110 0 l 1,9,-1
EndSplineSet
EndChar

StartChar: uni20B9
Encoding: 8377 8377 612
Width: 922
VWidth: 2424
GlyphClass: 1
Flags: HW
LayerCount: 2
Fore
SplineSet
121 842 m 1,0,-1
 378 842 l 2,1,2
 466 842 466 842 514 877 c 128,-1,3
 562 912 562 912 579 974 c 1,4,-1
 121 974 l 1,5,-1
 121 1142 l 1,6,-1
 582 1142 l 1,7,8
 565 1212 565 1212 516.5 1252.5 c 128,-1,9
 468 1293 468 1293 378 1293 c 2,10,-1
 121 1293 l 1,11,-1
 121 1511 l 1,12,-1
 997 1511 l 1,13,-1
 997 1348 l 1,14,-1
 687 1348 l 1,15,16
 803 1278 803 1278 835 1142 c 1,17,-1
 997 1142 l 1,18,-1
 997 974 l 1,19,-1
 844 974 l 1,20,21
 827 860 827 860 758 777 c 128,-1,22
 689 694 689 694 585 657 c 1,23,-1
 902 0 l 1,24,-1
 623 0 l 1,25,-1
 342 625 l 1,26,-1
 121 625 l 1,27,-1
 121 842 l 1,0,-1
EndSplineSet
EndChar

StartChar: sterling
Encoding: 163 163 613
Width: 922
VWidth: 2424
GlyphClass: 1
Flags: HW
LayerCount: 2
Fore
SplineSet
136 -30 m 1,0,-1
 62 174 l 1,1,2
 140 218 140 218 185.5 260.5 c 128,-1,3
 231 303 231 303 250 367.5 c 128,-1,4
 269 432 269 432 269 543 c 0,5,6
 269 584 269 584 263.5 635.5 c 128,-1,7
 258 687 258 687 246 747 c 1,8,-1
 123 747 l 1,9,-1
 123 955 l 1,10,-1
 212 955 l 1,11,12
 201 1020 201 1020 200 1083 c 0,13,14
 200 1219 200 1219 251.5 1317.5 c 128,-1,15
 303 1416 303 1416 387 1467 c 128,-1,16
 471 1518 471 1518 573 1518 c 0,17,18
 736 1518 736 1518 855 1374 c 1,19,-1
 740 1196 l 1,20,21
 711 1242 711 1242 672.5 1274.5 c 128,-1,22
 634 1307 634 1307 562 1307 c 0,23,24
 500 1307 500 1307 460 1248 c 128,-1,25
 420 1189 420 1189 420 1087 c 0,26,27
 420 1038 420 1038 431 955 c 1,28,-1
 674 955 l 1,29,-1
 674 747 l 1,30,-1
 469 747 l 1,31,32
 486 636 486 636 487 546 c 0,33,34
 487 468 487 468 476 401.5 c 128,-1,35
 465 335 465 335 433 271 c 1,36,37
 446.050847458 272.661016949 446.050847458 272.661016949 458.73570813 272.661016949 c 0,38,39
 499.508474576 272.661016949 499.508474576 272.661016949 536.5 255.5 c 0,40,41
 585 233 585 233 634 207.5 c 128,-1,42
 683 182 683 182 736 182 c 0,43,44
 800 182 800 182 882 259 c 1,45,-1
 952 72 l 1,46,47
 894 19 894 19 839.5 -9 c 128,-1,48
 785 -37 785 -37 723 -37 c 0,49,50
 672 -37 672 -37 613 -10 c 128,-1,51
 554 17 554 17 492.5 43.5 c 128,-1,52
 431 70 431 70 378 70 c 0,53,54
 323 70 323 70 268.5 44.5 c 128,-1,55
 214 19 214 19 136 -30 c 1,0,-1
EndSplineSet
EndChar

StartChar: uni20A9
Encoding: 8361 8361 614
Width: 922
VWidth: 2424
GlyphClass: 2
Flags: HW
AnchorPoint: "Anchor-2" 469 0 basechar 0
AnchorPoint: "Anchor-0" 478 1511 basechar 0
LayerCount: 2
Fore
SplineSet
665 587 m 1,0,-1
 671 696 l 1,1,-1
 647 696 l 1,2,-1
 665 587 l 1,0,-1
300 585 m 1,3,-1
 317 696 l 1,4,-1
 290 696 l 1,5,-1
 300 585 l 1,3,-1
474 900 m 1,6,-1
 461 819 l 1,7,-1
 486 819 l 1,8,-1
 474 900 l 1,6,-1
201 0 m 1,9,-1
 135 696 l 1,10,-1
 27 696 l 1,11,-1
 27 819 l 1,12,-1
 125 819 l 1,13,-1
 60 1511 l 1,14,-1
 229 1511 l 1,15,-1
 281 819 l 1,16,-1
 338 819 l 1,17,-1
 432 1374 l 1,18,-1
 532 1374 l 1,19,-1
 625 819 l 1,20,-1
 678 819 l 1,21,-1
 720 1511 l 1,22,-1
 878 1511 l 1,23,-1
 816 819 l 1,24,-1
 917 819 l 1,25,-1
 917 696 l 1,26,-1
 802 696 l 1,27,-1
 740 0 l 1,28,-1
 619 0 l 1,29,-1
 507 696 l 1,30,-1
 440 696 l 1,31,-1
 325 0 l 1,32,-1
 201 0 l 1,9,-1
EndSplineSet
EndChar

StartChar: yen
Encoding: 165 165 615
Width: 922
VWidth: 2424
GlyphClass: 1
Flags: HW
LayerCount: 2
Fore
SplineSet
598 0 m 1,0,-1
 384 0 l 1,1,-1
 384 264 l 1,2,-1
 140 264 l 1,3,-1
 140 421 l 1,4,-1
 384 421 l 1,5,-1
 384 546 l 1,6,-1
 140 546 l 1,7,-1
 140 706 l 1,8,-1
 378 706 l 1,9,-1
 32 1511 l 1,10,-1
 273 1511 l 1,11,-1
 492 944 l 1,12,-1
 695 1511 l 1,13,-1
 922 1511 l 1,14,-1
 600 706 l 1,15,-1
 831 706 l 1,16,-1
 831 546 l 1,17,-1
 598 546 l 1,18,-1
 598 421 l 1,19,-1
 831 421 l 1,20,-1
 831 264 l 1,21,-1
 598 264 l 1,22,-1
 598 0 l 1,0,-1
EndSplineSet
EndChar

StartChar: asteriskmath
Encoding: 8727 8727 616
Width: 922
VWidth: 2424
GlyphClass: 1
Flags: HW
LayerCount: 2
Fore
SplineSet
316 296 m 1,0,-1
 127 463 l 1,1,-1
 376 784 l 1,2,-1
 63 888 l 1,3,-1
 146 1132 l 1,4,-1
 424 960 l 1,5,-1
 381 1346 l 1,6,-1
 653 1346 l 1,7,-1
 597 960 l 1,8,-1
 870 1115 l 1,9,-1
 953 882 l 1,10,-1
 638 786 l 1,11,-1
 881 463 l 1,12,-1
 690 296 l 1,13,-1
 507 657 l 1,14,-1
 316 296 l 1,0,-1
EndSplineSet
EndChar

StartChar: uni2215
Encoding: 8725 8725 618
Width: 922
VWidth: 2392
GlyphClass: 1
Flags: HW
LayerCount: 2
Fore
SplineSet
272 -246 m 1,0,-1
 98 -198 l 1,1,-1
 773 1908 l 1,2,-1
 947 1858 l 1,3,-1
 272 -246 l 1,0,-1
EndSplineSet
EndChar

StartChar: element
Encoding: 8712 8712 619
Width: 922
VWidth: 2424
GlyphClass: 1
Flags: HW
LayerCount: 2
Fore
SplineSet
610 -19 m 2,0,1
 364 -19 364 -19 222.5 131.5 c 128,-1,2
 81 282 81 282 81 546 c 0,3,4
 81 724 81 724 145.5 852.5 c 128,-1,5
 210 981 210 981 328.5 1054 c 128,-1,6
 447 1127 447 1127 606 1127 c 2,7,-1
 971 1127 l 1,8,-1
 971 972 l 1,9,-1
 639 972 l 2,10,11
 447 972 447 972 349 888.5 c 128,-1,12
 251 805 251 805 235 625 c 1,13,-1
 971 625 l 1,14,-1
 971 470 l 1,15,-1
 235 470 l 1,16,17
 249 290 249 290 343.5 213 c 128,-1,18
 438 136 438 136 639 136 c 2,19,-1
 971 136 l 1,20,-1
 971 -19 l 1,21,-1
 610 -19 l 2,0,1
EndSplineSet
EndChar

StartChar: plus
Encoding: 43 43 621
Width: 922
VWidth: 2424
GlyphClass: 1
Flags: HW
LayerCount: 2
Fore
SplineSet
428 252 m 1,0,-1
 428 678 l 1,1,-1
 82 678 l 1,2,-1
 82 890 l 1,3,-1
 428 890 l 1,4,-1
 428 1280 l 1,5,-1
 637 1280 l 1,6,-1
 637 890 l 1,7,-1
 972 890 l 1,8,-1
 972 678 l 1,9,-1
 637 678 l 1,10,-1
 637 252 l 1,11,-1
 428 252 l 1,0,-1
EndSplineSet
EndChar

StartChar: minus
Encoding: 8722 8722 622
Width: 922
VWidth: 2424
GlyphClass: 1
Flags: HW
LayerCount: 2
Fore
SplineSet
82 678 m 1,0,-1
 82 890 l 1,1,-1
 972 890 l 1,2,-1
 972 678 l 1,3,-1
 82 678 l 1,0,-1
EndSplineSet
Substitution2: "'sups' Superscript in Latin lookup 20 subtable" uni207B
Substitution2: "'aalt' Access All Alternates in Latin lookup 0 subtable" uni207B
EndChar

StartChar: multiply
Encoding: 215 215 623
Width: 922
VWidth: 2424
GlyphClass: 1
Flags: HW
LayerCount: 2
Fore
SplineSet
807 342 m 1,0,-1
 555 645 l 1,1,-1
 305 354 l 1,2,-1
 153 514 l 1,3,-1
 407 814 l 1,4,-1
 153 1122 l 1,5,-1
 313 1284 l 1,6,-1
 558 990 l 1,7,-1
 807 1282 l 1,8,-1
 970 1127 l 1,9,-1
 708 817 l 1,10,-1
 962 509 l 1,11,-1
 807 342 l 1,0,-1
EndSplineSet
EndChar

StartChar: divide
Encoding: 247 247 624
Width: 922
VWidth: 2424
GlyphClass: 1
Flags: HW
LayerCount: 2
Fore
SplineSet
558 231 m 128,-1,1
 505 231 505 231 467 268 c 128,-1,2
 429 305 429 305 429 359 c 0,3,4
 429 415 429 415 468 452.5 c 128,-1,5
 507 490 507 490 558 490 c 128,-1,6
 609 490 609 490 648 450 c 128,-1,7
 687 410 687 410 687 359 c 0,8,9
 687 306 687 306 649 268.5 c 128,-1,0
 611 231 611 231 558 231 c 128,-1,1
136 645 m 1,10,-1
 136 877 l 1,11,-1
 958 877 l 1,12,-1
 958 645 l 1,13,-1
 136 645 l 1,10,-1
555 1025 m 0,14,15
 504 1025 504 1025 466.5 1063 c 128,-1,16
 429 1101 429 1101 429 1154 c 128,-1,17
 429 1207 429 1207 468 1247 c 128,-1,18
 507 1287 507 1287 555 1287 c 0,19,20
 611 1287 611 1287 649 1246 c 128,-1,21
 687 1205 687 1205 687 1154 c 0,22,23
 687 1101 687 1101 649 1063 c 128,-1,24
 611 1025 611 1025 555 1025 c 0,14,15
EndSplineSet
EndChar

StartChar: equal
Encoding: 61 61 625
Width: 922
VWidth: 2424
GlyphClass: 1
Flags: HW
LayerCount: 2
Fore
SplineSet
90 410 m 1,0,-1
 90 618 l 1,1,-1
 980 618 l 1,2,-1
 980 410 l 1,3,-1
 90 410 l 1,0,-1
90 914 m 1,4,-1
 90 1122 l 1,5,-1
 980 1122 l 1,6,-1
 980 914 l 1,7,-1
 90 914 l 1,4,-1
EndSplineSet
EndChar

StartChar: notequal
Encoding: 8800 8800 626
Width: 922
VWidth: 2424
GlyphClass: 1
Flags: HW
LayerCount: 2
Fore
SplineSet
90 410 m 1,0,-1
 90 618 l 1,1,-1
 368 618 l 1,2,-1
 518 914 l 1,3,-1
 90 914 l 1,4,-1
 90 1122 l 1,5,-1
 621 1122 l 1,6,-1
 805 1494 l 1,7,-1
 944 1413 l 1,8,-1
 800 1122 l 1,9,-1
 980 1122 l 1,10,-1
 980 914 l 1,11,-1
 696 914 l 1,12,-1
 548 618 l 1,13,-1
 980 618 l 1,14,-1
 980 410 l 1,15,-1
 444 410 l 1,16,-1
 259 41 l 1,17,-1
 118 118 l 1,18,-1
 264 410 l 1,19,-1
 90 410 l 1,0,-1
EndSplineSet
EndChar

StartChar: greater
Encoding: 62 62 627
Width: 922
VWidth: 2424
GlyphClass: 1
Flags: HW
LayerCount: 2
Fore
SplineSet
81 92 m 1,0,-1
 81 352 l 1,1,-1
 725 778 l 1,2,-1
 83 1154 l 1,3,-1
 83 1404 l 1,4,-1
 971 854 l 1,5,-1
 971 708 l 1,6,-1
 81 92 l 1,0,-1
EndSplineSet
EndChar

StartChar: less
Encoding: 60 60 628
Width: 922
VWidth: 2424
GlyphClass: 1
Flags: HW
LayerCount: 2
Fore
SplineSet
958 92 m 1,0,-1
 68 708 l 1,1,-1
 68 854 l 1,2,-1
 951 1404 l 1,3,-1
 951 1154 l 1,4,-1
 312 778 l 1,5,-1
 958 359 l 1,6,-1
 958 92 l 1,0,-1
EndSplineSet
EndChar

StartChar: lessequal
Encoding: 8804 8804 630
Width: 922
VWidth: 2424
GlyphClass: 1
Flags: HW
LayerCount: 2
Fore
SplineSet
91 53 m 1,0,-1
 91 252 l 1,1,-1
 953 252 l 1,2,-1
 953 53 l 1,3,-1
 91 53 l 1,0,-1
953 335 m 1,4,-1
 63 805 l 1,5,-1
 63 948 l 1,6,-1
 953 1425 l 1,7,-1
 953 1191 l 1,8,-1
 313 875 l 1,9,-1
 953 572 l 1,10,-1
 953 335 l 1,4,-1
EndSplineSet
EndChar

StartChar: plusminus
Encoding: 177 177 631
Width: 922
VWidth: 2424
GlyphClass: 1
Flags: HW
LayerCount: 2
Fore
SplineSet
82 7 m 1,0,-1
 82 228 l 1,1,-1
 972 228 l 1,2,-1
 972 7 l 1,3,-1
 82 7 l 1,0,-1
429 368 m 1,4,-1
 429 796 l 1,5,-1
 84 796 l 1,6,-1
 84 1006 l 1,7,-1
 429 1006 l 1,8,-1
 429 1399 l 1,9,-1
 638 1399 l 1,10,-1
 638 1006 l 1,11,-1
 972 1006 l 1,12,-1
 972 796 l 1,13,-1
 638 796 l 1,14,-1
 638 368 l 1,15,-1
 429 368 l 1,4,-1
EndSplineSet
EndChar

StartChar: asciitilde
Encoding: 126 126 633
Width: 922
VWidth: 2424
GlyphClass: 1
Flags: HW
LayerCount: 2
Fore
SplineSet
729 606 m 0,0,1
 659 606 659 606 608 638.5 c 128,-1,2
 557 671 557 671 514 704.5 c 128,-1,3
 471 738 471 738 422 738 c 0,4,5
 319 738 319 738 255 625 c 1,6,-1
 103 756 l 1,7,8
 148 836 148 836 222.5 894.5 c 128,-1,9
 297 953 297 953 396 953 c 0,10,11
 466 953 466 953 519 921.5 c 128,-1,12
 572 890 572 890 616.5 857 c 128,-1,13
 661 824 661 824 707 824 c 0,14,15
 752 824 752 824 789.5 858.5 c 128,-1,16
 827 893 827 893 863 946 c 1,17,-1
 993 796 l 1,18,19
 937 708 937 708 872 657 c 128,-1,20
 807 606 807 606 729 606 c 0,0,1
EndSplineSet
Substitution2: "'ss01' Style Set 1 in Latin lookup 35 subtable" asciitilde.ss01
Substitution2: "'salt' Stylistic Alternatives in Latin lookup 34 subtable" asciitilde.ss01
Substitution2: "'aalt' Access All Alternates in Latin lookup 0 subtable" asciitilde.ss01
EndChar

StartChar: logicalnot
Encoding: 172 172 634
Width: 922
VWidth: 2424
GlyphClass: 1
Flags: HW
LayerCount: 2
Fore
SplineSet
684 373 m 1,0,-1
 684 657 l 1,1,-1
 178 657 l 1,2,-1
 178 888 l 1,3,-1
 926 888 l 1,4,-1
 926 373 l 1,5,-1
 684 373 l 1,0,-1
EndSplineSet
EndChar

StartChar: asciicircum
Encoding: 94 94 635
Width: 922
VWidth: 2424
GlyphClass: 1
Flags: HW
LayerCount: 2
Fore
SplineSet
352 807 m 1,0,-1
 157 900 l 1,1,-1
 490 1513 l 1,2,-1
 616 1513 l 1,3,-1
 921 902 l 1,4,-1
 727 810 l 1,5,-1
 546 1168 l 1,6,-1
 352 807 l 1,0,-1
EndSplineSet
Substitution2: "'ss01' Style Set 1 in Latin lookup 35 subtable" asciicircum.ss01
Substitution2: "'salt' Stylistic Alternatives in Latin lookup 34 subtable" asciicircum.ss01
Substitution2: "'aalt' Access All Alternates in Latin lookup 0 subtable" asciicircum.ss01
EndChar

StartChar: infinity
Encoding: 8734 8734 636
Width: 922
VWidth: 2424
GlyphClass: 1
Flags: HW
LayerCount: 2
Fore
SplineSet
762 729 m 0,0,1
 762 778 762 778 739 811 c 128,-1,2
 716 844 716 844 679 844 c 0,3,4
 621 844 621 844 563 729 c 1,5,6
 617 608 617 608 681 608 c 0,7,8
 717 608 717 608 739.5 642 c 128,-1,9
 762 676 762 676 762 729 c 0,0,1
387 729 m 1,10,11
 339 847 339 847 275 849 c 0,12,13
 235 849 235 849 213 814.5 c 128,-1,14
 191 780 191 780 191 729 c 0,15,16
 191 683 191 683 213 648 c 128,-1,17
 235 613 235 613 277 613 c 0,18,19
 309 613 309 613 335 643 c 128,-1,20
 361 673 361 673 387 729 c 1,10,11
922 724 m 0,21,22
 922 639 922 639 892.5 568 c 128,-1,23
 863 497 863 497 810.5 453.5 c 128,-1,24
 758 410 758 410 689 410 c 0,25,26
 559 410 559 410 475 562 c 1,27,28
 429 495 429 495 376 453.5 c 128,-1,29
 323 412 323 412 267 412 c 0,30,31
 167 412 167 412 99.5 501 c 128,-1,32
 32 590 32 590 32 729 c 0,33,34
 32 863 32 863 96 955.5 c 128,-1,35
 160 1048 160 1048 267 1048 c 0,36,37
 327 1048 327 1048 381 1012.5 c 128,-1,38
 435 977 435 977 479 895 c 1,39,40
 521 967 521 967 572 1006 c 128,-1,41
 623 1045 623 1045 689 1045 c 0,42,43
 792 1045 792 1045 857 957.5 c 128,-1,44
 922 870 922 870 922 724 c 0,21,22
EndSplineSet
EndChar

StartChar: emptyset
Encoding: 8709 8709 637
Width: 922
VWidth: 2424
GlyphClass: 1
Flags: HW
LayerCount: 2
Fore
SplineSet
472 446 m 0,0,1
 544 446 544 446 601 492.5 c 128,-1,2
 658 539 658 539 692.5 617.5 c 128,-1,3
 727 696 727 696 727 791 c 0,4,5
 727 876 727 876 698 946 c 1,6,-1
 333 502 l 1,7,8
 396 446 396 446 472 446 c 0,0,1
220 791 m 0,9,10
 220 706 220 706 248 633 c 1,11,-1
 612 1074 l 1,12,13
 551.087719298 1129.01754386 551.087719298 1129.01754386 474.731917513 1129.01754386 c 0,0,0
 473.368421053 1129.01754386 473.368421053 1129.01754386 472 1129 c 0,14,15
 402 1129 402 1129 344.5 1083.5 c 128,-1,16
 287 1038 287 1038 253.5 962 c 128,-1,17
 220 886 220 886 220 791 c 0,9,10
126 250 m 1,18,-1
 28 366 l 1,19,-1
 130 490 l 1,20,21
 96 553 96 553 77 630.5 c 128,-1,22
 58 708 58 708 58 791 c 0,23,24
 58 939 58 939 114 1058.5 c 128,-1,25
 170 1178 170 1178 263 1249.5 c 128,-1,26
 356 1321 356 1321 472 1321 c 0,27,28
 546 1321 546 1321 609 1292 c 128,-1,29
 672 1263 672 1263 727 1212 c 1,30,-1
 821 1328 l 1,31,-1
 918 1212 l 1,32,-1
 817 1089 l 1,33,34
 851 1026 851 1026 869.5 949 c 128,-1,35
 888 872 888 872 888 791 c 0,36,37
 888 645 888 645 832.5 523.5 c 128,-1,38
 777 402 777 402 682.5 329.5 c 128,-1,39
 588 257 588 257 472 257 c 0,40,41
 400 257 400 257 336 286 c 128,-1,42
 272 315 272 315 220 366 c 1,43,-1
 126 250 l 1,18,-1
EndSplineSet
EndChar

StartChar: integral
Encoding: 8747 8747 638
Width: 922
VWidth: 2342
GlyphClass: 1
Flags: HW
LayerCount: 2
Fore
SplineSet
259 -246 m 0,0,1
 173 -246 173 -246 100 -208 c 1,2,-1
 100 -12 l 1,3,4
 130 -26 130 -26 162 -36.5 c 128,-1,5
 194 -47 194 -47 223 -47 c 0,6,7
 285 -47 285 -47 319 1 c 128,-1,8
 353 49 353 49 353 156 c 2,9,-1
 353 1453 l 2,10,11
 353 1658 353 1658 439.5 1750 c 128,-1,12
 526 1842 526 1842 677 1842 c 0,13,14
 723 1842 723 1842 760 1833 c 128,-1,15
 797 1824 797 1824 833 1807 c 1,16,-1
 833 1611 l 1,17,18
 801 1623 801 1623 767 1633.5 c 128,-1,19
 733 1644 733 1644 706 1644 c 0,20,21
 644 1644 644 1644 610 1598 c 128,-1,22
 576 1552 576 1552 576 1427 c 2,23,-1
 576 134 l 2,24,25
 576 -63 576 -63 487.5 -154.5 c 128,-1,26
 399 -246 399 -246 259 -246 c 0,0,1
EndSplineSet
EndChar

StartChar: uni2126
Encoding: 8486 8486 639
Width: 922
VWidth: 2424
GlyphClass: 1
Flags: HW
LayerCount: 2
Fore
SplineSet
480 1355 m 128,-1,1
 373 1355 373 1355 317 1237.5 c 128,-1,2
 261 1120 261 1120 261 897 c 0,3,4
 261 686 261 686 304 538.5 c 128,-1,5
 347 391 347 391 423 315 c 1,6,-1
 423 0 l 1,7,-1
 34 0 l 1,8,-1
 34 245 l 1,9,-1
 229 245 l 1,10,11
 141 349 141 349 89.5 528.5 c 128,-1,12
 38 708 38 708 38 946 c 0,13,14
 38 1283 38 1283 155.5 1459.5 c 128,-1,15
 273 1636 273 1636 478 1636 c 0,16,17
 676 1636 676 1636 797 1461.5 c 128,-1,18
 918 1287 918 1287 918 946 c 0,19,20
 918 469 918 469 725 245 c 1,21,-1
 924 245 l 1,22,-1
 924 0 l 1,23,-1
 530 0 l 1,24,-1
 530 315 l 1,25,26
 618 395 618 395 656.5 543 c 128,-1,27
 695 691 695 691 695 900 c 0,28,29
 695 1123 695 1123 641 1239 c 128,-1,0
 587 1355 587 1355 480 1355 c 128,-1,1
EndSplineSet
EndChar

StartChar: uni2206
Encoding: 8710 8710 640
Width: 922
VWidth: 2424
GlyphClass: 1
Flags: HW
LayerCount: 2
Fore
SplineSet
696 225 m 1,0,-1
 493 1384 l 1,1,-1
 488 1384 l 1,2,-1
 278 225 l 1,3,-1
 696 225 l 1,0,-1
627 1636 m 1,4,-1
 933 157 l 1,5,-1
 931 0 l 1,6,-1
 43 0 l 1,7,-1
 43 160 l 1,8,-1
 352 1636 l 1,9,-1
 627 1636 l 1,4,-1
EndSplineSet
EndChar

StartChar: product
Encoding: 8719 8719 641
Width: 922
VWidth: 2323
GlyphClass: 1
Flags: HW
LayerCount: 2
Fore
SplineSet
82 -246 m 1,0,-1
 82 1511 l 1,1,-1
 901 1511 l 1,2,3
 901 1492 901 1492 895.5 1482 c 128,-1,4
 890 1472 890 1472 886 1435 c 1,5,-1
 886 -246 l 1,6,-1
 659 -246 l 1,7,-1
 659 1323 l 1,8,-1
 311 1323 l 1,9,-1
 311 -246 l 1,10,-1
 82 -246 l 1,0,-1
EndSplineSet
EndChar

StartChar: summation
Encoding: 8721 8721 642
Width: 922
VWidth: 2356
GlyphClass: 1
Flags: HW
LayerCount: 2
Fore
SplineSet
37 -246 m 1,0,-1
 37 -68 l 1,1,-1
 424 688 l 1,2,-1
 47 1441 l 1,3,-1
 47 1619 l 1,4,-1
 898 1619 l 1,5,-1
 898 1415 l 1,6,-1
 291 1415 l 1,7,-1
 641 692 l 1,8,-1
 267 -42 l 1,9,-1
 927 -42 l 1,10,-1
 927 -246 l 1,11,-1
 37 -246 l 1,0,-1
EndSplineSet
EndChar

StartChar: radical
Encoding: 8730 8730 643
Width: 922
VWidth: 2424
GlyphClass: 1
Flags: HW
LayerCount: 2
Fore
SplineSet
339 -17 m 1,0,-1
 167 636 l 1,1,-1
 15 636 l 1,2,-1
 15 839 l 1,3,-1
 290 839 l 1,4,-1
 407 386 l 1,5,-1
 713 1636 l 1,6,-1
 905 1636 l 1,7,-1
 500 -17 l 1,8,-1
 339 -17 l 1,0,-1
EndSplineSet
EndChar

StartChar: uni00B5
Encoding: 181 181 644
Width: 922
VWidth: 2313
GlyphClass: 1
Flags: HW
LayerCount: 2
Fore
SplineSet
20 -246 m 1,0,1
 20 -161 20 -161 36 45.5 c 128,-1,2
 52 252 52 252 52 548 c 2,3,-1
 52 1127 l 1,4,-1
 261 1127 l 1,5,-1
 261 502 l 2,6,7
 261 364 261 364 292 314 c 128,-1,8
 323 264 323 264 376 264 c 0,9,10
 494 264 494 264 494 497 c 2,11,-1
 494 1127 l 1,12,-1
 700 1127 l 1,13,-1
 700 373 l 2,14,15
 700 280 700 280 752 280 c 0,16,17
 768 280 768 280 788.5 300 c 128,-1,18
 809 320 809 320 819 344 c 2,19,-1
 832 377 l 1,20,-1
 910 202 l 1,21,22
 871 136 871 136 824.5 103 c 128,-1,23
 778 70 778 70 731 70 c 128,-1,24
 684 70 684 70 648.5 106 c 128,-1,25
 613 142 613 142 597 191 c 1,26,27
 570 136 570 136 518.5 106 c 128,-1,28
 467 76 467 76 404 76 c 0,29,30
 351 76 351 76 298 104.5 c 128,-1,31
 245 133 245 133 217 193 c 1,32,33
 217 136 217 136 216 53.5 c 128,-1,34
 215 -29 215 -29 214 -109 c 128,-1,35
 213 -189 213 -189 213 -246 c 1,36,-1
 20 -246 l 1,0,1
EndSplineSet
EndChar

StartChar: partialdiff
Encoding: 8706 8706 645
Width: 922
VWidth: 2424
GlyphClass: 1
Flags: HW
LayerCount: 2
Fore
SplineSet
441 169 m 0,0,1
 527 169 527 169 581.5 251 c 128,-1,2
 636 333 636 333 665.5 462.5 c 128,-1,3
 695 592 695 592 704 738 c 1,4,5
 635.398843931 909.005780347 635.398843931 909.005780347 510.454742892 909.005780347 c 0,0,0
 509.728323699 909.005780347 509.728323699 909.005780347 509 909 c 0,6,7
 440 909 440 909 392 864 c 128,-1,8
 344 819 344 819 315 745 c 128,-1,9
 286 671 286 671 275.5 585.5 c 128,-1,10
 269.540540541 536.972972973 269.540540541 536.972972973 269.540540541 488.284879474 c 0,0,0
 269.540540541 451.189189189 269.540540541 451.189189189 273 414 c 0,11,12
 284 289 284 289 328 229 c 128,-1,13
 372 169 372 169 441 169 c 0,0,1
433 -27 m 0,14,15
 252 -27 252 -27 157 102 c 128,-1,16
 62 231 62 231 45 424 c 0,17,18
 40.8983050847 469.118644068 40.8983050847 469.118644068 40.8983050847 514.028727377 c 0,0,0
 40.8983050847 589.559322034 40.8983050847 589.559322034 52.5 664.5 c 128,-1,19
 71 784 71 784 121.5 881.5 c 128,-1,20
 172 979 172 979 255 1039 c 128,-1,21
 338 1099 338 1099 454 1099 c 0,22,23
 534 1099 534 1099 596 1062 c 128,-1,24
 658 1025 658 1025 706 960 c 1,25,26
 706 984 706 984 703.5 1006 c 128,-1,27
 701 1028 701 1028 699 1052 c 0,28,29
 688 1205 688 1205 628 1305.5 c 128,-1,30
 568 1406 568 1406 439 1406 c 0,31,32
 388 1406 388 1406 323 1389 c 128,-1,33
 258 1372 258 1372 205 1333 c 1,34,-1
 185 1539 l 1,35,36
 243 1571 243 1571 309.5 1587 c 128,-1,37
 376 1603 376 1603 441 1603 c 0,38,39
 605 1603 605 1603 705.5 1528 c 128,-1,40
 806 1453 806 1453 857.5 1315.5 c 128,-1,41
 909 1178 909 1178 925 994 c 0,42,43
 931.540540541 910.162162162 931.540540541 910.162162162 931.540540541 825.263696129 c 0,0,0
 931.540540541 767.378378378 931.540540541 767.378378378 928.5 709 c 128,-1,44
 921 565 921 565 889.5 433 c 128,-1,45
 858 301 858 301 799 198 c 128,-1,46
 740 95 740 95 650 34 c 128,-1,47
 560 -27 560 -27 433 -27 c 0,14,15
EndSplineSet
EndChar

StartChar: percent
Encoding: 37 37 646
Width: 922
VWidth: 2424
GlyphClass: 1
Flags: HW
LayerCount: 2
Fore
SplineSet
700 141 m 128,-1,1
 736 141 736 141 757 182 c 128,-1,2
 778 223 778 223 778 294 c 0,3,4
 778 361 778 361 758 406 c 128,-1,5
 738 451 738 451 700 451 c 0,6,7
 664 451 664 451 641.5 411 c 128,-1,8
 619 371 619 371 619 296 c 128,-1,9
 619 221 619 221 641.5 181 c 128,-1,0
 664 141 664 141 700 141 c 128,-1,1
700 -24 m 0,10,11
 607 -24 607 -24 540.5 65.5 c 128,-1,12
 474 155 474 155 474 296 c 128,-1,13
 474 437 474 437 540.5 527.5 c 128,-1,14
 607 618 607 618 700 618 c 0,15,16
 795 618 795 618 860.5 526 c 128,-1,17
 926 434 926 434 926 296 c 0,18,19
 926 153 926 153 860.5 64.5 c 128,-1,20
 795 -24 795 -24 700 -24 c 0,10,11
262 1060 m 0,21,22
 338 1060 338 1060 339 1215 c 0,23,24
 339 1290 339 1290 317.5 1330 c 128,-1,25
 296 1370 296 1370 260 1370 c 0,26,27
 226 1370 226 1370 205 1330 c 128,-1,28
 184 1290 184 1290 184 1215 c 128,-1,29
 184 1140 184 1140 205 1100 c 128,-1,30
 226 1060 226 1060 262 1060 c 0,21,22
63 0 m 1,31,-1
 730 1511 l 1,32,-1
 894 1511 l 1,33,-1
 224 0 l 1,34,-1
 63 0 l 1,31,-1
262 893 m 0,35,36
 169 893 169 893 102.5 983.5 c 128,-1,37
 36 1074 36 1074 36 1217 c 0,38,39
 36 1356 36 1356 102.5 1446.5 c 128,-1,40
 169 1537 169 1537 262 1537 c 128,-1,41
 355 1537 355 1537 421.5 1445 c 128,-1,42
 488 1353 488 1353 488 1215 c 0,43,44
 488 1069 488 1069 423.5 981 c 128,-1,45
 359 893 359 893 262 893 c 0,35,36
EndSplineSet
EndChar

StartChar: perthousand
Encoding: 8240 8240 647
Width: 922
VWidth: 2424
GlyphClass: 1
Flags: HW
LayerCount: 2
Fore
SplineSet
714 129 m 0,0,1
 742 129 742 129 763.5 164 c 128,-1,2
 785 199 785 199 785 266 c 0,3,4
 785 329 785 329 764.5 368 c 128,-1,5
 744 407 744 407 709 407 c 0,6,7
 681 407 681 407 659.5 374.5 c 128,-1,8
 638 342 638 342 638 271 c 0,9,10
 638 196 638 196 661 162.5 c 128,-1,11
 684 129 684 129 714 129 c 0,0,1
250 129 m 0,12,13
 278 129 278 129 299 164 c 128,-1,14
 320 199 320 199 320 266 c 0,15,16
 320 329 320 329 299.5 368 c 128,-1,17
 279 407 279 407 245 407 c 0,18,19
 217 407 217 407 195.5 374.5 c 128,-1,20
 174 342 174 342 174 271 c 0,21,22
 174 196 174 196 197 162.5 c 128,-1,23
 220 129 220 129 250 129 c 0,12,13
712 -24 m 0,24,25
 630 -24 630 -24 569.5 57.5 c 128,-1,26
 509 139 509 139 509 269 c 0,27,28
 509 398 509 398 569.5 481.5 c 128,-1,29
 630 565 630 565 712 565 c 0,30,31
 798 565 798 565 855.5 482.5 c 128,-1,32
 913 400 913 400 913 269 c 128,-1,33
 913 138 913 138 852.5 57 c 128,-1,34
 792 -24 792 -24 712 -24 c 0,24,25
248 -24 m 0,35,36
 166 -24 166 -24 105.5 57.5 c 128,-1,37
 45 139 45 139 45 269 c 0,38,39
 45 398 45 398 105.5 481.5 c 128,-1,40
 166 565 166 565 248 565 c 0,41,42
 334 565 334 565 392.5 481.5 c 128,-1,43
 451 398 451 398 451 269 c 0,44,45
 451 138 451 138 389.5 57 c 128,-1,46
 328 -24 328 -24 248 -24 c 0,35,36
39 539 m 1,47,-1
 39 701 l 1,48,-1
 929 1302 l 1,49,-1
 929 1140 l 1,50,-1
 39 539 l 1,47,-1
250 1101 m 0,51,52
 278 1101 278 1101 299 1137 c 128,-1,53
 320 1173 320 1173 320 1242 c 0,54,55
 320 1305 320 1305 299.5 1344.5 c 128,-1,56
 279 1384 279 1384 245 1384 c 0,57,58
 217 1384 217 1384 195.5 1350 c 128,-1,59
 174 1316 174 1316 174 1247 c 0,60,61
 174 1172 174 1172 197 1136.5 c 128,-1,62
 220 1101 220 1101 250 1101 c 0,51,52
248 951 m 0,63,64
 166 951 166 951 105.5 1032 c 128,-1,65
 45 1113 45 1113 45 1244 c 0,66,67
 45 1373 45 1373 105.5 1456 c 128,-1,68
 166 1539 166 1539 248 1539 c 0,69,70
 334 1539 334 1539 392.5 1456.5 c 128,-1,71
 451 1374 451 1374 451 1244 c 0,72,73
 451 1113 451 1113 389.5 1032 c 128,-1,74
 328 951 328 951 248 951 c 0,63,64
EndSplineSet
EndChar

StartChar: circleplus
Encoding: 8853 8853 648
Width: 922
VWidth: 2424
GlyphClass: 1
Flags: HW
LayerCount: 2
Fore
SplineSet
438 429 m 1,0,-1
 438 684 l 1,1,-1
 247 684 l 1,2,-1
 247 824 l 1,3,-1
 438 824 l 1,4,-1
 438 1055 l 1,5,-1
 569 1055 l 1,6,-1
 569 824 l 1,7,-1
 754 824 l 1,8,-1
 754 684 l 1,9,-1
 569 684 l 1,10,-1
 569 429 l 1,11,-1
 438 429 l 1,0,-1
499 363 m 128,-1,13
 586 363 586 363 658 415.5 c 128,-1,14
 730 468 730 468 772.5 554 c 128,-1,15
 815 640 815 640 815 747 c 128,-1,16
 815 854 815 854 772.5 939.5 c 128,-1,17
 730 1025 730 1025 658 1076 c 128,-1,18
 586 1127 586 1127 499 1127 c 128,-1,19
 412 1127 412 1127 340.5 1076 c 128,-1,20
 269 1025 269 1025 227 939.5 c 128,-1,21
 185 854 185 854 185 747 c 128,-1,22
 185 640 185 640 227 554 c 128,-1,23
 269 468 269 468 340.5 415.5 c 128,-1,12
 412 363 412 363 499 363 c 128,-1,13
499 220 m 128,-1,25
 376 220 376 220 275 290.5 c 128,-1,26
 174 361 174 361 114.5 480 c 128,-1,27
 55 599 55 599 55 747 c 128,-1,28
 55 895 55 895 114.5 1013.5 c 128,-1,29
 174 1132 174 1132 275 1202.5 c 128,-1,30
 376 1273 376 1273 499 1273 c 128,-1,31
 622 1273 622 1273 723 1202.5 c 128,-1,32
 824 1132 824 1132 884.5 1013.5 c 128,-1,33
 945 895 945 895 945 747 c 128,-1,34
 945 599 945 599 884.5 480 c 128,-1,35
 824 361 824 361 723 290.5 c 128,-1,24
 622 220 622 220 499 220 c 128,-1,25
EndSplineSet
EndChar

StartChar: arrowup
Encoding: 8593 8593 651
Width: 922
VWidth: 2424
GlyphClass: 1
Flags: HW
LayerCount: 2
Fore
SplineSet
386 0 m 1,0,-1
 386 1009 l 1,1,-1
 213 749 l 1,2,-1
 50 914 l 1,3,-1
 437 1492 l 1,4,-1
 553 1492 l 1,5,-1
 940 914 l 1,6,-1
 777 749 l 1,7,-1
 606 1006 l 1,8,-1
 606 0 l 1,9,-1
 386 0 l 1,0,-1
EndSplineSet
EndChar

StartChar: uni2197
Encoding: 8599 8599 652
Width: 922
VWidth: 2424
GlyphClass: 1
Flags: HW
LayerCount: 2
Fore
SplineSet
33 470 m 1,0,-1
 536 1120 l 1,1,-1
 251 1074 l 1,2,-1
 235 1319 l 1,3,-1
 841 1402 l 1,4,-1
 923 1300 l 1,5,-1
 862 572 l 1,6,-1
 653 594 l 1,7,-1
 686 941 l 1,8,-1
 189 303 l 1,9,-1
 33 470 l 1,0,-1
EndSplineSet
EndChar

StartChar: arrowright
Encoding: 8594 8594 653
Width: 922
VWidth: 2424
GlyphClass: 1
Flags: HW
LayerCount: 2
Fore
SplineSet
24 842 m 1,0,-1
 546 842 l 1,1,-1
 318 1087 l 1,2,-1
 458 1263 l 1,3,-1
 914 784 l 1,4,-1
 914 655 l 1,5,-1
 458 174 l 1,6,-1
 318 352 l 1,7,-1
 544 594 l 1,8,-1
 24 594 l 1,9,-1
 24 842 l 1,0,-1
EndSplineSet
EndChar

StartChar: arrowboth
Encoding: 8596 8596 659
Width: 922
VWidth: 2424
GlyphClass: 1
Flags: HW
LayerCount: 2
Fore
SplineSet
657 1189 m 1,0,-1
 908 771 l 1,1,-1
 908 659 l 1,2,-1
 655 247 l 1,3,-1
 507 349 l 1,4,-1
 641 592 l 1,5,-1
 283 592 l 1,6,-1
 418 349 l 1,7,-1
 270 247 l 1,8,-1
 18 659 l 1,9,-1
 18 771 l 1,10,-1
 270 1189 l 1,11,-1
 420 1094 l 1,12,-1
 281 842 l 1,13,-1
 643 842 l 1,14,-1
 507 1094 l 1,15,-1
 657 1189 l 1,0,-1
EndSplineSet
EndChar

StartChar: arrowupdn
Encoding: 8597 8597 660
Width: 922
VWidth: 2424
GlyphClass: 1
Flags: HW
LayerCount: 2
Fore
SplineSet
972 456 m 1,0,-1
 592 125 l 1,1,-1
 492 125 l 1,2,-1
 116 458 l 1,3,-1
 211 645 l 1,4,-1
 419 475 l 1,5,-1
 419 1020 l 1,6,-1
 211 851 l 1,7,-1
 116 1038 l 1,8,-1
 492 1367 l 1,9,-1
 592 1367 l 1,10,-1
 972 1038 l 1,11,-1
 882 846 l 1,12,-1
 666 1023 l 1,13,-1
 666 472 l 1,14,-1
 882 645 l 1,15,-1
 972 456 l 1,0,-1
EndSplineSet
EndChar

StartChar: uni21E7
Encoding: 8679 8679 661
Width: 922
VWidth: 2424
GlyphClass: 1
Flags: HW
LayerCount: 2
Fore
SplineSet
401 125 m 1,0,-1
 632 125 l 1,1,-1
 632 1013 l 1,2,-1
 794 1013 l 1,3,-1
 516 1374 l 1,4,-1
 244 1013 l 1,5,-1
 401 1013 l 1,6,-1
 401 125 l 1,0,-1
285 0 m 1,7,-1
 285 885 l 1,8,-1
 70 885 l 1,9,-1
 70 992 l 1,10,-1
 488 1543 l 1,11,-1
 545 1543 l 1,12,-1
 960 992 l 1,13,-1
 960 885 l 1,14,-1
 749 885 l 1,15,-1
 749 0 l 1,16,-1
 285 0 l 1,7,-1
EndSplineSet
EndChar

StartChar: uni21E8
Encoding: 8680 8680 662
Width: 922
VWidth: 2424
GlyphClass: 1
Flags: HW
LayerCount: 2
Fore
SplineSet
124 831 m 1,0,-1
 124 543 l 1,1,-1
 513 543 l 1,2,-1
 513 373 l 1,3,-1
 784 689 l 1,4,-1
 513 1006 l 1,5,-1
 513 831 l 1,6,-1
 124 831 l 1,0,-1
18 958 m 1,7,-1
 405 958 l 1,8,-1
 405 1215 l 1,9,-1
 488 1215 l 1,10,-1
 908 720 l 1,11,-1
 908 655 l 1,12,-1
 488 162 l 1,13,-1
 405 162 l 1,14,-1
 405 417 l 1,15,-1
 18 417 l 1,16,-1
 18 958 l 1,7,-1
EndSplineSet
EndChar

StartChar: uni2B06
Encoding: 11014 11014 665
Width: 922
VWidth: 2424
GlyphClass: 1
Flags: HW
LayerCount: 2
Fore
SplineSet
960 992 m 1,0,-1
 960 885 l 1,1,-1
 746 885 l 1,2,-1
 746 0 l 1,3,-1
 287 0 l 1,4,-1
 287 885 l 1,5,-1
 70 885 l 1,6,-1
 70 992 l 1,7,-1
 488 1543 l 1,8,-1
 545 1543 l 1,9,-1
 960 992 l 1,0,-1
EndSplineSet
EndChar

StartChar: uni2B05
Encoding: 11013 11013 668
Width: 922
VWidth: 2424
GlyphClass: 1
Flags: HW
LayerCount: 2
Fore
SplineSet
908 417 m 1,0,-1
 521 417 l 1,1,-1
 521 162 l 1,2,-1
 438 162 l 1,3,-1
 18 655 l 1,4,-1
 18 720 l 1,5,-1
 438 1215 l 1,6,-1
 521 1215 l 1,7,-1
 521 958 l 1,8,-1
 908 958 l 1,9,-1
 908 417 l 1,0,-1
EndSplineSet
EndChar

StartChar: dneighthblock
Encoding: 9601 9601 669
Width: 922
VWidth: 2423
GlyphClass: 1
Flags: HW
LayerCount: 2
Fore
SplineSet
788 -246 m 1,0,-1
 788 -546 l 1,1,-1
 16 -546 l 1,2,-1
 16 -246 l 1,3,-1
 788 -246 l 1,0,-1
EndSplineSet
EndChar

StartChar: dnquarterblock
Encoding: 9602 9602 670
Width: 922
VWidth: 254
GlyphClass: 1
Flags: HW
LayerCount: 2
Fore
SplineSet
-17 -246 m 1,0,-1
 -17 -121 l 1,1,-1
 144 -121 l 1,2,-1
 144 -246 l 1,3,-1
 -17 -246 l 1,0,-1
EndSplineSet
EndChar

StartChar: dnthreeeighthsblock
Encoding: 9603 9603 671
Width: 922
VWidth: 1217
GlyphClass: 1
Flags: HW
LayerCount: 2
Fore
SplineSet
-17 -246 m 1,0,-1
 -17 303 l 1,1,-1
 454 303 l 1,2,-1
 454 -246 l 1,3,-1
 -17 -246 l 1,0,-1
EndSplineSet
EndChar

StartChar: dnhalfblock
Encoding: 9604 9604 672
Width: 922
VWidth: 1699
GlyphClass: 1
Flags: HW
LayerCount: 2
Fore
SplineSet
-17 -246 m 1,0,-1
 -17 727 l 1,1,-1
 609 727 l 1,2,-1
 609 -246 l 1,3,-1
 -17 -246 l 1,0,-1
EndSplineSet
EndChar

StartChar: dnfiveeighthsblock
Encoding: 9605 9605 673
Width: 922
VWidth: 1989
GlyphClass: 1
Flags: HW
LayerCount: 2
Fore
SplineSet
-17 -246 m 1,0,-1
 -17 1152 l 1,1,-1
 702 1152 l 1,2,-1
 702 -246 l 1,3,-1
 -17 -246 l 1,0,-1
EndSplineSet
EndChar

StartChar: dnthreequartersblock
Encoding: 9606 9606 674
Width: 922
VWidth: 2181
GlyphClass: 1
Flags: HW
LayerCount: 2
Fore
SplineSet
-17 -246 m 1,0,-1
 -17 1576 l 1,1,-1
 764 1576 l 1,2,-1
 764 -246 l 1,3,-1
 -17 -246 l 1,0,-1
EndSplineSet
EndChar

StartChar: dnseveneighthsblock
Encoding: 9607 9607 675
Width: 922
VWidth: 2319
GlyphClass: 1
Flags: HW
LayerCount: 2
Fore
SplineSet
-18 -246 m 1,0,-1
 -18 2001 l 1,1,-1
 808 2001 l 1,2,-1
 808 -246 l 1,3,-1
 -18 -246 l 1,0,-1
EndSplineSet
EndChar

StartChar: fullblock
Encoding: 9608 9608 676
Width: 922
VWidth: 2424
GlyphClass: 1
Flags: HW
LayerCount: 2
Fore
SplineSet
-18 -246 m 1,0,-1
 -18 2424 l 1,1,-1
 841 2424 l 1,2,-1
 841 -246 l 1,3,-1
 -18 -246 l 1,0,-1
EndSplineSet
EndChar

StartChar: uphalfblock
Encoding: 9600 9600 677
Width: 922
VWidth: 2424
GlyphClass: 1
Flags: HW
LayerCount: 2
Fore
SplineSet
-18 727 m 1,0,-1
 -18 2424 l 1,1,-1
 872 2424 l 1,2,-1
 872 727 l 1,3,-1
 -18 727 l 1,0,-1
EndSplineSet
EndChar

StartChar: upeighthblock
Encoding: 9620 9620 678
Width: 922
VWidth: 2424
GlyphClass: 1
Flags: HW
LayerCount: 2
Fore
SplineSet
-18 2001 m 1,0,-1
 -18 2424 l 1,1,-1
 872 2424 l 1,2,-1
 872 2001 l 1,3,-1
 -18 2001 l 1,0,-1
EndSplineSet
EndChar

StartChar: lefteighthblock
Encoding: 9615 9615 679
Width: 922
VWidth: 2424
GlyphClass: 1
Flags: HW
LayerCount: 2
Fore
SplineSet
16 -246 m 1,0,-1
 16 2424 l 1,1,-1
 125 2424 l 1,2,-1
 125 -246 l 1,3,-1
 16 -246 l 1,0,-1
EndSplineSet
EndChar

StartChar: leftquarterblock
Encoding: 9614 9614 680
Width: 922
VWidth: 2424
GlyphClass: 1
Flags: HW
LayerCount: 2
Fore
SplineSet
16 -246 m 1,0,-1
 16 2424 l 1,1,-1
 231 2424 l 1,2,-1
 231 -246 l 1,3,-1
 16 -246 l 1,0,-1
EndSplineSet
EndChar

StartChar: leftthreeeighthsblock
Encoding: 9613 9613 681
Width: 922
VWidth: 2424
GlyphClass: 1
Flags: HW
LayerCount: 2
Fore
SplineSet
16 -246 m 1,0,-1
 16 2424 l 1,1,-1
 338 2424 l 1,2,-1
 338 -246 l 1,3,-1
 16 -246 l 1,0,-1
EndSplineSet
EndChar

StartChar: lefthalfblock
Encoding: 9612 9612 682
Width: 922
VWidth: 2424
GlyphClass: 1
Flags: HW
LayerCount: 2
Fore
SplineSet
16 -246 m 1,0,-1
 16 2424 l 1,1,-1
 445 2424 l 1,2,-1
 445 -246 l 1,3,-1
 16 -246 l 1,0,-1
EndSplineSet
EndChar

StartChar: leftfiveeighthsblock
Encoding: 9611 9611 683
Width: 922
VWidth: 2424
GlyphClass: 1
Flags: HW
LayerCount: 2
Fore
SplineSet
16 -246 m 1,0,-1
 16 2424 l 1,1,-1
 554 2424 l 1,2,-1
 554 -246 l 1,3,-1
 16 -246 l 1,0,-1
EndSplineSet
EndChar

StartChar: leftthreequartersblock
Encoding: 9610 9610 684
Width: 922
VWidth: 2424
GlyphClass: 1
Flags: HW
LayerCount: 2
Fore
SplineSet
16 -246 m 1,0,-1
 16 2424 l 1,1,-1
 661 2424 l 1,2,-1
 661 -246 l 1,3,-1
 16 -246 l 1,0,-1
EndSplineSet
EndChar

StartChar: leftseveneighthsblock
Encoding: 9609 9609 685
Width: 922
VWidth: 2424
GlyphClass: 1
Flags: HW
LayerCount: 2
Fore
SplineSet
16 -246 m 1,0,-1
 16 2424 l 1,1,-1
 768 2424 l 1,2,-1
 768 -246 l 1,3,-1
 16 -246 l 1,0,-1
EndSplineSet
EndChar

StartChar: righthalfblock
Encoding: 9616 9616 686
Width: 922
VWidth: 2424
GlyphClass: 1
Flags: HW
LayerCount: 2
Fore
SplineSet
412 -246 m 1,0,-1
 412 2424 l 1,1,-1
 841 2424 l 1,2,-1
 841 -246 l 1,3,-1
 412 -246 l 1,0,-1
EndSplineSet
EndChar

StartChar: righteighthblock
Encoding: 9621 9621 687
Width: 922
VWidth: 2424
GlyphClass: 1
Flags: HW
LayerCount: 2
Fore
SplineSet
734 -246 m 1,0,-1
 734 2424 l 1,1,-1
 841 2424 l 1,2,-1
 841 -246 l 1,3,-1
 734 -246 l 1,0,-1
EndSplineSet
EndChar

StartChar: dnleftquadrant
Encoding: 9622 9622 688
Width: 922
VWidth: 1699
GlyphClass: 1
Flags: HW
LayerCount: 2
Fore
SplineSet
16 -246 m 1,0,-1
 16 727 l 1,1,-1
 329 727 l 1,2,-1
 329 -246 l 1,3,-1
 16 -246 l 1,0,-1
EndSplineSet
EndChar

StartChar: dnrightquadrant
Encoding: 9623 9623 689
Width: 922
VWidth: 1699
GlyphClass: 1
Flags: HW
LayerCount: 2
Fore
SplineSet
296 -246 m 1,0,-1
 296 727 l 1,1,-1
 609 727 l 1,2,-1
 609 -246 l 1,3,-1
 296 -246 l 1,0,-1
EndSplineSet
EndChar

StartChar: upleftquadrant
Encoding: 9624 9624 690
Width: 922
VWidth: 2424
GlyphClass: 1
Flags: HW
LayerCount: 2
Fore
SplineSet
16 727 m 1,0,-1
 16 2424 l 1,1,-1
 562 2424 l 1,2,-1
 562 727 l 1,3,-1
 16 727 l 1,0,-1
EndSplineSet
EndChar

StartChar: upleftdnleftdnrightquadrant
Encoding: 9625 9625 691
Width: 922
VWidth: 2424
GlyphClass: 1
Flags: HW
LayerCount: 2
Fore
SplineSet
-18 -246 m 1,0,-1
 -18 2424 l 1,1,-1
 412 2424 l 1,2,-1
 412 1089 l 1,3,-1
 841 1089 l 1,4,-1
 841 -246 l 1,5,-1
 -18 -246 l 1,0,-1
EndSplineSet
EndChar

StartChar: upleftdnrightquadrant
Encoding: 9626 9626 692
Width: 922
VWidth: 2424
GlyphClass: 1
Flags: HW
LayerCount: 2
Fore
SplineSet
412 1089 m 1,0,-1
 841 1089 l 1,1,-1
 841 -246 l 1,2,-1
 412 -246 l 1,3,-1
 412 1089 l 1,0,-1
412 1089 m 1,4,-1
 -18 1089 l 1,5,-1
 -18 2424 l 1,6,-1
 412 2424 l 1,7,-1
 412 1089 l 1,4,-1
EndSplineSet
EndChar

StartChar: upleftuprightdnleftquadrant
Encoding: 9627 9627 693
Width: 922
VWidth: 2424
GlyphClass: 1
Flags: HW
LayerCount: 2
Fore
SplineSet
-18 -246 m 1,0,-1
 -18 2424 l 1,1,-1
 841 2424 l 1,2,-1
 841 1089 l 1,3,-1
 412 1089 l 1,4,-1
 412 -246 l 1,5,-1
 -18 -246 l 1,0,-1
EndSplineSet
EndChar

StartChar: upleftuprightdnrightquadrant
Encoding: 9628 9628 694
Width: 922
VWidth: 2424
GlyphClass: 1
Flags: HW
LayerCount: 2
Fore
SplineSet
412 -246 m 1,0,-1
 412 1089 l 1,1,-1
 -18 1089 l 1,2,-1
 -18 2424 l 1,3,-1
 841 2424 l 1,4,-1
 841 -246 l 1,5,-1
 412 -246 l 1,0,-1
EndSplineSet
EndChar

StartChar: uprightquadrant
Encoding: 9629 9629 695
Width: 922
VWidth: 2424
GlyphClass: 1
Flags: HW
LayerCount: 2
Fore
SplineSet
528 727 m 1,0,-1
 528 2424 l 1,1,-1
 1074 2424 l 1,2,-1
 1074 727 l 1,3,-1
 528 727 l 1,0,-1
EndSplineSet
EndChar

StartChar: uprightdnleftquadrant
Encoding: 9630 9630 696
Width: 922
VWidth: 2424
GlyphClass: 1
Flags: HW
LayerCount: 2
Fore
SplineSet
-18 -246 m 1,0,-1
 -18 1089 l 1,1,-1
 412 1089 l 1,2,-1
 412 -246 l 1,3,-1
 -18 -246 l 1,0,-1
412 1089 m 1,4,-1
 412 2424 l 1,5,-1
 841 2424 l 1,6,-1
 841 1089 l 1,7,-1
 412 1089 l 1,4,-1
EndSplineSet
EndChar

StartChar: uprightdnleftdnrightquadrant
Encoding: 9631 9631 697
Width: 922
VWidth: 2424
GlyphClass: 1
Flags: HW
LayerCount: 2
Fore
SplineSet
-18 -246 m 1,0,-1
 -18 1089 l 1,1,-1
 412 1089 l 1,2,-1
 412 2424 l 1,3,-1
 841 2424 l 1,4,-1
 841 -246 l 1,5,-1
 -18 -246 l 1,0,-1
EndSplineSet
EndChar

StartChar: lightshade
Encoding: 9617 9617 698
Width: 922
VWidth: 2413
GlyphClass: 1
Flags: HW
LayerCount: 2
Fore
SplineSet
19 -246 m 1
 19 -126 l 1
 127 -126 l 1
 127 -246 l 1
 19 -246 l 1
307 -246 m 1
 307 -126 l 1
 414 -126 l 1
 414 -246 l 1
 307 -246 l 1
597 -246 m 1
 597 -126 l 1
 704 -126 l 1
 704 -246 l 1
 597 -246 l 1
164 -53 m 1
 164 65 l 1
 270 65 l 1
 270 -53 l 1
 164 -53 l 1
453 -53 m 1
 453 65 l 1
 561 65 l 1
 561 -53 l 1
 453 -53 l 1
740 -53 m 1
 740 65 l 1
 848 65 l 1
 848 -53 l 1
 740 -53 l 1
19 139 m 1
 19 258 l 1
 127 258 l 1
 127 139 l 1
 19 139 l 1
307 139 m 1
 307 258 l 1
 414 258 l 1
 414 139 l 1
 307 139 l 1
597 139 m 1
 597 258 l 1
 704 258 l 1
 704 139 l 1
 597 139 l 1
740 332 m 1
 740 451 l 1
 848 451 l 1
 848 332 l 1
 740 332 l 1
453 332 m 1
 453 451 l 1
 561 451 l 1
 561 332 l 1
 453 332 l 1
164 332 m 1
 164 451 l 1
 270 451 l 1
 270 332 l 1
 164 332 l 1
19 525 m 1
 19 644 l 1
 127 644 l 1
 127 525 l 1
 19 525 l 1
307 525 m 1
 307 644 l 1
 414 644 l 1
 414 525 l 1
 307 525 l 1
597 525 m 1
 597 644 l 1
 704 644 l 1
 704 525 l 1
 597 525 l 1
164 718 m 1
 164 837 l 1
 270 837 l 1
 270 718 l 1
 164 718 l 1
453 718 m 1
 453 837 l 1
 561 837 l 1
 561 718 l 1
 453 718 l 1
740 718 m 1
 740 837 l 1
 848 837 l 1
 848 718 l 1
 740 718 l 1
19 910 m 1
 19 1029 l 1
 127 1029 l 1
 127 910 l 1
 19 910 l 1
307 910 m 1
 307 1029 l 1
 414 1029 l 1
 414 910 l 1
 307 910 l 1
597 910 m 1
 597 1029 l 1
 704 1029 l 1
 704 910 l 1
 597 910 l 1
164 1102 m 1
 164 1222 l 1
 270 1222 l 1
 270 1102 l 1
 164 1102 l 1
453 1102 m 1
 453 1222 l 1
 561 1222 l 1
 561 1102 l 1
 453 1102 l 1
740 1102 m 1
 740 1222 l 1
 848 1222 l 1
 848 1102 l 1
 740 1102 l 1
19 1295 m 1
 19 1415 l 1
 127 1415 l 1
 127 1295 l 1
 19 1295 l 1
307 1295 m 1
 307 1415 l 1
 414 1415 l 1
 414 1295 l 1
 307 1295 l 1
597 1295 m 1
 597 1415 l 1
 704 1415 l 1
 704 1295 l 1
 597 1295 l 1
164 1488 m 1
 164 1608 l 1
 270 1608 l 1
 270 1488 l 1
 164 1488 l 1
453 1488 m 1
 453 1608 l 1
 561 1608 l 1
 561 1488 l 1
 453 1488 l 1
740 1488 m 1
 740 1608 l 1
 848 1608 l 1
 848 1488 l 1
 740 1488 l 1
597 1681 m 1
 597 1801 l 1
 704 1801 l 1
 704 1681 l 1
 597 1681 l 1
307 1681 m 1
 307 1801 l 1
 414 1801 l 1
 414 1681 l 1
 307 1681 l 1
19 1681 m 1
 19 1801 l 1
 127 1801 l 1
 127 1681 l 1
 19 1681 l 1
164 1874 m 1
 164 1992 l 1
 270 1992 l 1
 270 1874 l 1
 164 1874 l 1
453 1874 m 1
 453 1992 l 1
 561 1992 l 1
 561 1874 l 1
 453 1874 l 1
740 1874 m 1
 740 1992 l 1
 848 1992 l 1
 848 1874 l 1
 740 1874 l 1
19 2066 m 1
 19 2185 l 1
 127 2185 l 1
 127 2066 l 1
 19 2066 l 1
307 2066 m 1
 307 2185 l 1
 414 2185 l 1
 414 2066 l 1
 307 2066 l 1
597 2066 m 1
 597 2185 l 1
 704 2185 l 1
 704 2066 l 1
 597 2066 l 1
164 2259 m 1
 164 2378 l 1
 270 2378 l 1
 270 2259 l 1
 164 2259 l 1
453 2259 m 1
 453 2378 l 1
 561 2378 l 1
 561 2259 l 1
 453 2259 l 1
740 2259 m 1
 740 2378 l 1
 848 2378 l 1
 848 2259 l 1
 740 2259 l 1
EndSplineSet
EndChar

StartChar: mediumshade
Encoding: 9618 9618 699
Width: 922
VWidth: 2419
GlyphClass: 1
Flags: HW
LayerCount: 2
Fore
SplineSet
-14 -246 m 1
 -14 -81 l 1
 130 -81 l 1
 130 -246 l 1
 -14 -246 l 1
269 -246 m 1
 269 -81 l 1
 417 -81 l 1
 417 -246 l 1
 269 -246 l 1
556 -246 m 1
 556 -81 l 1
 704 -81 l 1
 704 -246 l 1
 556 -246 l 1
126 -54 m 1
 126 110 l 1
 273 110 l 1
 273 -54 l 1
 126 -54 l 1
413 -54 m 1
 413 110 l 1
 560 110 l 1
 560 -54 l 1
 413 -54 l 1
700 -54 m 1
 700 110 l 1
 844 110 l 1
 844 -54 l 1
 700 -54 l 1
-14 137 m 1
 -14 302 l 1
 130 302 l 1
 130 137 l 1
 -14 137 l 1
269 137 m 1
 269 302 l 1
 417 302 l 1
 417 137 l 1
 269 137 l 1
556 137 m 1
 556 302 l 1
 704 302 l 1
 704 137 l 1
 556 137 l 1
700 329 m 1
 700 493 l 1
 844 493 l 1
 844 329 l 1
 700 329 l 1
413 329 m 1
 413 493 l 1
 560 493 l 1
 560 329 l 1
 413 329 l 1
126 329 m 1
 126 493 l 1
 273 493 l 1
 273 329 l 1
 126 329 l 1
-14 520 m 1
 -14 684 l 1
 130 684 l 1
 130 520 l 1
 -14 520 l 1
269 520 m 1
 269 684 l 1
 417 684 l 1
 417 520 l 1
 269 520 l 1
556 520 m 1
 556 684 l 1
 704 684 l 1
 704 520 l 1
 556 520 l 1
126 711 m 1
 126 876 l 1
 273 876 l 1
 273 711 l 1
 126 711 l 1
413 711 m 1
 413 876 l 1
 560 876 l 1
 560 711 l 1
 413 711 l 1
700 711 m 1
 700 876 l 1
 844 876 l 1
 844 711 l 1
 700 711 l 1
-14 903 m 1
 -14 1067 l 1
 130 1067 l 1
 130 903 l 1
 -14 903 l 1
269 903 m 1
 269 1067 l 1
 417 1067 l 1
 417 903 l 1
 269 903 l 1
556 903 m 1
 556 1067 l 1
 704 1067 l 1
 704 903 l 1
 556 903 l 1
126 1094 m 1
 126 1259 l 1
 273 1259 l 1
 273 1094 l 1
 126 1094 l 1
413 1094 m 1
 413 1259 l 1
 560 1259 l 1
 560 1094 l 1
 413 1094 l 1
700 1094 m 1
 700 1259 l 1
 844 1259 l 1
 844 1094 l 1
 700 1094 l 1
-14 1286 m 1
 -14 1451 l 1
 130 1451 l 1
 130 1286 l 1
 -14 1286 l 1
269 1286 m 1
 269 1451 l 1
 417 1451 l 1
 417 1286 l 1
 269 1286 l 1
556 1286 m 1
 556 1451 l 1
 704 1451 l 1
 704 1286 l 1
 556 1286 l 1
126 1477 m 1
 126 1641 l 1
 273 1641 l 1
 273 1477 l 1
 126 1477 l 1
413 1477 m 1
 413 1641 l 1
 560 1641 l 1
 560 1477 l 1
 413 1477 l 1
700 1477 m 1
 700 1641 l 1
 844 1641 l 1
 844 1477 l 1
 700 1477 l 1
556 1668 m 1
 556 1833 l 1
 704 1833 l 1
 704 1668 l 1
 556 1668 l 1
269 1668 m 1
 269 1833 l 1
 417 1833 l 1
 417 1668 l 1
 269 1668 l 1
-14 1668 m 1
 -14 1833 l 1
 130 1833 l 1
 130 1668 l 1
 -14 1668 l 1
126 1860 m 1
 126 2025 l 1
 273 2025 l 1
 273 1860 l 1
 126 1860 l 1
413 1860 m 1
 413 2025 l 1
 560 2025 l 1
 560 1860 l 1
 413 1860 l 1
700 1860 m 1
 700 2025 l 1
 844 2025 l 1
 844 1860 l 1
 700 1860 l 1
-14 2052 m 1
 -14 2216 l 1
 130 2216 l 1
 130 2052 l 1
 -14 2052 l 1
269 2052 m 1
 269 2216 l 1
 417 2216 l 1
 417 2052 l 1
 269 2052 l 1
556 2052 m 1
 556 2216 l 1
 704 2216 l 1
 704 2052 l 1
 556 2052 l 1
126 2243 m 1
 126 2408 l 1
 273 2408 l 1
 273 2243 l 1
 126 2243 l 1
413 2243 m 1
 413 2408 l 1
 560 2408 l 1
 560 2243 l 1
 413 2243 l 1
700 2243 m 1
 700 2408 l 1
 844 2408 l 1
 844 2243 l 1
 700 2243 l 1
EndSplineSet
EndChar

